<?xml version="1.0" encoding="UTF-8"?>
<svg id="Layer_1" data-name="Layer 1" xmlns="http://www.w3.org/2000/svg" viewBox="0 0 391.96 131.57">
  <defs>
    <style>
      .cls-1 {
        fill: #3f738d;
      }

      .cls-2 {
        fill: #1c355e;
      }
    </style>
  </defs>
  <g id="Layer_2" data-name="Layer 2">
    <g id="Layer_1-2" data-name="Layer 1-2">
      <path class="cls-2" d="M24.9,42.29c.25.03.47-.16.49-.4v-1.51c0-.26-.23-.46-.49-.45h-1.18c-.26-.02-.49.17-.52.43v1.51c-.03.25.15.47.4.5h.12l1.18-.08Z"/>
      <path class="cls-2" d="M21.74,42.29c.25.03.47-.16.49-.4v-1.51c0-.25-.2-.45-.45-.45h-1.25c-.26-.01-.48.19-.5.45v1.49c-.03.25.16.47.4.49h.09l1.22-.07Z"/>
      <path class="cls-2" d="M19.7,38.01h8.32c.59.01,1.08-.46,1.1-1.05v-9.8c0-1.1.9-2,2-2s2,.9,2,2v6.99c0,.59.49,1.06,1.08,1.08h5.89c.84.04,1.66-.25,2.28-.82.74.59,1.68.88,2.62.82h14.84c1.12.07,2.23-.31,3.05-1.08.75.78,1.81,1.18,2.88,1.08h9.35c1.26.02,2.48-.43,3.42-1.27.71.85,1.78,1.32,2.88,1.27h3.61c1.66.12,3.1-1.12,3.22-2.78.01-.14.01-.28,0-.42v-13.82c.02-.27-.18-.51-.45-.54h-1.19c-.27-.01-.5.2-.52.47v13.87c0,.75-.3,1.05-1.08,1.08h-3.96c-.55.07-1.07-.23-1.29-.73.37-.73.56-1.53.56-2.34v-1.78c.19-2.88-2-5.36-4.88-5.55s-5.36,2-5.55,4.88c-.01.22-.01.45,0,.67v4.86h-4.43c-.45.06-.9-.06-1.27-.32-.1-.13-.15-.29-.13-.45v-3.61c-.02-3.13-2.55-5.65-5.68-5.68-2.13-.11-4.16.86-5.42,2.58l-.32.47c-.02.09-.02.19,0,.28h0c.02.13.09.26.19.34l.9.65c.09.06.19.1.3.11.17,0,.34-.09.43-.24l.32-.45c.85-1.16,2.23-1.8,3.66-1.7.94-.01,1.85.37,2.49,1.05.67.66,1.04,1.56,1.03,2.49v2.37c0,1.51-.6,2.15-2.15,2.15h-15.01c-.82,0-1.14-.19-1.27-.34-.13-.15-.15-.11-.15-.43v-14.16c.02-.27-.18-.51-.45-.54h-1.19c-.26-.01-.48.19-.5.45v13.87c0,.77-.32,1.1-1.08,1.1h-4.9v-5.93c-.03-2.27-1.88-4.11-4.15-4.13-1.11-.03-2.17.41-2.95,1.2-.8.76-1.24,1.82-1.2,2.92v8.6h-7.23c-1.71-.02-3.1-1.37-3.18-3.08,0-1.25.72-2.39,1.83-2.97l.52-.26c.16-.09.26-.25.26-.43,0-.06,0-.13,0-.19l-.54-1.08c-.13-.25-.43-.35-.69-.24l-.49.28c-1.85.92-3.02,2.81-3.03,4.88-.02,1.41.54,2.78,1.55,3.76.99,1.03,2.34,1.59,3.75,1.59ZM72.06,33.09v-4.86c0-1.7,1.38-3.08,3.08-3.08s3.08,1.38,3.08,3.08v1.78c0,1.7-1.38,3.08-3.08,3.08h-3.08Z"/>
      <path class="cls-2" d="M92.19,35.22h1.14c.26.01.48-.19.49-.45v-16.59c.02-.26-.17-.49-.43-.51h-1.21c-.26-.02-.49.17-.52.43v16.63c-.03.25.15.47.4.5.05,0,.09,0,.13,0Z"/>
      <path class="cls-2" d="M107.65,38.01h8.3c.59,0,1.08-.48,1.08-1.08v-9.78c0-1.1.9-2,2-2s2,.9,2,2v4.3c-.02.26.17.49.43.52h1.21c.26.02.49-.17.52-.43v-4.39c0-1.11-.45-2.18-1.25-2.95-1.63-1.61-4.24-1.61-5.87,0-.79.78-1.22,1.84-1.2,2.95v8.6h-7.2c-1.76-.01-3.18-1.44-3.18-3.2,0-1.25.7-2.39,1.81-2.97l.6-.13c.16-.09.26-.25.26-.43.02-.09.02-.19,0-.28l-.52-.99c-.09-.17-.26-.28-.45-.28-.08-.03-.17-.03-.26,0l-.47.26c-1.83.93-2.98,2.81-2.99,4.86,0,2.95,2.38,5.34,5.33,5.35l-.15.07Z"/>
      <path class="cls-2" d="M131.48,35.22h3.05c-.03,1.49-1.24,2.7-2.73,2.73h-2.47c-.26-.01-.48.19-.49.45v1.16c-.02.26.17.49.43.51h2.54c1.29.02,2.53-.5,3.42-1.44.94-.89,1.47-2.13,1.46-3.42h6.75c.79.01,1.56-.28,2.15-.82.76.58,1.71.87,2.67.82h10.24c1.12.07,2.21-.32,3.03-1.08.75.78,1.82,1.18,2.9,1.08h9.35c1.25.02,2.46-.44,3.4-1.27.72.84,1.78,1.31,2.88,1.27h3.61c1.66.12,3.1-1.12,3.22-2.78,0-.14,0-.28,0-.42v-13.8c.02-.27-.18-.51-.45-.54h-1.12c-.27-.01-.5.2-.52.47v13.87c0,.75-.28,1.05-1.08,1.08h-3.96c-.55.07-1.08-.23-1.31-.73.38-.72.57-1.53.56-2.34v-1.78c0-2.87-2.31-5.21-5.19-5.22-1.38,0-2.71.54-3.69,1.52-1.01.96-1.57,2.3-1.55,3.7v4.86h-4.45c-.82,0-1.14-.19-1.25-.32s-.13-.22-.13-.45v-3.61c.02-1.51-.59-2.96-1.68-4-1.05-1.09-2.51-1.69-4.02-1.68-2.13-.11-4.16.86-5.42,2.58l-.32.47c-.02.09-.02.19,0,.28h0c.03.14.11.26.22.34l.9.65c.09.06.19.1.3.11.17-.01.33-.1.43-.24l.3-.45c.86-1.14,2.23-1.77,3.66-1.7.94-.01,1.85.37,2.49,1.05.68.68,1.05,1.62,1.01,2.58v2.28c0,1.51-.6,2.15-2.15,2.15h-10.54c-.82,0-1.14-.19-1.25-.32-.11-.12-.16-.29-.15-.45v-8.36c.04-.26-.14-.5-.4-.54-.04-.01-.08-.01-.11,0h-1.12c-.27-.01-.5.2-.52.47v8.05c0,.77-.3,1.1-1.03,1.1h-6.69v-4.86c0-2.87-2.33-5.2-5.2-5.2-1.4-.02-2.74.53-3.72,1.53-.99.97-1.54,2.29-1.53,3.68v1.78c-.02,1.38.54,2.71,1.53,3.68,1,.98,2.34,1.53,3.74,1.52ZM128.38,30.01v-1.78c-.14-1.69,1.11-3.18,2.81-3.32,1.69-.14,3.18,1.11,3.32,2.81,0,.17,0,.34,0,.51v4.86h-3.03c-1.7-.02-3.08-1.38-3.1-3.08ZM170.74,33.09v-4.86c0-1.7,1.38-3.08,3.08-3.08s3.08,1.38,3.08,3.08v1.78c0,1.7-1.38,3.08-3.08,3.08h-3.08Z"/>
      <path class="cls-2" d="M146.46,21.07h1.27c.25-.03.43-.24.43-.49v-1.42c0-.26-.17-.49-.43-.54h-1.16c-.27-.01-.5.2-.52.47v1.49c-.02.24.16.46.41.49h0Z"/>
      <path class="cls-2" d="M143.3,21.07h1.18c.26.02.49-.17.51-.43v-1.49c.02-.27-.18-.51-.45-.54h-1.25c-.28-.01-.53.21-.54.49v1.46c0,.26.19.48.45.5.04.01.07.01.1.01Z"/>
      <path class="cls-2" d="M190.87,35.22h1.14c.25.01.46-.18.47-.43v-16.61c.04-.25-.13-.48-.38-.51-.03,0-.06-.01-.09,0h-1.14c-.26-.02-.49.17-.52.43v16.63c-.03.25.15.47.4.5.04,0,.08,0,.12,0Z"/>
      <path class="cls-2" d="M206.87,21.07h1.08c.25.08.52-.05.6-.29.02-.06.03-.13.02-.2v-1.42c.02-.28-.2-.53-.48-.55-.05,0-.1,0-.14.01h-1.08c-.28-.01-.53.21-.54.49v1.46c0,.26.19.48.45.5h.09Z"/>
      <path class="cls-2" d="M203.64,21.07h1.18c.26.05.5-.12.55-.38,0-.04,0-.08,0-.12v-1.42c.02-.27-.18-.51-.45-.54h-1.3c-.27-.01-.5.2-.52.47v1.49c0,.26.19.48.45.5h.08Z"/>
      <path class="cls-2" d="M217.53,22.1h4.04c.23.01.42-.16.43-.39v-.56c0-.21-.15-.4-.36-.41h-2.22v-1.2c0-.35.3-.62.65-.62.25-.02.49.14.56.39l.13.24c.05.15.19.25.34.26.06.02.13.02.19,0l.45-.19c.16-.06.27-.21.28-.39,0-.06,0-.13,0-.19v-.23c-.28-.75-1.01-1.24-1.81-1.2-1.1,0-1.99.88-2,1.98v1.2h-.45c-.21-.02-.4.13-.43.34v.59c0,.15.07.3.2.38Z"/>
      <path class="cls-2" d="M226.07,39.52c.26.03.49-.16.52-.42v-1.49c.02-.27-.18-.51-.45-.54h-1.25c-.27-.01-.5.2-.52.47v1.45c-.04.26.14.5.4.54.04.01.08.01.11,0h1.19Z"/>
      <path class="cls-2" d="M228.07,37.06h1.16c.3,0,.54.24.54.54v1.38c0,.3-.24.54-.54.54h-1.16c-.3,0-.54-.24-.54-.54v-1.38c0-.29.24-.54.54-.54Z"/>
      <path class="cls-2" d="M246.84,33.65c1.03-1,1.6-2.39,1.57-3.83v-2.26c.03-1.44-.54-2.82-1.57-3.83-1.01-1.03-2.39-1.6-3.83-1.59-2.13-.03-4.08,1.2-4.97,3.14-1.88.42-3.22,2.09-3.23,4.02v2.02c0,.65.17,1.28.47,1.85h-4.71c-.44.06-.89-.06-1.25-.32-.1-.13-.15-.29-.13-.45v-8.39c.02-.27-.18-.51-.45-.54h-1.19c-.27-.02-.51.18-.54.45v8.07c0,.77-.3,1.1-1.03,1.1h-4.06c-.82,0-1.14-.19-1.25-.32s-.13-.22-.13-.45v-8.3c.02-.27-.18-.51-.45-.54h-1.19c-.27-.02-.51.18-.54.45v8.07c0,.77-.3,1.1-1.03,1.1h-5.96v-4.86c.03-1.39-.52-2.73-1.53-3.7-2.03-2.03-5.33-2.03-7.36.01-.98.98-1.53,2.31-1.52,3.69v1.78c0,2.87,2.33,5.2,5.2,5.2h11.12c.84.04,1.67-.25,2.3-.82.74.57,1.67.86,2.6.82h3.78c.84.04,1.67-.25,2.3-.82.75.59,1.69.88,2.64.82h12.06c1.49.02,2.88-.55,3.88-1.57ZM240.52,25.47c.6-.77,1.52-1.2,2.49-1.18,1.79.03,3.23,1.48,3.27,3.27v2.26c0,1.77-1.41,3.22-3.18,3.27v-3.78c.01-1.69-1.02-3.21-2.58-3.84ZM240.95,29.3v3.78h-2.15c-1.01-.01-1.82-.84-1.81-1.85h0v-1.94c0-1.08.87-1.96,1.96-1.96s1.96.87,1.96,1.96h.04ZM209.28,28.23v4.86h-3.07c-1.68-.03-3.04-1.39-3.08-3.08v-1.78c0-1.7,1.38-3.08,3.08-3.08s3.07,1.38,3.07,3.08Z"/>
      <path class="cls-2" d="M19.85,47.79v1.4c-.03.26.16.49.42.52h1.27c.27.02.51-.18.54-.45v-1.47c0-.28-.21-.53-.49-.54h-1.2c-.28-.01-.53.21-.54.49,0,.03,0,.04,0,.05Z"/>
      <path class="cls-2" d="M18.39,49.71c.26.02.49-.17.52-.43v-1.49c.04-.26-.14-.5-.4-.54-.04-.01-.08-.01-.11,0h-1.19c-.26-.03-.49.16-.52.42v1.51c-.02.26.17.49.43.52h1.27Z"/>
      <path class="cls-2" d="M32.9,65.71h1.16c.3,0,.54.24.54.54v1.38c0,.3-.24.54-.54.54h-1.16c-.3,0-.54-.24-.54-.54v-1.38c0-.3.25-.54.54-.54Z"/>
      <path class="cls-2" d="M29.72,65.73c-.26-.03-.49.16-.52.42v1.49c-.04.26.14.5.4.54.04.01.08.01.11,0h1.18c.26.03.49-.16.52-.42v-1.49c.04-.26-.14-.5-.4-.54-.04-.01-.08-.01-.11,0h-1.18Z"/>
      <path class="cls-2" d="M35.78,63.86h9.1c1.4.02,2.74-.53,3.72-1.53.99-.97,1.54-2.29,1.53-3.68v-1.78c-.01-2.89-2.35-5.22-5.24-5.21-1.38,0-2.71.56-3.68,1.53-.99.96-1.55,2.29-1.53,3.68v4.86h-4.3c-.41.04-.82-.07-1.16-.3-.11-.12-.17-.29-.15-.45v-8.34c.02-.27-.18-.51-.45-.54h-1.17c-.28-.01-.53.21-.54.49v8.02c0,.8-.3,1.12-1.03,1.12h-5.96v-4.86c.02-1.39-.53-2.73-1.53-3.7-.96-1.01-2.29-1.57-3.68-1.55-1.39-.02-2.72.54-3.68,1.55-1.04.95-1.63,2.29-1.63,3.7v1.78c-.02,1.39.54,2.72,1.55,3.68.97.99,2.29,1.54,3.68,1.53h11.2c.84.04,1.67-.26,2.3-.82.75.58,1.68.87,2.62.82h.03ZM41.85,61.71v-4.84c0-1.69,1.37-3.05,3.05-3.05s3.05,1.37,3.05,3.05v1.78c-.02,1.69-1.39,3.05-3.08,3.08l-3.02-.02ZM22.8,56.87v4.86h-3.08c-1.72.02-3.14-1.35-3.16-3.07h0v-1.78c0-1.7,1.38-3.07,3.08-3.07s3.07,1.38,3.07,3.07h.09Z"/>
      <path class="cls-2" d="M98.98,63.86h7.55c1.67.11,3.12-1.15,3.23-2.83,0-.13,0-.27,0-.4v-13.78c0-.26-.21-.47-.47-.48h-1.16c-.26-.03-.49.16-.52.42v13.89c0,.77-.28,1.08-1.08,1.1h-7.85c-.45.04-.9-.09-1.27-.37-.1-.13-.14-.29-.13-.45v-3.63c-.01-3.13-2.54-5.67-5.68-5.7-2.12-.08-4.15.88-5.42,2.58l-.32.49c-.02.09-.02.19,0,.28h0c.02.13.09.24.19.32l.9.65c.08.07.19.11.3.11.17.01.33-.07.43-.22l.32-.45c.84-1.17,2.22-1.81,3.66-1.7,1.95.02,3.51,1.6,3.53,3.55v2.28c0,1.48-.6,2.15-2.15,2.15h-10.56c-.46.05-.92-.07-1.29-.34,0,0-.13-.11-.13-.43v-2.52c.05-1.49-.51-2.93-1.55-4-1.03-1.05-2.46-1.62-3.94-1.57h-4.17c.01-1.94,1.59-3.49,3.53-3.48.11,0,.23.01.34.02h1.98c.25.03.47-.15.5-.4v-1.24c.02-.26-.17-.49-.43-.51h-2.05c-3.81,0-6.09,2.49-6.09,6.67,0,.59.48,1.08,1.08,1.08h5.31c1.77-.08,3.26,1.3,3.34,3.06.01.13,0,.25-.01.38v2.15c0,.8-.3,1.12-1.1,1.12h-14.17v-4.8c.01-2.87-2.31-5.21-5.19-5.22-1.4,0-2.73.55-3.72,1.54-1.03.95-1.61,2.28-1.61,3.68v1.78c-.02,1.39.54,2.72,1.55,3.68.97.99,2.31,1.55,3.7,1.53h3.05c-.05,1.49-1.25,2.68-2.73,2.71h-2.39c-.26-.02-.49.17-.52.43v1.21c-.02.26.17.49.43.52h2.54c2.67-.05,4.82-2.19,4.88-4.86h14.21c.85.04,1.68-.26,2.3-.84.74.6,1.67.9,2.62.84h10.28c1.12.07,2.23-.31,3.05-1.08.77.79,1.83,1.18,2.9,1.08ZM61.48,56.87v4.86h-3.05c-1.72.02-3.14-1.35-3.16-3.07h0v-1.78c-.14-1.69,1.11-3.18,2.81-3.32s3.18,1.12,3.32,2.81c.01.17.01.34,0,.51h.08Z"/>
      <path class="cls-2" d="M113.71,46.38c-.26-.02-.49.17-.52.43v16.6c-.02.26.17.49.43.52h1.23c.25.01.46-.18.48-.42v-16.67c.04-.25-.13-.48-.38-.51-.03,0-.06-.01-.09,0l-1.15.05Z"/>
      <path class="cls-2" d="M131.6,49.45c-.26-.02-.49.17-.51.43v1.36c-.02.26.17.49.43.52h1.27c.26.02.49-.17.52-.43v-1.38c0-.26-.19-.48-.45-.5h-1.26Z"/>
      <path class="cls-2" d="M137.86,63.86c1.67.11,3.12-1.15,3.23-2.83,0-.13,0-.27,0-.4v-8c.02-.27-.18-.51-.45-.54h-1.19c-.27-.01-.5.2-.52.47v8.07c0,.77-.3,1.08-1.1,1.1h-8.3c-1.79-.02-3.23-1.49-3.21-3.28,0-1.23.72-2.35,1.84-2.89l.49-.26c.17-.1.28-.28.28-.47.02-.07.02-.14,0-.22l-.56-.99c-.06-.19-.25-.31-.45-.28-.09-.02-.17-.02-.26,0l-.49.24c-.89.47-1.63,1.17-2.15,2.02-.53.86-.82,1.85-.82,2.86-.02,1.43.55,2.81,1.57,3.81.99,1.01,2.35,1.57,3.76,1.55l8.33.04Z"/>
      <path class="cls-2" d="M134.77,49.45h1.18c.29,0,.52.23.52.52v1.27c0,.29-.23.52-.52.52h-1.18c-.29,0-.52-.23-.52-.52v-1.27c0-.29.23-.52.52-.52Z"/>
      <path class="cls-2" d="M152.63,63.86h3.89c1.67.11,3.12-1.15,3.23-2.83,0-.13,0-.27,0-.4v-8c.02-.27-.18-.51-.45-.54h-1.19c-.27-.01-.5.2-.52.47v8.07c0,.77-.28,1.08-1.05,1.1h-8.82c-.73,0-1.03-.32-1.03-1.1v-13.78c.04-.26-.14-.5-.4-.54-.04-.01-.08-.01-.11,0h-1.12c-.26-.01-.48.19-.5.45v13.87c-.12,1.66,1.13,3.1,2.78,3.22.13.01.25.01.38,0h4.91Z"/>
      <path class="cls-2" d="M154.44,65.73c-.26-.03-.49.16-.52.42v1.49c-.04.26.14.5.4.54.04.01.08.01.11,0h1.16c.28.01.53-.21.54-.49v-1.42c0-.28-.21-.53-.49-.54h-1.2Z"/>
      <path class="cls-2" d="M157.6,65.73c-.26-.03-.49.16-.52.42v1.49c-.04.26.14.5.4.54.04.01.08.01.11,0h1.18c.26.03.49-.16.52-.42v-1.49c.04-.26-.14-.5-.4-.54-.04-.01-.08-.01-.11,0h-1.18Z"/>
      <path class="cls-2" d="M175.94,47.26c-.26-.03-.49.16-.52.42v1.51c-.02.26.17.49.43.52h1.25c.26.04.5-.14.54-.4,0-.04,0-.08,0-.11v-1.4c0-.28-.21-.53-.49-.54h-.04s-1.17,0-1.17,0Z"/>
      <path class="cls-2" d="M172.78,47.26c-.28-.01-.53.21-.54.49v1.44c0,.27.2.5.47.52h1.27c.25.03.47-.15.5-.4v-1.52c.04-.26-.14-.5-.4-.53-.03,0-.06-.01-.09,0,0,0-1.21,0-1.21,0Z"/>
      <path class="cls-2" d="M192.89,47.26h-1.16c-.26-.03-.49.16-.52.42v1.51c-.02.26.17.49.43.52h1.25c.26.04.5-.14.54-.4,0-.04,0-.08,0-.11v-1.4c0-.28-.21-.53-.49-.54-.02,0-.04,0-.05,0Z"/>
      <path class="cls-2" d="M194.31,47.79v1.4c-.02.26.17.49.43.52h1.27c.26.04.5-.14.54-.4,0-.04,0-.08,0-.11v-1.4c0-.28-.21-.53-.49-.54h-1.22c-.26-.03-.49.16-.52.42-.02.04-.02.08,0,.11Z"/>
      <path class="cls-2" d="M193.26,44.31h1.16c.29,0,.52.23.52.52v1.4c0,.29-.23.52-.52.52h-1.16c-.29,0-.52-.23-.52-.52v-1.4c0-.29.23-.52.52-.52Z"/>
      <path class="cls-2" d="M224.61,63.86h1.98c1.66.11,3.09-1.14,3.21-2.8.01-.14.01-.28,0-.42v-13.78c.04-.26-.14-.5-.4-.54-.04-.01-.08-.01-.11,0h-1.1c-.26-.03-.49.16-.52.42v13.89c0,.77-.3,1.08-1.08,1.1h-3.96c-.55.07-1.07-.23-1.29-.73.36-.73.56-1.53.56-2.34v-1.78c.02-2.87-2.29-5.22-5.17-5.24-1.4-.01-2.75.55-3.74,1.54-.99.97-1.55,2.31-1.53,3.7v4.86h-9.05c-.32,0-1.38,0-1.38-1.12v-7.98c.02-.27-.18-.51-.45-.54h-1.25c-.27-.01-.5.2-.52.47v8.05c0,.77-.32,1.12-1.08,1.12h-1.42c-.45.04-.9-.07-1.29-.3-.1-.13-.14-.29-.13-.45v-7.72c-.02-.26-.25-.45-.51-.43h-1.12c-.25-.03-.47.15-.5.4v7.47c0,.77-.32,1.12-1.08,1.12h-1.51c-.45.05-.9-.07-1.27-.32-.1-.13-.14-.29-.13-.45v-8.41c0-.28-.21-.53-.49-.54h-1.16c-.27,0-.5.22-.5.49v8.02c0,.8-.3,1.12-1.03,1.12h-8.17c-.45.05-.9-.07-1.27-.32-.11-.12-.16-.29-.15-.45v-8.32c.02-.27-.18-.51-.45-.54h-1.19c-.27,0-.5.22-.5.49v8.02c0,.77-.32,1.12-1.03,1.12h-6.45v-9.07c0-.28-.21-.53-.49-.54h-.99c-.27-.01-.5.2-.52.47v11.98c0,1.46-.65,2.15-2.15,2.15h-1.18c-.26-.02-.49.17-.52.43v1.21c-.02.26.17.49.43.52h1.27c2.18.2,4.1-1.4,4.3-3.58.02-.24.02-.48,0-.72v-.71h6.32c.85.04,1.67-.25,2.3-.82.75.58,1.69.87,2.64.82h7.81c.84.04,1.67-.26,2.28-.84.75.6,1.7.9,2.67.84h1.18c.85.04,1.68-.26,2.3-.84.74.59,1.68.89,2.62.84h1.18c.89.05,1.77-.28,2.41-.9.7.61,1.61.93,2.54.9h13.93c1.26.02,2.48-.43,3.42-1.27.71.85,1.78,1.32,2.88,1.27h1.63-.03v-.02ZM219.75,56.87v1.78c0,1.69-1.38,3.06-3.08,3.08h-3.08v-4.86c0-1.7,1.38-3.08,3.08-3.08s3.08,1.38,3.08,3.08Z"/>
      <path class="cls-2" d="M233.75,46.38c-.26-.02-.49.17-.52.43v16.6c-.02.26.17.49.43.52h1.23c.26.01.48-.19.5-.45v-16.65c.02-.26-.17-.49-.43-.51h-.07l-1.14.06Z"/>
      <path class="cls-2" d="M243.23,51.64c-2.85.06-5.15,2.37-5.18,5.23v1.78c.02,2.87,2.35,5.19,5.23,5.2h3.05c-.05,1.49-1.25,2.68-2.73,2.71h-2.47c-.25-.03-.47.15-.5.4v1.24c-.04.25.13.48.38.51.04.01.08.01.12,0h2.47c1.3.01,2.54-.51,3.44-1.44.94-.89,1.46-2.13,1.44-3.42v-6.99c-.01-2.87-2.33-5.2-5.2-5.23h-.05ZM246.28,56.87v4.86h-3.05c-1.67-.05-3.01-1.4-3.03-3.08v-1.78c-.14-1.69,1.11-3.18,2.81-3.32,1.69-.14,3.18,1.11,3.32,2.81.01.17.01.34,0,.51h-.05Z"/>
      <polygon class="cls-2" points="14.43 76.31 14.43 90.48 23.4 90.48 23.4 88.54 16.58 88.54 16.58 76.31 14.43 76.31"/>
      <path class="cls-2" d="M30.32,90.24c.49-.19.93-.48,1.29-.86.47-.48.8-1.07.97-1.72.16-.74.24-1.5.24-2.26,0-.72-.08-1.44-.24-2.15-.29-1.14-1.08-2.09-2.15-2.58-.56-.24-1.17-.36-1.78-.34-.61-.02-1.22.1-1.78.34-.46.21-.88.5-1.23.86-.47.48-.79,1.07-.95,1.72-.17.7-.25,1.43-.24,2.15-.02.76.06,1.52.24,2.26.16.65.48,1.24.95,1.72.35.36.77.64,1.23.84.56.25,1.17.36,1.78.34.57.01,1.14-.1,1.67-.32ZM26.47,87c-.07-.52-.11-1.04-.11-1.57s.04-1.05.11-1.57c.06-.45.26-.87.58-1.2.83-.79,2.14-.79,2.97,0,.32.33.52.75.58,1.2.09.52.13,1.04.13,1.57s-.04,1.05-.13,1.57c-.07.45-.27.86-.58,1.18-.38.41-.93.63-1.48.6-.56,0-1.09-.21-1.48-.6-.32-.33-.52-.74-.59-1.18Z"/>
      <path class="cls-2" d="M40.52,90.24c.56-.25,1.07-.62,1.48-1.08l-1.4-1.33c-.26.29-.56.54-.9.73-.31.15-.66.23-1.01.22-.74.04-1.44-.3-1.87-.9-.24-.28-.4-.62-.47-.99-.09-.48-.14-.97-.13-1.46,0-.49.03-.98.13-1.46.07-.37.23-.71.47-.99.43-.6,1.13-.94,1.87-.9.35,0,.69.07,1.01.22.34.2.64.46.9.75l1.4-1.35c-.41-.46-.92-.84-1.48-1.1-.58-.23-1.2-.34-1.83-.32-.57,0-1.14.09-1.68.28-.53.18-1.02.49-1.42.88-.45.45-.8.99-1.01,1.59-.29.77-.43,1.59-.41,2.41-.03.81.11,1.63.41,2.39.21.61.56,1.16,1.01,1.61.4.4.88.71,1.42.88.54.19,1.11.28,1.68.28.62.01,1.25-.11,1.83-.36Z"/>
      <path class="cls-2" d="M50.82,90.48v-6.75c0-2.3-1.4-3.46-4.17-3.46-.73-.03-1.46.08-2.15.3-.61.25-1.14.65-1.55,1.16l1.33,1.25c.23-.32.54-.58.9-.75.42-.16.86-.24,1.31-.22.6-.05,1.2.11,1.7.45.36.38.54.9.49,1.42v.73h-2.56c-.95-.08-1.89.21-2.62.82-.6.55-.91,1.34-.86,2.15-.03.79.26,1.57.8,2.15.31.3.69.54,1.1.69.51.16,1.05.23,1.59.22.53.02,1.05-.06,1.55-.24.43-.18.82-.46,1.14-.8v.92l2-.04ZM48.82,86.82c.05.54-.1,1.08-.43,1.51-.23.25-.53.42-.86.47-.34.07-.69.11-1.03.11-.5.04-.99-.1-1.4-.39-.31-.26-.48-.65-.45-1.05-.03-.41.14-.81.45-1.08.4-.28.87-.41,1.35-.39h2.37v.82Z"/>
      <path class="cls-2" d="M53.12,76.31v11.38c0,.37.06.73.17,1.08.1.33.27.63.49.88.24.26.53.47.86.6.4.16.82.24,1.25.24h1.25v-1.74h-.88c-.32.05-.64-.06-.86-.3-.18-.25-.26-.55-.24-.86v-11.28h-2.04Z"/>
      <path class="cls-2" d="M64.56,80.39c.03-.29.12-.56.26-.82.11-.22.25-.42.41-.6.26-.27.58-.48.92-.62.37-.16.78-.24,1.18-.24.7-.03,1.38.22,1.89.69.49.47.82,1.08.97,1.74h2.15c-.17-1.26-.79-2.41-1.74-3.25-.94-.75-2.11-1.15-3.31-1.12-.74-.02-1.47.11-2.15.39-.62.27-1.18.66-1.66,1.14-.33.31-.6.69-.8,1.1-.19.39-.33.81-.41,1.25-.1.5-.15,1-.15,1.51v3.68c0,.51.05,1.01.15,1.51.08.43.21.85.41,1.25.2.41.47.78.8,1.1.47.48,1.03.87,1.66,1.12.68.28,1.41.41,2.15.39.61,0,1.21-.09,1.78-.28.56-.17,1.08-.45,1.53-.84.45-.38.82-.84,1.1-1.35.31-.59.53-1.22.65-1.87h-2.02c-.14.67-.49,1.28-.99,1.74-.52.47-1.2.71-1.89.67-.4,0-.81-.07-1.18-.22-.35-.14-.66-.36-.92-.62-.17-.19-.31-.4-.41-.62-.14-.25-.22-.52-.26-.8-.07-.4-.11-.8-.13-1.2v-3.59c-.04-.43-.03-.84,0-1.24Z"/>
      <path class="cls-2" d="M80.94,81.47c-.35-.37-.77-.67-1.25-.86-.55-.25-1.16-.36-1.76-.34-.61-.02-1.22.1-1.78.34-.46.21-.88.5-1.23.86-.47.48-.79,1.07-.95,1.72-.18.7-.26,1.43-.26,2.15-.01.76.07,1.52.26,2.26.16.65.48,1.24.95,1.72.35.36.77.64,1.23.84.56.25,1.17.36,1.78.34.61.02,1.21-.1,1.76-.34.47-.19.9-.47,1.25-.84.47-.48.8-1.07.97-1.72.16-.74.24-1.5.24-2.26,0-.72-.08-1.44-.24-2.15-.16-.65-.5-1.24-.97-1.72ZM80,87c-.07.45-.27.86-.58,1.18-.39.4-.93.62-1.48.6-.56,0-1.09-.21-1.48-.6-.31-.32-.52-.74-.58-1.18-.03-.52-.03-1.05,0-1.57-.04-.52-.04-1.05,0-1.57.06-.45.26-.87.58-1.2.83-.79,2.14-.79,2.97,0,.32.33.52.75.58,1.2.08.52.12,1.04.11,1.57,0,.52-.04,1.05-.12,1.57Z"/>
      <path class="cls-2" d="M91.24,81.19c-.31-.3-.68-.53-1.08-.69-.45-.16-.92-.24-1.4-.24-.5,0-1,.09-1.46.28-.47.19-.89.48-1.23.86v-1.01h-2v10.09h2.15v-6.15c-.06-.63.16-1.25.6-1.7.41-.37.94-.57,1.48-.56.53,0,1.04.19,1.44.54.44.46.65,1.09.58,1.72v6.15h2.15v-6.45c0-.53-.08-1.06-.24-1.57-.19-.51-.54-.95-.99-1.27Z"/>
      <path class="cls-2" d="M97.61,90.48h1.2v-1.74h-.84c-.31.03-.62-.08-.84-.3-.19-.25-.29-.55-.28-.86v-5.46h1.96v-1.55h-1.96v-3.05h-2.02v3.05h-1.16v1.55h1.16v5.55c0,.36.06.71.17,1.05.1.32.27.62.49.88.24.27.54.49.86.65.4.16.83.24,1.26.23Z"/>
      <path class="cls-2" d="M108.55,85.08c0-.67-.08-1.34-.28-1.98-.17-.56-.46-1.08-.84-1.53-.37-.42-.82-.76-1.33-.99-.58-.25-1.2-.37-1.83-.37-1.19-.04-2.34.46-3.12,1.35-.84,1.08-1.25,2.44-1.16,3.81,0,.84.15,1.68.43,2.47.22.59.56,1.13.99,1.59.41.4.9.7,1.44.88.57.18,1.17.26,1.76.26.39.04.79.04,1.18,0,.34-.06.67-.16.99-.3.3-.13.58-.3.84-.49.27-.21.53-.44.77-.69l-1.29-1.2c-.31.31-.66.58-1.05.77-.44.19-.92.28-1.4.26-.79.07-1.57-.24-2.09-.84-.47-.61-.7-1.38-.65-2.15h6.45l.19-.85ZM102.1,84.57c-.02-.25-.02-.5,0-.75.1-.62.45-1.18.97-1.55.36-.24.79-.36,1.23-.34.44-.02.88.1,1.25.34.34.22.6.55.75.92.1.2.17.41.22.62v.75h-4.42Z"/>
      <path class="cls-2" d="M115.99,82.61c.44.46.65,1.09.58,1.72v6.15h2.02v-6.45c0-.53-.06-1.06-.22-1.57-.16-.48-.43-.92-.8-1.27-.31-.3-.68-.53-1.08-.69-.45-.16-.92-.24-1.4-.24-.5,0-1,.09-1.46.28-.47.19-.89.48-1.23.86v-1.01h-2v10.09h2.15v-6.15c-.07-1.11.77-2.08,1.88-2.15.09,0,.18,0,.27,0,.48,0,.93.15,1.29.43Z"/>
      <path class="cls-2" d="M123.2,77.51h-2.02v3.05h-1.16v1.55h1.16v5.55c0,.36.05.72.17,1.05.1.32.27.62.49.88.24.27.54.49.86.65.39.16.81.24,1.23.24h1.23v-1.74h-.84c-.31.03-.62-.08-.84-.3-.2-.24-.3-.55-.28-.86v-5.46h1.96v-1.55h-1.96v-3.06Z"/>
      <path class="cls-2" d="M140.31,90.48h2.6l-2.37-2.84c.48-.56.83-1.21,1.03-1.91.24-.79.36-1.61.37-2.43h-1.94c0,.55-.08,1.1-.19,1.63-.11.43-.3.84-.56,1.2l-2.99-3.57.41-.28.43-.3.19-.13c.43-.28.8-.64,1.1-1.05.28-.43.42-.93.41-1.44,0-.43-.07-.87-.24-1.27-.15-.38-.39-.72-.69-.99-.3-.3-.66-.53-1.05-.67-.44-.18-.9-.26-1.38-.26-.49,0-.98.08-1.44.26-.4.14-.76.36-1.08.65-.3.27-.54.61-.69.99-.17.4-.26.83-.26,1.27,0,.31.04.62.13.92.1.27.22.54.37.8.14.25.3.49.47.71l.49.6-1.01.73c-.33.26-.63.56-.9.88-.27.32-.49.68-.65,1.08-.16.42-.24.86-.24,1.31-.04,1.12.39,2.22,1.18,3.01.94.81,2.16,1.22,3.4,1.14.48,0,.95-.04,1.42-.15.38-.09.75-.23,1.1-.41.29-.13.56-.3.82-.49l.58-.45,1.18,1.46ZM134.42,78.35c.28-.26.65-.4,1.03-.39.39-.02.76.13,1.03.41.26.26.4.62.39.99,0,.32-.11.63-.32.86-.21.24-.44.45-.71.62h-.13l-.28.19-.28.17c-.3-.34-.57-.7-.82-1.08-.17-.26-.27-.55-.28-.86.02-.32.15-.65.37-.91ZM136.57,88.52c-.44.15-.89.22-1.35.22-.68.03-1.34-.21-1.85-.67-.5-.44-.77-1.08-.73-1.74,0-.29.05-.58.15-.86.1-.25.25-.48.43-.69s.38-.41.6-.58l.73-.56,3.38,4c-.39.37-.84.67-1.33.88h-.03Z"/>
      <path class="cls-2" d="M155.54,90.22c.69-.28,1.3-.7,1.81-1.25.45-.48.78-1.05.97-1.68.21-.72.31-1.47.3-2.21v-2.15h-5.18v1.83h3.03v.8c0,.41-.06.83-.17,1.23-.1.37-.28.71-.54.99-.28.32-.64.57-1.03.73-.41.18-.85.26-1.29.26-.4,0-.79-.07-1.16-.22-.35-.14-.66-.36-.92-.62-.17-.18-.32-.39-.43-.62-.12-.25-.21-.52-.26-.8-.07-.4-.11-.8-.13-1.2v-3.57c0-.4.06-.81.13-1.2.05-.28.14-.56.26-.82.12-.22.26-.42.43-.6.27-.27.58-.49.92-.65,1.04-.43,2.22-.27,3.12.41.52.49.88,1.13,1.03,1.83h2.15c-.11-.6-.3-1.17-.56-1.72-.26-.52-.62-.99-1.05-1.38-.44-.42-.96-.74-1.53-.95-.64-.25-1.33-.37-2.02-.37-.74-.03-1.47.11-2.15.39-.62.27-1.19.66-1.68,1.14-.32.32-.59.69-.8,1.1-.18.4-.32.82-.41,1.25-.09.5-.14,1-.15,1.51v3.68c0,.5.06,1.01.15,1.51.09.43.22.85.41,1.25.21.41.47.78.8,1.1.48.48,1.05.86,1.68,1.12.68.28,1.41.41,2.15.39.72-.06,1.44-.22,2.12-.51Z"/>
      <path class="cls-2" d="M168.44,83.19c-.29-1.14-1.08-2.09-2.15-2.58-.56-.24-1.17-.36-1.78-.34-.61-.02-1.22.1-1.78.34-.46.21-.88.5-1.23.86-.47.48-.79,1.07-.95,1.72-.17.7-.25,1.43-.24,2.15-.02.76.06,1.52.24,2.26.16.65.48,1.24.95,1.72.35.36.77.64,1.23.84.56.25,1.17.36,1.78.34.61,0,1.22-.1,1.78-.34.46-.19.88-.48,1.23-.84.47-.48.8-1.07.97-1.72.16-.74.24-1.5.24-2.26-.02-.72-.12-1.45-.29-2.15ZM166.53,87c-.07.45-.27.86-.58,1.18-.39.4-.93.62-1.48.6-.56,0-1.09-.21-1.48-.6-.31-.32-.52-.74-.58-1.18-.03-.52-.03-1.05,0-1.57-.04-.52-.04-1.05,0-1.57.06-.45.26-.87.58-1.2.83-.79,2.14-.79,2.97,0,.32.33.52.75.58,1.2.08.52.12,1.04.11,1.57-.01.52-.04,1.05-.12,1.57Z"/>
      <polygon class="cls-2" points="173.51 87.49 171.13 80.39 168.98 80.39 172.68 90.48 174.33 90.48 178.03 80.39 175.88 80.39 173.51 87.49"/>
      <path class="cls-2" d="M185.73,81.62c-.37-.42-.82-.76-1.33-.99-.58-.25-1.2-.37-1.83-.37-1.19-.04-2.34.46-3.12,1.35-.84,1.08-1.25,2.44-1.16,3.81-.02.82.09,1.64.34,2.43.22.59.56,1.13.99,1.59.41.4.9.7,1.44.88.57.18,1.17.26,1.76.26.4.04.8.04,1.2,0,.33-.06.66-.17.97-.3.3-.13.58-.3.84-.49.27-.21.53-.44.77-.69l-1.29-1.2c-.31.31-.66.58-1.05.77-.44.19-.92.28-1.4.26-.71.05-1.41-.23-1.89-.75-.49-.6-.73-1.37-.67-2.15h6.45v-.95c0-.67-.08-1.34-.28-1.98-.14-.54-.4-1.04-.74-1.48ZM180.31,84.61v-.75c.1-.62.45-1.18.97-1.55.36-.24.79-.36,1.23-.34.44-.02.88.1,1.25.34.34.22.6.55.75.92.1.2.17.41.22.62v.75h-4.42Z"/>
      <path class="cls-2" d="M188.72,80.39v10.09h2.15v-6.13c-.03-.61.17-1.22.58-1.68.37-.39.88-.6,1.42-.6.29,0,.58.05.84.17.25.13.48.3.67.52l1.55-1.53c-.3-.33-.68-.59-1.1-.75-.42-.15-.86-.23-1.31-.22-.54,0-1.08.11-1.57.34-.45.18-.83.49-1.12.88v-1.1h-2.11Z"/>
      <path class="cls-2" d="M204.85,90.48v-6.45c0-.53-.08-1.06-.24-1.57-.15-.49-.42-.92-.8-1.27-.31-.3-.68-.53-1.08-.69-.45-.16-.92-.24-1.4-.24-.5,0-1,.09-1.46.28-.47.19-.89.48-1.23.86v-1.01h-2v10.09h2.15v-6.15c-.06-.63.16-1.25.6-1.7.41-.37.94-.57,1.48-.56.53,0,1.04.19,1.44.54.44.46.65,1.09.58,1.72v6.15h1.96Z"/>
      <path class="cls-2" d="M216.54,82.2c.26-.09.53-.13.8-.13.53,0,1.04.19,1.44.54.45.46.67,1.09.6,1.72v6.15h2.02v-6.45c0-.53-.08-1.07-.26-1.57-.17-.48-.45-.92-.82-1.27-.32-.31-.7-.54-1.12-.69-.46-.16-.94-.24-1.42-.24-1.23-.03-2.41.52-3.18,1.48-.61-.98-1.71-1.55-2.86-1.48-.5,0-1,.11-1.46.3-.47.18-.89.47-1.23.84v-1.01h-1.98v10.09h2.02v-6.15c-.06-1.13.8-2.09,1.93-2.15h.22c.53,0,1.04.19,1.44.54.45.46.67,1.09.6,1.72v6.15h2.02v-6.37c0-.32.06-.64.17-.95.1-.25.25-.48.45-.67.19-.17.4-.31.62-.4Z"/>
      <path class="cls-2" d="M230.76,81.62c-.37-.43-.83-.77-1.35-.99-.57-.25-1.19-.37-1.81-.37-1.19-.05-2.34.45-3.12,1.35-.86,1.08-1.28,2.43-1.18,3.81-.02.82.11,1.65.37,2.43.2.59.53,1.14.97,1.59.41.4.9.7,1.44.88.58.18,1.18.26,1.78.26.39.04.79.04,1.18,0,.33-.06.66-.17.97-.3.3-.13.58-.3.84-.49s.52-.43.8-.69l-1.29-1.2c-.31.32-.68.58-1.08.77-.43.19-.9.28-1.38.26-.72.05-1.42-.23-1.91-.75-.48-.61-.72-1.38-.67-2.15h6.45v-.95c0-.67-.1-1.34-.3-1.98-.15-.53-.39-1.03-.71-1.48ZM225.32,84.61v-.75c.04-.22.1-.42.19-.62.36-.79,1.15-1.29,2.02-1.27.43,0,.86.11,1.23.34.5.38.84.93.97,1.55.03.25.03.5,0,.75h-4.41Z"/>
      <path class="cls-2" d="M241.92,90.48v-6.45c.01-.53-.06-1.06-.22-1.57-.16-.48-.43-.92-.8-1.27-.31-.3-.69-.54-1.1-.69-.45-.16-.92-.24-1.4-.24s-1,.09-1.46.28c-.47.19-.89.48-1.23.86v-1.01h-1.98v10.09h2.02v-6.15c-.06-1.13.8-2.09,1.93-2.15h.22c.53,0,1.04.19,1.44.54.45.46.67,1.09.6,1.72v6.15l1.98-.11Z"/>
      <path class="cls-2" d="M248.45,82.11v-1.55h-1.94v-3.05h-2.15v3.05h-1.14v1.55h1.27v5.55c0,.36.06.71.17,1.05.1.33.28.63.52.88.24.28.53.5.86.65.39.16.81.24,1.23.24h1.2v-1.74h-.84c-.31.02-.61-.09-.84-.3-.18-.25-.27-.55-.26-.86v-5.46h1.92Z"/>
      <path class="cls-2" d="M23.01,97.98c-.41-.38-.89-.68-1.42-.88-.59-.22-1.22-.33-1.85-.32h-5.33v14.11h2.15v-5.5h3.2c.63,0,1.26-.1,1.85-.32.52-.2,1-.51,1.4-.9.4-.37.72-.82.92-1.33.2-.55.3-1.13.3-1.72s-.1-1.15-.3-1.7c-.19-.55-.51-1.04-.92-1.44ZM21.42,102.78c-.5.42-1.15.64-1.81.6h-3.05v-4.62h3.08c.66-.04,1.3.18,1.81.6.91.98.91,2.5,0,3.48l-.03-.06Z"/>
      <path class="cls-2" d="M32.86,100.78c-.54,0-1.08.1-1.57.32-.44.2-.82.5-1.12.88v-1.1h-1.98v10h2.02v-6.06c-.03-.61.18-1.2.58-1.66.37-.39.88-.6,1.42-.6.29,0,.58.05.84.17.25.13.48.3.67.52l1.53-1.53c-.31-.32-.68-.57-1.1-.73-.41-.15-.85-.22-1.29-.21Z"/>
      <path class="cls-2" d="M44.52,101.96c-.35-.36-.77-.65-1.23-.86-.57-.23-1.17-.34-1.78-.32-.6-.02-1.2.09-1.76.32-.45.22-.87.51-1.23.86-.45.48-.78,1.06-.95,1.7-.16.71-.24,1.43-.24,2.15s.08,1.44.24,2.15c.16.64.49,1.24.95,1.72.35.35.77.64,1.23.84.55.25,1.16.36,1.76.34.61.02,1.22-.1,1.78-.34.46-.19.88-.48,1.23-.84.47-.48.79-1.07.95-1.72.17-.7.25-1.43.24-2.15.01-.72-.07-1.45-.24-2.15-.17-.64-.49-1.23-.95-1.7ZM43.57,107.47c-.07.45-.27.86-.58,1.18-.83.78-2.12.78-2.95,0-.3-.33-.5-.74-.56-1.18-.17-1.04-.17-2.1,0-3.14.06-.44.25-.86.56-1.18.83-.78,2.12-.78,2.95,0,.31.32.52.74.58,1.18.14,1.04.14,2.1,0,3.14Z"/>
      <path class="cls-2" d="M52.13,103.47c.43-.6,1.13-.94,1.87-.9.35,0,.7.08,1.01.24.34.19.65.43.9.73l1.38-1.35c-.42-.46-.92-.82-1.48-1.08-.57-.23-1.19-.34-1.81-.32-.56,0-1.12.09-1.66.28-.54.18-1.02.48-1.42.88-.45.44-.8.98-1.01,1.57-.28.76-.41,1.57-.39,2.39-.02.81.11,1.62.39,2.39.22.6.56,1.14,1.01,1.59.4.4.88.71,1.42.88.53.19,1.09.28,1.66.28.62.02,1.24-.1,1.81-.34.56-.25,1.07-.62,1.48-1.08l-1.38-1.33c-.25.3-.56.54-.9.73-.31.15-.66.23-1.01.22-.73.04-1.44-.29-1.87-.88-.22-.29-.38-.63-.45-.99-.17-.97-.17-1.96,0-2.92.08-.38.23-.71.45-.99Z"/>
      <path class="cls-2" d="M67.22,106.99c0,.34-.05.69-.17,1.01-.1.27-.25.51-.45.71-.18.18-.4.31-.65.39-.26.09-.54.13-.82.13-.52,0-1.02-.18-1.42-.52-.44-.46-.65-1.09-.58-1.72v-6.11h-2.02v6.45c-.01.52.06,1.05.22,1.55.16.49.43.93.8,1.29.31.3.67.52,1.08.67.45.16.92.24,1.4.24s.98-.09,1.44-.28c.47-.18.89-.47,1.23-.84v.92h1.98v-10h-2.02v6.11h-.02Z"/>
      <path class="cls-2" d="M78.66,100.78c-.53,0-1.06.1-1.55.32-.44.2-.82.5-1.12.88v-1.1h-1.98v10h2.02v-6.06c-.03-.61.18-1.2.58-1.66.37-.39.88-.6,1.42-.6.29,0,.58.05.84.17.25.13.48.3.67.52l1.53-1.53c-.31-.32-.68-.57-1.1-.73-.42-.15-.86-.22-1.31-.21Z"/>
      <path class="cls-2" d="M90.55,102.11c-.37-.42-.83-.75-1.33-.99-.54-.23-1.12-.34-1.7-.34-1.18-.06-2.32.44-3.1,1.33-.86,1.07-1.29,2.42-1.2,3.78-.02.82.11,1.63.37,2.41.2.6.53,1.14.97,1.59.41.4.9.7,1.44.88.57.18,1.17.26,1.76.26.39.03.79.03,1.18,0,.33-.06.66-.15.97-.28.29-.13.57-.3.82-.49.28-.21.55-.44.8-.69l-1.29-1.2c-.31.32-.66.59-1.05.8-.44.17-.91.25-1.38.24-.72.04-1.42-.23-1.91-.75-.46-.58-.69-1.31-.65-2.04h6.45v-.9c0-.66-.1-1.32-.3-1.96-.17-.61-.45-1.17-.85-1.65ZM85.16,105.08v-.73c.1-.62.45-1.18.97-1.55.75-.46,1.7-.46,2.45,0,.34.22.6.55.75.92.15.22.26.46.34.71v.73l-4.51-.08Z"/>
      <path class="cls-2" d="M109.03,101.68c-.32-.3-.69-.52-1.1-.67-.46-.17-.95-.25-1.44-.24-1.22-.04-2.39.5-3.14,1.46-.61-.97-1.7-1.53-2.84-1.46-.5,0-1,.09-1.46.28s-.88.47-1.23.84v-1.01h-1.91v10h2v-6.09c-.06-1.13.8-2.09,1.93-2.15h.22c.53,0,1.04.19,1.44.54.43.45.64,1.07.58,1.7v6h2.02v-6.17c0-.32.04-.64.15-.95.11-.25.26-.47.45-.67.19-.18.42-.32.67-.41.26-.09.53-.13.8-.13.53,0,1.04.19,1.44.54.43.45.64,1.07.58,1.7v6.09h2.02v-6.45c0-.53-.08-1.07-.26-1.57-.21-.45-.53-.86-.92-1.18Z"/>
      <path class="cls-2" d="M121.71,102.11c-.37-.42-.82-.76-1.33-.99-.57-.24-1.19-.36-1.81-.34-1.18-.06-2.32.44-3.1,1.33-.84,1.08-1.25,2.42-1.16,3.78-.02.82.09,1.63.34,2.41.21.59.55,1.14.99,1.59.4.4.88.7,1.42.88.57.18,1.17.26,1.76.26.39.04.79.04,1.18,0,.33-.06.66-.15.97-.28.3-.13.58-.3.84-.49.28-.2.54-.44.77-.69l-1.29-1.2c-.3.32-.66.59-1.05.8-.44.17-.91.25-1.38.24-.71.04-1.4-.23-1.89-.75-.46-.58-.69-1.31-.65-2.04h6.45v-.9c0-.66-.08-1.32-.28-1.96-.13-.61-.4-1.17-.78-1.65ZM116.34,105.08c0-.24,0-.49,0-.73.05-.22.12-.43.22-.62.15-.38.41-.7.75-.92.36-.24.79-.36,1.23-.34.43,0,.86.11,1.23.34.5.38.84.93.97,1.55.03.24.03.49,0,.73h-4.4Z"/>
      <path class="cls-2" d="M134.18,101.68c-.31-.29-.68-.52-1.08-.67-.45-.17-.92-.25-1.4-.24-.5,0-1,.09-1.46.28-.46.18-.88.47-1.2.84v-1.01h-1.98v10h2.02v-6.09c-.09-1.1.74-2.06,1.84-2.15.1,0,.21,0,.31,0,.53,0,1.04.19,1.44.54.43.45.64,1.07.58,1.7v6h2.02v-6.45c0-.53-.06-1.06-.22-1.57-.18-.45-.48-.86-.87-1.18Z"/>
      <path class="cls-2" d="M142.14,97.98h-2.02v3.03h-1.14v1.55h1.14v5.53c0,.35.06.7.17,1.03.1.33.27.64.49.9.25.25.54.46.86.6.38.18.8.27,1.23.26h1.2v-1.72h-.84c-.31.03-.62-.09-.84-.32-.19-.25-.28-.55-.26-.86v-5.38h1.94v-1.55h-1.94v-3.07Z"/>
      <path class="cls-2" d="M158.27,96.84l-5.16,14.04h2.28l.95-2.8h5.55l1.01,2.8h2.15l-5.16-14.08-1.62.04ZM156.98,106.28l2.15-6.24,2.15,6.24h-4.3Z"/>
      <path class="cls-2" d="M174.76,106.99c.02.35-.04.69-.17,1.01-.1.26-.25.5-.43.71-.19.17-.42.31-.67.39-.26.09-.53.13-.8.13-.53,0-1.04-.17-1.44-.52-.44-.46-.65-1.09-.58-1.72v-6.11h-2.02v6.45c0,.52.06,1.05.22,1.55.16.49.43.93.8,1.29.31.29.68.52,1.08.67.45.16.92.24,1.4.24s1-.09,1.46-.28.87-.47,1.2-.84v.92h1.98v-10h-2.02v6.11h0Z"/>
      <path class="cls-2" d="M184.07,97.98h-1.94v3.03h-1.16v1.55h1.16v5.53c0,.35.05.7.15,1.03.21.67.71,1.22,1.35,1.51.38.18.8.27,1.23.26h1.23v-1.72h-.84c-.31.03-.62-.09-.84-.32-.19-.24-.29-.55-.28-.86v-5.38h1.96v-1.55h-2.02v-3.08Z"/>
      <path class="cls-2" d="M197.62,101.79c-.31-.33-.68-.59-1.1-.75-.47-.18-.98-.27-1.48-.26-.49,0-.97.09-1.42.28-.45.18-.86.47-1.18.84v-5.05h-2v14.04h2v-6.13c-.04-.61.17-1.22.6-1.66.4-.35.91-.54,1.44-.54s1.04.19,1.44.54c.42.44.63,1.05.58,1.66v6.13h2.02v-6.45c0-.51-.08-1.02-.24-1.51-.13-.42-.36-.81-.66-1.14Z"/>
      <path class="cls-2" d="M210.09,101.96c-.36-.36-.79-.65-1.25-.86-1.14-.43-2.39-.43-3.53,0-.46.21-.87.5-1.23.86-.46.47-.79,1.06-.95,1.7-.17.7-.25,1.43-.24,2.15,0,.72.07,1.45.24,2.15.15.65.48,1.24.95,1.72.35.36.76.65,1.23.84,1.13.46,2.4.46,3.53,0,.47-.2.89-.48,1.25-.84.46-.48.78-1.08.95-1.72.16-.71.24-1.43.24-2.15s-.08-1.44-.24-2.15c-.17-.64-.49-1.22-.95-1.7ZM209.12,107.47c-.06.44-.25.86-.56,1.18-.4.38-.93.58-1.48.58-.48,0-.93-.18-1.29-.49-.31-.32-.52-.74-.58-1.18-.17-1.04-.17-2.1,0-3.14.05-.48.25-.92.58-1.27.38-.39.91-.6,1.46-.58.55-.02,1.09.19,1.48.58.3.33.5.74.56,1.18.17,1.04.17,2.1,0,3.14h-.17Z"/>
      <path class="cls-2" d="M220.56,100.78c-.53,0-1.06.1-1.55.32-.44.2-.82.5-1.12.88v-1.1h-1.98v10h2.02v-6.06c-.03-.61.18-1.2.58-1.66.37-.39.88-.6,1.42-.6.29,0,.58.05.84.17.25.14.47.31.67.52l1.53-1.53c-.31-.32-.68-.57-1.1-.73-.41-.15-.86-.22-1.31-.21Z"/>
      <rect class="cls-2" x="226.39" y="96.78" width="2.13" height="2.13"/>
      <rect class="cls-2" x="226.44" y="100.89" width="2.02" height="10.02"/>
      <path class="cls-2" d="M235.77,97.98h-2.02v3.03h-1.16v1.55h1.16v5.53c-.01.35.05.7.17,1.03.1.33.27.64.49.9.24.26.53.46.86.6.38.18.8.27,1.23.26h1.2v-1.72h-.84c-.31.03-.62-.09-.84-.32-.19-.25-.28-.55-.26-.86v-5.38h1.94v-1.55h-1.94v-3.07h0Z"/>
      <path class="cls-2" d="M247.53,100.89l-2.34,7.07-2.39-7.07h-2.15l3.48,9.57-.54,1.57c-.09.32-.27.61-.52.84-.28.18-.6.26-.92.24h-.52v1.78h.8c.38,0,.75-.05,1.12-.15.36-.11.68-.31.95-.58.33-.36.58-.78.73-1.25l4.43-12.02h-2.13Z"/>
      <path class="cls-2" d="M315.89,54.44h-7.27c-3.67,0-6.64-2.97-6.64-6.64h14.04l-10.04-10.02c2.33-1.39,5.19-1.6,7.7-.56,1.04.43,1.97,1.07,2.75,1.87l5.31,5.14,5.23-5.2c2.75-2.88,7.14-3.45,10.54-1.38l-10.04,10.09h7.35c3.67,0,6.64,2.97,6.64,6.64h-13.89l10.75,10.64c-1.35.62-2.82.95-4.3.95-2.66.01-5.22-1.04-7.1-2.92l-5.1-5.1-5.1,5.1c-1.89,1.88-4.45,2.93-7.12,2.92-1.49,0-2.95-.32-4.3-.95l10.59-10.58Z"/>
      <path class="cls-2" d="M329.57,89.38c-4.96-8.24-12.23-14.85-20.9-19.01-3.69-1.81-8.12-1.07-11.01,1.85l-.75.75c1.46.39,2.89.86,4.3,1.4,10.03,3.8,18.29,11.2,23.18,20.75h7.76c1.08,0,2.11-.41,2.9-1.14,2.24-2.12,4.71-3.99,7.35-5.57,2.25-1.38,3.62-3.82,3.63-6.45v-3.33c-6.18,2.46-11.81,6.11-16.58,10.75"/>
      <path class="cls-1" d="M329.61,15.52h0c-1.54,2.66-4.95,3.57-7.61,2.02l-8.6-4.95c1.53-2.65,4.93-3.56,7.58-2.03,0,0,.01,0,.01.01l8.62,4.95Z"/>
      <path class="cls-1" d="M313.65,15.47h0c-.62,3-3.56,4.93-6.56,4.31-.02,0-.03-.01-.05-.01l-9.68-2.15c.65-3,3.59-4.92,6.6-4.3l9.69,2.15Z"/>
      <path class="cls-1" d="M298.49,20.36h0c.31,3.06-1.91,5.79-4.97,6.11l-9.85,1.05c-.31-3.06,1.91-5.8,4.97-6.13l9.85-1.03Z"/>
      <path class="cls-1" d="M285.57,29.69h0c1.25,2.81-.02,6.1-2.83,7.35h-.01l-9.03,4.02c-1.25-2.81.01-6.1,2.82-7.35l9.05-4.02Z"/>
      <path class="cls-1" d="M276.15,42.57h0c2.05,2.27,1.88,5.78-.39,7.84h-.01s-7.35,6.72-7.35,6.72c-2.05-2.27-1.88-5.78.39-7.84h.01s7.35-6.72,7.35-6.72Z"/>
      <path class="cls-1" d="M271.21,57.71h0c2.65,1.53,3.56,4.93,2.03,7.58,0,0,0,.01-.01.01l-4.95,8.6c-2.68-1.48-3.66-4.85-2.18-7.54.01-.02.02-.04.03-.05l5.08-8.6Z"/>
      <path class="cls-1" d="M271.16,73.64h0c2.99.61,4.92,3.53,4.31,6.52,0,.02-.01.04-.01.06l-2.15,9.68c-3-.63-4.92-3.58-4.3-6.58l2.15-9.68Z"/>
      <path class="cls-1" d="M276.04,88.8h0c3.06-.33,5.8,1.89,6.13,4.95l1.03,9.83c-3.05.33-5.78-1.88-6.11-4.93v-.02l-1.05-9.83Z"/>
      <path class="cls-1" d="M285.36,101.7h0c2.8-1.28,6.1-.06,7.4,2.73l4.02,9.05c-2.81,1.24-6.1-.03-7.35-2.84l-4.07-8.94Z"/>
      <path class="cls-1" d="M298.26,111.1h0c2.27-2.05,5.78-1.88,7.84.39h.01s6.64,7.36,6.64,7.36c-2.28,2.06-5.81,1.88-7.87-.4h0l-6.62-7.35Z"/>
      <path class="cls-1" d="M313.44,116.07h0c1.54-2.66,4.93-3.57,7.59-2.04l8.6,4.95c-1.53,2.66-4.92,3.57-7.58,2.04-.01,0-.02,0-.04-.02l-8.57-4.93Z"/>
      <path class="cls-1" d="M329.37,116.09h0c.63-3.01,3.59-4.94,6.6-4.3h0l9.7,2.15c-.65,3-3.59,4.92-6.6,4.3l-9.7-2.15Z"/>
      <path class="cls-1" d="M344.55,111.21h0c-.33-3.05,1.88-5.78,4.93-6.11h.02l9.85-1.03c.33,3.05-1.88,5.78-4.93,6.11h-.02l-9.85,1.03Z"/>
      <path class="cls-1" d="M357.48,101.88h0c-1.24-2.81.02-6.09,2.82-7.35l9.05-4.02c1.24,2.81-.02,6.09-2.82,7.35l-9.05,4.02Z"/>
      <path class="cls-1" d="M366.88,89h0c-2.05-2.28-1.86-5.79.41-7.83.01,0,.01,0,.02,0l7.35-6.6c2.05,2.28,1.87,5.79-.41,7.85l-7.37,6.59Z"/>
      <path class="cls-1" d="M371.84,73.86h0c-2.66-1.52-3.58-4.91-2.05-7.57,0-.01.01-.01.01-.02l4.97-8.6c2.65,1.53,3.56,4.93,2.03,7.58,0,0,0,.01-.01.01l-4.95,8.6Z"/>
      <path class="cls-1" d="M371.89,57.92h0c-3-.62-4.93-3.56-4.31-6.56v-.02l2.15-9.68c3,.65,4.92,3.59,4.3,6.6l-2.14,9.66Z"/>
      <path class="cls-1" d="M367.07,42.76h0c-3.05.33-5.78-1.88-6.11-4.93v-.02l-1.03-9.83c3.05-.33,5.78,1.88,6.11,4.93v.02l1.03,9.83Z"/>
      <path class="cls-1" d="M357.65,29.86h0c-2.81,1.24-6.1-.03-7.35-2.84l-4.02-9.03c2.8-1.25,6.08.01,7.33,2.81,0,0,0,.01.01.01l4.03,9.05Z"/>
      <path class="cls-1" d="M344.77,20.57h0c-2.31,1.99-5.78,1.76-7.81-.52l-6.62-7.35c2.29-2.05,5.81-1.87,7.87.41l6.56,7.46Z"/>
      <path class="cls-1" d="M346.15,72.91l-.75-.75c-2.9-2.92-7.34-3.66-11.03-1.85-8.68,4.18-15.94,10.81-20.88,19.07-4.77-4.63-10.4-8.29-16.58-10.75v3.35c.01,2.63,1.39,5.07,3.63,6.45,2.64,1.59,5.11,3.46,7.35,5.57.79.73,1.83,1.14,2.9,1.14h7.74c5.62-10.98,15.67-19.04,27.61-22.15"/>
    </g>
  </g>
</svg>