<?xml version="1.0" encoding="utf-8"?>
<!-- Generator: Adobe Illustrator 26.0.1, SVG Export Plug-In . SVG Version: 6.00 Build 0)  -->
<svg version="1.1" id="Layer_1" xmlns="http://www.w3.org/2000/svg" xmlns:xlink="http://www.w3.org/1999/xlink" x="0px" y="0px"
	 viewBox="0 0 447.13 247.95" style="enable-background:new 0 0 447.13 247.95;" xml:space="preserve">
<style type="text/css">
	.st0{fill:#1C355E;}
	.st1{fill:#3F738D;}
</style>
<g id="Layer_2_00000161600279225693092910000015718395637847852208_">
	<g id="Layer_1-2">
		<path class="st0" d="M52.49,100.48c0.25,0.03,0.47-0.16,0.49-0.4c0-0.03,0-0.06,0-0.09v-1.42c-0.01-0.26-0.23-0.46-0.49-0.45
			c0,0,0,0,0,0h-1.18c-0.26-0.02-0.49,0.17-0.52,0.43c0,0.03,0,0.06,0,0.09v1.42c-0.03,0.25,0.15,0.47,0.4,0.5c0.04,0,0.08,0,0.12,0
			L52.49,100.48z"/>
		<path class="st0" d="M49.33,100.48c0.25,0.03,0.47-0.16,0.49-0.4c0-0.03,0-0.06,0-0.09v-1.42c0-0.25-0.2-0.45-0.45-0.45
			c-0.02,0-0.03,0-0.05,0h-1.2c-0.26-0.01-0.48,0.19-0.5,0.45c0,0.02,0,0.04,0,0.07v1.42c-0.03,0.25,0.16,0.47,0.4,0.49
			c0.03,0,0.06,0,0.09,0L49.33,100.48z"/>
		<path class="st0" d="M47.29,96.2h8.32c0.59,0.01,1.08-0.46,1.1-1.05c0-0.01,0-0.01,0-0.02v-9.78c0-1.1,0.9-2,2-2c1.1,0,2,0.9,2,2
			v6.99c0.01,0.59,0.49,1.06,1.08,1.08h5.89c0.84,0.04,1.66-0.25,2.28-0.82c0.74,0.59,1.68,0.88,2.62,0.82h14.84
			c1.12,0.07,2.23-0.31,3.05-1.08c0.75,0.78,1.81,1.18,2.88,1.08h9.35c1.26,0.02,2.48-0.43,3.42-1.27c0.71,0.85,1.78,1.32,2.88,1.27
			h3.61c1.66,0.12,3.1-1.12,3.22-2.78c0.01-0.14,0.01-0.28,0-0.42V76.4c0.02-0.27-0.18-0.51-0.45-0.54c-0.02,0-0.04,0-0.07,0h-1.12
			c-0.27-0.01-0.5,0.2-0.52,0.47c0,0.02,0,0.04,0,0.07V90.2c0,0.75-0.3,1.05-1.08,1.08h-3.96c-0.55,0.07-1.07-0.23-1.29-0.73
			c0.37-0.73,0.56-1.53,0.56-2.34v-1.78c0.19-2.88-2-5.36-4.88-5.55c-2.88-0.19-5.36,2-5.55,4.88c-0.01,0.22-0.01,0.45,0,0.67v4.86
			h-4.43c-0.45,0.06-0.9-0.06-1.27-0.32c-0.1-0.13-0.15-0.29-0.13-0.45v-3.61c-0.02-3.13-2.55-5.65-5.68-5.68
			c-2.13-0.11-4.16,0.86-5.42,2.58l-0.32,0.47c-0.02,0.09-0.02,0.19,0,0.28l0,0c0.02,0.13,0.09,0.26,0.19,0.34l0.9,0.65
			c0.09,0.06,0.19,0.1,0.3,0.11c0.17,0,0.34-0.09,0.43-0.24l0.32-0.45c0.85-1.16,2.23-1.8,3.66-1.7c0.94-0.01,1.85,0.37,2.49,1.05
			c0.67,0.66,1.04,1.56,1.03,2.49v2.37c0,1.51-0.6,2.15-2.15,2.15H72.38c-0.82,0-1.14-0.19-1.27-0.34
			c-0.13-0.15-0.15-0.11-0.15-0.43V76.4c0.02-0.27-0.18-0.51-0.45-0.54c-0.02,0-0.04,0-0.07,0h-1.12c-0.26-0.01-0.48,0.19-0.5,0.45
			c0,0.03,0,0.06,0,0.09v13.78c0,0.77-0.32,1.1-1.08,1.1h-4.9v-5.93c-0.03-2.27-1.88-4.11-4.15-4.13c-1.11-0.03-2.17,0.41-2.95,1.2
			c-0.8,0.76-1.24,1.82-1.2,2.92v8.6h-7.23c-1.71-0.02-3.1-1.37-3.18-3.08c0.01-1.25,0.72-2.39,1.83-2.97l0.52-0.26
			c0.16-0.09,0.26-0.25,0.26-0.43c0.01-0.06,0.01-0.13,0-0.19l-0.54-1.08c-0.13-0.25-0.43-0.35-0.69-0.24l-0.49,0.28
			c-1.85,0.92-3.02,2.81-3.03,4.88c-0.02,1.41,0.54,2.78,1.55,3.76C44.53,95.64,45.88,96.2,47.29,96.2z M99.65,91.28v-4.86
			c0-1.7,1.38-3.08,3.08-3.08s3.08,1.38,3.08,3.08v1.78c0,1.7-1.38,3.08-3.08,3.08l0,0H99.65z"/>
		<path class="st0" d="M119.78,93.41h1.14c0.26,0.01,0.48-0.19,0.49-0.45c0-0.01,0-0.03,0-0.04V76.37c0.02-0.26-0.17-0.49-0.43-0.51
			c-0.02,0-0.04,0-0.07,0h-1.14c-0.26-0.02-0.49,0.17-0.52,0.43c0,0.03,0,0.06,0,0.09v16.54c-0.03,0.25,0.15,0.47,0.4,0.5
			C119.7,93.41,119.74,93.41,119.78,93.41z"/>
		<path class="st0" d="M135.24,96.2h8.3c0.59,0,1.08-0.48,1.08-1.08v-9.78c0-1.1,0.9-2,2-2c1.1,0,2,0.9,2,2v4.3
			c-0.02,0.26,0.17,0.49,0.43,0.52c0.03,0,0.06,0,0.09,0h1.12c0.26,0.02,0.49-0.17,0.52-0.43c0-0.03,0-0.06,0-0.09v-4.3
			c0-1.11-0.45-2.18-1.25-2.95c-1.63-1.61-4.24-1.61-5.87,0c-0.79,0.78-1.22,1.84-1.2,2.95v8.6h-7.2c-1.76-0.01-3.18-1.44-3.18-3.2
			c0-1.25,0.7-2.39,1.81-2.97l0.6-0.13c0.16-0.09,0.26-0.25,0.26-0.43c0.02-0.09,0.02-0.19,0-0.28l-0.52-0.99
			c-0.09-0.17-0.26-0.28-0.45-0.28c-0.08-0.03-0.17-0.03-0.26,0l-0.47,0.26c-1.83,0.93-2.98,2.81-2.99,4.86
			c0,2.95,2.38,5.34,5.33,5.35L135.24,96.2z"/>
		<path class="st0" d="M159.07,93.41h3.05l0,0c-0.03,1.49-1.24,2.7-2.73,2.73h-2.47c-0.26-0.01-0.48,0.19-0.49,0.45
			c0,0.01,0,0.03,0,0.04v1.12c-0.02,0.26,0.17,0.49,0.43,0.51c0.02,0,0.04,0,0.07,0h2.47c1.29,0.02,2.53-0.5,3.42-1.44
			c0.94-0.89,1.47-2.13,1.46-3.42l0,0h6.75c0.79,0.01,1.56-0.28,2.15-0.82c0.76,0.58,1.71,0.87,2.67,0.82h10.24
			c1.12,0.07,2.21-0.32,3.03-1.08c0.75,0.78,1.82,1.18,2.9,1.08h9.35c1.25,0.02,2.46-0.44,3.4-1.27c0.72,0.84,1.78,1.31,2.88,1.27
			h3.61c1.66,0.12,3.1-1.12,3.22-2.78c0.01-0.14,0.01-0.28,0-0.42V76.4c0.02-0.27-0.18-0.51-0.45-0.54c0,0,0,0,0,0h-1.12
			c-0.27-0.01-0.5,0.2-0.52,0.47c0,0.02,0,0.04,0,0.07V90.2c0,0.75-0.28,1.05-1.08,1.08h-3.96c-0.55,0.07-1.08-0.23-1.31-0.73
			c0.38-0.72,0.57-1.53,0.56-2.34v-1.78c0.01-2.87-2.31-5.21-5.19-5.22c-1.38,0-2.71,0.54-3.69,1.52c-1.01,0.96-1.57,2.3-1.55,3.7
			v4.86h-4.45c-0.82,0-1.14-0.19-1.25-0.32c-0.11-0.13-0.13-0.22-0.13-0.45v-3.61c0.02-1.51-0.59-2.96-1.68-4
			c-1.05-1.09-2.51-1.69-4.02-1.68c-2.13-0.11-4.16,0.86-5.42,2.58l-0.32,0.47c-0.02,0.09-0.02,0.19,0,0.28l0,0
			c0.03,0.14,0.11,0.26,0.22,0.34l0.9,0.65c0.09,0.06,0.19,0.1,0.3,0.11c0.17-0.01,0.33-0.1,0.43-0.24l0.3-0.45
			c0.86-1.14,2.23-1.77,3.66-1.7c0.94-0.01,1.85,0.37,2.49,1.05c0.68,0.68,1.05,1.62,1.01,2.58v2.28c0,1.51-0.6,2.15-2.15,2.15
			h-10.54c-0.82,0-1.14-0.19-1.25-0.32c-0.11-0.12-0.16-0.29-0.15-0.45V82.2c0.04-0.26-0.14-0.5-0.4-0.54
			c-0.04-0.01-0.08-0.01-0.11,0h-1.12c-0.27-0.01-0.5,0.2-0.52,0.47c0,0.02,0,0.04,0,0.07v7.98c0,0.77-0.3,1.1-1.03,1.1h-6.69v-4.86
			c0-2.87-2.33-5.2-5.2-5.2c-1.4-0.02-2.74,0.53-3.72,1.53c-0.99,0.97-1.54,2.29-1.53,3.68v1.78c-0.02,1.38,0.54,2.71,1.53,3.68
			C156.33,92.87,157.67,93.42,159.07,93.41z M155.97,88.2v-1.78c-0.14-1.69,1.11-3.18,2.81-3.32c1.69-0.14,3.18,1.11,3.32,2.81
			c0.01,0.17,0.01,0.34,0,0.51v4.86h-3.03C157.37,91.26,155.99,89.9,155.97,88.2z M198.33,91.28v-4.86c0-1.7,1.38-3.08,3.08-3.08
			s3.08,1.38,3.08,3.08v1.78c0,1.7-1.38,3.08-3.08,3.08l0,0H198.33z"/>
		<path class="st0" d="M174.05,79.26h1.27c0.25-0.03,0.43-0.24,0.43-0.49v-1.42c0.01-0.26-0.17-0.49-0.43-0.54h-1.16
			c-0.27-0.01-0.5,0.2-0.52,0.47c0,0.02,0,0.04,0,0.07v1.42C173.62,79.01,173.8,79.23,174.05,79.26
			C174.05,79.26,174.05,79.26,174.05,79.26z"/>
		<path class="st0" d="M170.89,79.26h1.18c0.26,0.02,0.49-0.17,0.51-0.43c0-0.02,0-0.04,0-0.07v-1.42c0.02-0.27-0.18-0.51-0.45-0.54
			c-0.02,0-0.04,0-0.07,0h-1.18c-0.28-0.01-0.53,0.21-0.54,0.49c0,0.01,0,0.03,0,0.04v1.42c-0.01,0.26,0.19,0.48,0.45,0.5
			C170.83,79.26,170.86,79.26,170.89,79.26z"/>
		<path class="st0" d="M218.46,93.41h1.14c0.25,0.01,0.46-0.18,0.47-0.43c0-0.02,0-0.04,0-0.07V76.37c0.04-0.25-0.13-0.48-0.38-0.51
			c-0.03,0-0.06-0.01-0.09,0h-1.14c-0.26-0.02-0.49,0.17-0.52,0.43c0,0.03,0,0.06,0,0.09v16.54c-0.03,0.25,0.15,0.47,0.4,0.5
			C218.38,93.41,218.42,93.41,218.46,93.41z"/>
		<path class="st0" d="M234.46,79.26h1.08c0.25,0.08,0.52-0.05,0.6-0.29c0.02-0.06,0.03-0.13,0.02-0.2v-1.42
			c0.02-0.28-0.2-0.53-0.48-0.55c-0.05,0-0.1,0-0.14,0.01h-1.08c-0.28-0.01-0.53,0.21-0.54,0.49c0,0.01,0,0.03,0,0.04v1.42
			c-0.01,0.26,0.19,0.48,0.45,0.5C234.4,79.26,234.43,79.26,234.46,79.26z"/>
		<path class="st0" d="M231.23,79.26h1.18c0.26,0.05,0.5-0.12,0.55-0.38c0.01-0.04,0.01-0.08,0.01-0.12v-1.42
			c0.02-0.27-0.18-0.51-0.45-0.54c-0.02,0-0.04,0-0.07,0h-1.23c-0.27-0.01-0.5,0.2-0.52,0.47c0,0.02,0,0.04,0,0.07v1.42
			c-0.01,0.26,0.19,0.48,0.45,0.5C231.19,79.26,231.21,79.26,231.23,79.26z"/>
		<path class="st0" d="M245.12,80.29h4.04c0.23,0.01,0.42-0.16,0.43-0.39c0-0.01,0-0.03,0-0.04v-0.52c0.01-0.21-0.15-0.4-0.36-0.41
			c-0.02,0-0.05,0-0.07,0h-2.15v-1.2c0.01-0.35,0.3-0.62,0.65-0.62c0.25-0.02,0.49,0.14,0.56,0.39l0.13,0.24
			c0.05,0.15,0.19,0.25,0.34,0.26c0.06,0.02,0.13,0.02,0.19,0l0.45-0.19c0.16-0.06,0.27-0.21,0.28-0.39c0.01-0.06,0.01-0.13,0-0.19
			V77c-0.28-0.75-1.01-1.24-1.81-1.2c-1.1,0-1.99,0.88-2,1.98v1.2h-0.45c-0.21-0.02-0.4,0.13-0.43,0.34c0,0.02,0,0.05,0,0.07v0.52
			C244.91,80.06,244.99,80.21,245.12,80.29z"/>
		<path class="st0" d="M253.66,97.71c0.26,0.03,0.49-0.16,0.52-0.42c0-0.04,0-0.08,0-0.11v-1.38c0.02-0.27-0.18-0.51-0.45-0.54
			c-0.02,0-0.04,0-0.07,0h-1.18c-0.27-0.01-0.5,0.2-0.52,0.47c0,0.02,0,0.04,0,0.07v1.38c-0.04,0.26,0.14,0.5,0.4,0.54
			c0.04,0.01,0.08,0.01,0.11,0H253.66z"/>
		<path class="st0" d="M255.66,95.25h1.16c0.3,0,0.54,0.24,0.54,0.54v1.38c0,0.3-0.24,0.54-0.54,0.54h-1.16
			c-0.3,0-0.54-0.24-0.54-0.54v-1.38C255.12,95.5,255.36,95.25,255.66,95.25z"/>
		<path class="st0" d="M274.43,91.84c1.03-1,1.6-2.39,1.57-3.83v-2.26c0.03-1.44-0.54-2.82-1.57-3.83c-1.01-1.03-2.39-1.6-3.83-1.59
			c-2.13-0.03-4.08,1.2-4.97,3.14c-1.88,0.42-3.22,2.09-3.23,4.02v2.02c0,0.65,0.17,1.28,0.47,1.85h-4.71
			c-0.44,0.06-0.89-0.06-1.25-0.32c-0.1-0.13-0.15-0.29-0.13-0.45V82.2c0.02-0.27-0.18-0.51-0.45-0.54c-0.03,0-0.06,0-0.09,0h-1.1
			c-0.27-0.02-0.51,0.18-0.54,0.45c0,0.03,0,0.06,0,0.09v7.98c0,0.77-0.3,1.1-1.03,1.1h-4.06c-0.82,0-1.14-0.19-1.25-0.32
			c-0.11-0.13-0.13-0.22-0.13-0.45v-8.3c0.02-0.27-0.18-0.51-0.45-0.54c-0.03,0-0.06,0-0.09,0h-1.1c-0.27-0.02-0.51,0.18-0.54,0.45
			c0,0.03,0,0.06,0,0.09v7.98c0,0.77-0.3,1.1-1.03,1.1h-5.96v-4.86c0.03-1.39-0.52-2.73-1.53-3.7c-2.03-2.03-5.33-2.03-7.36,0.01
			c-0.98,0.98-1.53,2.31-1.52,3.69v1.78c0,2.87,2.33,5.2,5.2,5.2h11.12c0.84,0.04,1.67-0.25,2.3-0.82c0.74,0.57,1.67,0.86,2.6,0.82
			h3.78c0.84,0.04,1.67-0.25,2.3-0.82c0.75,0.59,1.69,0.88,2.64,0.82h12.06C272.04,93.43,273.43,92.86,274.43,91.84z M268.11,83.66
			c0.6-0.77,1.52-1.2,2.49-1.18c1.79,0.03,3.23,1.48,3.27,3.27v2.26c0,1.77-1.41,3.22-3.18,3.27v-3.78
			C270.7,85.81,269.67,84.29,268.11,83.66z M268.54,87.49v3.78h-2.15c-1.01-0.01-1.82-0.84-1.81-1.85c0,0,0,0,0,0v-1.94
			c0-1.08,0.87-1.96,1.96-1.96s1.96,0.87,1.96,1.96c0,0,0,0,0,0H268.54z M236.87,86.42v4.86h-3.07c-1.68-0.03-3.04-1.39-3.08-3.08
			v-1.78c0-1.7,1.38-3.08,3.08-3.08S236.87,84.72,236.87,86.42z"/>
		<path class="st0" d="M47.44,105.98v1.4c-0.03,0.26,0.16,0.49,0.42,0.52c0.04,0,0.08,0,0.11,0h1.16c0.27,0.02,0.51-0.18,0.54-0.45
			c0-0.02,0-0.04,0-0.07v-1.4c0.01-0.28-0.21-0.53-0.49-0.54c-0.01,0-0.03,0-0.04,0h-1.16c-0.28-0.01-0.53,0.21-0.54,0.49
			C47.44,105.96,47.44,105.97,47.44,105.98z"/>
		<path class="st0" d="M45.98,107.9c0.26,0.02,0.49-0.17,0.52-0.43c0-0.03,0-0.06,0-0.09v-1.4c0.04-0.26-0.14-0.5-0.4-0.54
			c-0.04-0.01-0.08-0.01-0.11,0H44.8c-0.26-0.03-0.49,0.16-0.52,0.42c0,0.04,0,0.08,0,0.11v1.4c-0.02,0.26,0.17,0.49,0.43,0.52
			c0.03,0,0.06,0,0.09,0H45.98z"/>
		<path class="st0" d="M60.49,123.9h1.16c0.3,0,0.54,0.24,0.54,0.54v1.38c0,0.3-0.24,0.54-0.54,0.54h-1.16
			c-0.3,0-0.54-0.24-0.54-0.54v-1.38C59.96,124.14,60.2,123.9,60.49,123.9z"/>
		<path class="st0" d="M57.31,123.92c-0.26-0.03-0.49,0.16-0.52,0.42c0,0.04,0,0.08,0,0.11v1.38c-0.04,0.26,0.14,0.5,0.4,0.54
			c0.04,0.01,0.08,0.01,0.11,0h1.18c0.26,0.03,0.49-0.16,0.52-0.42c0-0.04,0-0.08,0-0.11v-1.38c0.04-0.26-0.14-0.5-0.4-0.54
			c-0.04-0.01-0.08-0.01-0.11,0H57.31z"/>
		<path class="st0" d="M63.37,122.05h9.1c1.4,0.02,2.74-0.53,3.72-1.53c0.99-0.97,1.54-2.29,1.53-3.68v-1.78
			c-0.01-2.89-2.35-5.22-5.24-5.21c-1.38,0-2.71,0.56-3.68,1.53c-0.99,0.96-1.55,2.29-1.53,3.68v4.86h-4.3
			c-0.41,0.04-0.82-0.07-1.16-0.3c-0.11-0.12-0.17-0.29-0.15-0.45v-8.34c0.02-0.27-0.18-0.51-0.45-0.54c-0.02,0-0.04,0-0.07,0h-1.1
			c-0.28-0.01-0.53,0.21-0.54,0.49c0,0.01,0,0.03,0,0.04v7.98c0,0.8-0.3,1.12-1.03,1.12h-5.96v-4.86c0.02-1.39-0.53-2.73-1.53-3.7
			c-0.96-1.01-2.29-1.57-3.68-1.55c-1.39-0.02-2.72,0.54-3.68,1.55c-1.04,0.95-1.63,2.29-1.63,3.7v1.78
			c-0.02,1.39,0.54,2.72,1.55,3.68c0.97,0.99,2.29,1.54,3.68,1.53h11.2c0.84,0.04,1.67-0.26,2.3-0.82c0.75,0.58,1.68,0.87,2.62,0.82
			L63.37,122.05z M69.44,119.9v-4.84c0-1.69,1.37-3.05,3.05-3.05c1.69,0,3.05,1.37,3.05,3.05v1.78c-0.02,1.69-1.39,3.05-3.08,3.08
			L69.44,119.9z M50.39,115.06v4.86h-3.08c-1.72,0.02-3.14-1.35-3.16-3.07c0,0,0,0,0,0v-1.78c0-1.7,1.38-3.07,3.08-3.07
			c1.7,0,3.07,1.38,3.07,3.07H50.39z"/>
		<path class="st0" d="M126.57,122.05h7.55c1.67,0.11,3.12-1.15,3.23-2.83c0.01-0.13,0.01-0.27,0-0.4v-13.78
			c0-0.26-0.21-0.47-0.47-0.48c-0.02,0-0.03,0-0.04,0h-1.12c-0.26-0.03-0.49,0.16-0.52,0.42c0,0.04,0,0.08,0,0.11v13.78
			c0,0.77-0.28,1.08-1.08,1.1h-7.85c-0.45,0.04-0.9-0.09-1.27-0.37c-0.1-0.13-0.14-0.29-0.13-0.45v-3.63
			c-0.01-3.13-2.54-5.67-5.68-5.7c-2.12-0.08-4.15,0.88-5.42,2.58l-0.32,0.49c-0.02,0.09-0.02,0.19,0,0.28l0,0
			c0.02,0.13,0.09,0.24,0.19,0.32l0.9,0.65c0.08,0.07,0.19,0.11,0.3,0.11c0.17,0.01,0.33-0.07,0.43-0.22l0.32-0.45
			c0.84-1.17,2.22-1.81,3.66-1.7c1.95,0.02,3.51,1.6,3.53,3.55v2.28c0,1.48-0.6,2.15-2.15,2.15h-10.56
			c-0.46,0.05-0.92-0.07-1.29-0.34c0,0-0.13-0.11-0.13-0.43v-2.52c0.05-1.49-0.51-2.93-1.55-4c-1.03-1.05-2.46-1.62-3.94-1.57h-4.17
			c0.01-1.94,1.59-3.49,3.53-3.48c0.11,0,0.23,0.01,0.34,0.02h1.98c0.25,0.03,0.47-0.15,0.5-0.4c0-0.04,0-0.08,0-0.12v-1.12
			c0.02-0.26-0.17-0.49-0.43-0.51c-0.02,0-0.04,0-0.07,0h-1.98c-3.81,0-6.09,2.49-6.09,6.67c0,0.59,0.48,1.08,1.08,1.08h5.31
			c1.77-0.08,3.26,1.3,3.34,3.06c0.01,0.13,0,0.25-0.01,0.38v2.15c0,0.8-0.3,1.12-1.1,1.12H91.22v-4.8
			c0.01-2.87-2.31-5.21-5.19-5.22c-1.4,0-2.73,0.55-3.72,1.54c-1.03,0.95-1.61,2.28-1.61,3.68v1.78c-0.02,1.39,0.54,2.72,1.55,3.68
			c0.97,0.99,2.31,1.55,3.7,1.53h3.05l0,0c-0.05,1.49-1.25,2.68-2.73,2.71h-2.39c-0.26-0.02-0.49,0.17-0.52,0.43
			c0,0.03,0,0.06,0,0.09v1.12c-0.02,0.26,0.17,0.49,0.43,0.52c0.03,0,0.06,0,0.09,0h2.45c2.67-0.05,4.82-2.19,4.88-4.86l0,0h14.21
			c0.85,0.04,1.68-0.26,2.3-0.84c0.74,0.6,1.67,0.9,2.62,0.84h10.28c1.12,0.07,2.23-0.31,3.05-1.08
			C124.44,121.76,125.5,122.15,126.57,122.05z M89.07,115.06v4.86h-3.05c-1.72,0.02-3.14-1.35-3.16-3.07c0,0,0,0,0,0v-1.78
			c-0.14-1.69,1.11-3.18,2.81-3.32s3.18,1.12,3.32,2.81c0.01,0.17,0.01,0.34,0,0.51H89.07z"/>
		<path class="st0" d="M141.3,104.57c-0.26-0.02-0.49,0.17-0.52,0.43c0,0.03,0,0.06,0,0.09v16.51c-0.02,0.26,0.17,0.49,0.43,0.52
			c0.03,0,0.06,0,0.09,0h1.14c0.25,0.01,0.46-0.18,0.48-0.42c0-0.03,0-0.06,0-0.09v-16.58c0.04-0.25-0.13-0.48-0.38-0.51
			c-0.03,0-0.06-0.01-0.09,0L141.3,104.57z"/>
		<path class="st0" d="M159.19,107.64c-0.26-0.02-0.49,0.17-0.51,0.43c0,0.02,0,0.04,0,0.07v1.29c-0.02,0.26,0.17,0.49,0.43,0.52
			c0.03,0,0.06,0,0.09,0h1.18c0.26,0.02,0.49-0.17,0.52-0.43c0-0.03,0-0.06,0-0.09v-1.29c0.01-0.26-0.19-0.48-0.45-0.5
			c-0.02,0-0.04,0-0.07,0H159.19z"/>
		<path class="st0" d="M165.45,122.05c1.67,0.11,3.12-1.15,3.23-2.83c0.01-0.13,0.01-0.27,0-0.4v-8c0.02-0.27-0.18-0.51-0.45-0.54
			c-0.02,0-0.04,0-0.07,0h-1.12c-0.27-0.01-0.5,0.2-0.52,0.47c0,0.02,0,0.04,0,0.07v8c0,0.77-0.3,1.08-1.1,1.1h-8.3
			c-1.79-0.02-3.23-1.49-3.21-3.28c0.01-1.23,0.72-2.35,1.84-2.89l0.49-0.26c0.17-0.1,0.28-0.28,0.28-0.47
			c0.02-0.07,0.02-0.14,0-0.22l-0.56-0.99c-0.06-0.19-0.25-0.31-0.45-0.28c-0.09-0.02-0.17-0.02-0.26,0l-0.49,0.24
			c-0.89,0.47-1.63,1.17-2.15,2.02c-0.53,0.86-0.82,1.85-0.82,2.86c-0.02,1.43,0.55,2.81,1.57,3.81c0.99,1.01,2.35,1.57,3.76,1.55
			L165.45,122.05z"/>
		<path class="st0" d="M162.36,107.64h1.18c0.29,0,0.52,0.23,0.52,0.52v1.27c0,0.29-0.23,0.52-0.52,0.52h-1.18
			c-0.29,0-0.52-0.23-0.52-0.52v-1.27C161.84,107.87,162.07,107.64,162.36,107.64z"/>
		<path class="st0" d="M180.22,122.05h3.89c1.67,0.11,3.12-1.15,3.23-2.83c0.01-0.13,0.01-0.27,0-0.4v-8
			c0.02-0.27-0.18-0.51-0.45-0.54c-0.02,0-0.04,0-0.07,0h-1.12c-0.27-0.01-0.5,0.2-0.52,0.47c0,0.02,0,0.04,0,0.07v8
			c0,0.77-0.28,1.08-1.05,1.1h-8.82c-0.73,0-1.03-0.32-1.03-1.1v-13.78c0.04-0.26-0.14-0.5-0.4-0.54c-0.04-0.01-0.08-0.01-0.11,0
			h-1.12c-0.26-0.01-0.48,0.19-0.5,0.45c0,0.03,0,0.06,0,0.09v13.78c-0.12,1.66,1.13,3.1,2.78,3.22c0.13,0.01,0.25,0.01,0.38,0
			H180.22z"/>
		<path class="st0" d="M182.03,123.92c-0.26-0.03-0.49,0.16-0.52,0.42c0,0.04,0,0.08,0,0.11v1.38c-0.04,0.26,0.14,0.5,0.4,0.54
			c0.04,0.01,0.08,0.01,0.11,0h1.16c0.28,0.01,0.53-0.21,0.54-0.49c0-0.01,0-0.03,0-0.04v-1.38c0.01-0.28-0.21-0.53-0.49-0.54
			c-0.01,0-0.03,0-0.04,0H182.03z"/>
		<path class="st0" d="M185.19,123.92c-0.26-0.03-0.49,0.16-0.52,0.42c0,0.04,0,0.08,0,0.11v1.38c-0.04,0.26,0.14,0.5,0.4,0.54
			c0.04,0.01,0.08,0.01,0.11,0h1.18c0.26,0.03,0.49-0.16,0.52-0.42c0-0.04,0-0.08,0-0.11v-1.38c0.04-0.26-0.14-0.5-0.4-0.54
			c-0.04-0.01-0.08-0.01-0.11,0H185.19z"/>
		<path class="st0" d="M203.53,105.45c-0.26-0.03-0.49,0.16-0.52,0.42c0,0.04,0,0.08,0,0.11v1.4c-0.02,0.26,0.17,0.49,0.43,0.52
			c0.03,0,0.06,0,0.09,0h1.16c0.26,0.04,0.5-0.14,0.54-0.4c0.01-0.04,0.01-0.08,0-0.11v-1.4c0.01-0.28-0.21-0.53-0.49-0.54
			c-0.01,0-0.03,0-0.04,0H203.53z"/>
		<path class="st0" d="M200.37,105.45c-0.28-0.01-0.53,0.21-0.54,0.49c0,0.01,0,0.03,0,0.04v1.4c-0.01,0.27,0.2,0.5,0.47,0.52
			c0.02,0,0.04,0,0.07,0h1.2c0.25,0.03,0.47-0.15,0.5-0.4c0-0.04,0-0.08,0-0.12v-1.4c0.04-0.26-0.14-0.5-0.4-0.53
			c-0.03,0-0.06-0.01-0.09,0H200.37z"/>
		<path class="st0" d="M220.48,105.45h-1.16c-0.26-0.03-0.49,0.16-0.52,0.42c0,0.04,0,0.08,0,0.11v1.4
			c-0.02,0.26,0.17,0.49,0.43,0.52c0.03,0,0.06,0,0.09,0h1.16c0.26,0.04,0.5-0.14,0.54-0.4c0.01-0.04,0.01-0.08,0-0.11v-1.4
			c0.01-0.28-0.21-0.53-0.49-0.54C220.51,105.45,220.49,105.45,220.48,105.45z"/>
		<path class="st0" d="M221.9,105.98v1.4c-0.02,0.26,0.17,0.49,0.43,0.52c0.03,0,0.06,0,0.09,0h1.18c0.26,0.04,0.5-0.14,0.54-0.4
			c0.01-0.04,0.01-0.08,0-0.11v-1.4c0.01-0.28-0.21-0.53-0.49-0.54c-0.01,0-0.03,0-0.04,0h-1.18c-0.26-0.03-0.49,0.16-0.52,0.42
			C221.89,105.91,221.89,105.95,221.9,105.98z"/>
		<path class="st0" d="M220.85,102.5h1.16c0.29,0,0.52,0.23,0.52,0.52v1.4c0,0.29-0.23,0.52-0.52,0.52h-1.16
			c-0.29,0-0.52-0.23-0.52-0.52v-1.4C220.33,102.73,220.56,102.5,220.85,102.5z"/>
		<path class="st0" d="M252.2,122.05h1.98c1.66,0.11,3.09-1.14,3.21-2.8c0.01-0.14,0.01-0.28,0-0.42v-13.78
			c0.04-0.26-0.14-0.5-0.4-0.54c-0.04-0.01-0.08-0.01-0.11,0h-1.1c-0.26-0.03-0.49,0.16-0.52,0.42c0,0.04,0,0.08,0,0.11v13.78
			c0,0.77-0.3,1.08-1.08,1.1h-3.96c-0.55,0.07-1.07-0.23-1.29-0.73c0.36-0.73,0.56-1.53,0.56-2.34v-1.78
			c0.02-2.87-2.29-5.22-5.17-5.24c-1.4-0.01-2.75,0.55-3.74,1.54c-0.99,0.97-1.55,2.31-1.53,3.7v4.86h-9.05
			c-0.32,0-1.38,0-1.38-1.12v-7.98c0.02-0.27-0.18-0.51-0.45-0.54c-0.02,0-0.04,0-0.07,0h-1.18c-0.27-0.01-0.5,0.2-0.52,0.47
			c0,0.02,0,0.04,0,0.07v7.98c0,0.77-0.32,1.12-1.08,1.12h-1.42c-0.45,0.04-0.9-0.07-1.29-0.3c-0.1-0.13-0.14-0.29-0.13-0.45v-7.72
			c-0.02-0.26-0.25-0.45-0.51-0.43c0,0,0,0,0,0h-1.12c-0.25-0.03-0.47,0.15-0.5,0.4c0,0.04,0,0.08,0,0.12v7.35
			c0,0.77-0.32,1.12-1.08,1.12h-1.51c-0.45,0.05-0.9-0.07-1.27-0.32c-0.1-0.13-0.14-0.29-0.13-0.45v-8.41
			c0.01-0.28-0.21-0.53-0.49-0.54c-0.01,0-0.03,0-0.04,0h-1.12c-0.27,0-0.5,0.22-0.5,0.49c0,0.01,0,0.03,0,0.04v7.98
			c0,0.8-0.3,1.12-1.03,1.12h-8.17c-0.45,0.05-0.9-0.07-1.27-0.32c-0.11-0.12-0.16-0.29-0.15-0.45v-8.32
			c0.02-0.27-0.18-0.51-0.45-0.54c-0.02,0-0.04,0-0.07,0h-1.12c-0.27,0-0.5,0.22-0.5,0.49c0,0.01,0,0.03,0,0.04v7.98
			c0,0.77-0.32,1.12-1.03,1.12h-6.45v-9.07c0.01-0.28-0.21-0.53-0.49-0.54c-0.01,0-0.03,0-0.04,0h-0.95
			c-0.27-0.01-0.5,0.2-0.52,0.47c0,0.02,0,0.04,0,0.07v11.91c0,1.46-0.65,2.15-2.15,2.15h-1.18c-0.26-0.02-0.49,0.17-0.52,0.43
			c0,0.03,0,0.06,0,0.09v1.12c-0.02,0.26,0.17,0.49,0.43,0.52c0.03,0,0.06,0,0.09,0h1.18c2.18,0.2,4.1-1.4,4.3-3.58
			c0.02-0.24,0.02-0.48,0-0.72v-0.71h6.32c0.85,0.04,1.67-0.25,2.3-0.82c0.75,0.58,1.69,0.87,2.64,0.82h7.81
			c0.84,0.04,1.67-0.26,2.28-0.84c0.75,0.6,1.7,0.9,2.67,0.84h1.18c0.85,0.04,1.68-0.26,2.3-0.84c0.74,0.59,1.68,0.89,2.62,0.84
			h1.18c0.89,0.05,1.77-0.28,2.41-0.9c0.7,0.61,1.61,0.93,2.54,0.9h13.93c1.26,0.02,2.48-0.43,3.42-1.27
			c0.71,0.85,1.78,1.32,2.88,1.27h1.63H252.2z M247.34,115.06v1.78c-0.01,1.69-1.38,3.06-3.08,3.08h-3.08v-4.86
			c0-1.7,1.38-3.08,3.08-3.08S247.34,113.36,247.34,115.06z"/>
		<path class="st0" d="M261.34,104.57c-0.26-0.02-0.49,0.17-0.52,0.43c0,0.03,0,0.06,0,0.09v16.51c-0.02,0.26,0.17,0.49,0.43,0.52
			c0.03,0,0.06,0,0.09,0h1.14c0.26,0.01,0.48-0.19,0.5-0.45c0-0.02,0-0.04,0-0.07v-16.58c0.02-0.26-0.17-0.49-0.43-0.51
			c-0.02,0-0.04,0-0.07,0L261.34,104.57z"/>
		<path class="st0" d="M270.82,109.83c-2.85,0.06-5.15,2.37-5.18,5.23v1.78c0.02,2.87,2.35,5.19,5.23,5.2h3.05l0,0
			c-0.05,1.49-1.25,2.68-2.73,2.71h-2.47c-0.25-0.03-0.47,0.15-0.5,0.4c0,0.04,0,0.08,0,0.12v1.12c-0.04,0.25,0.13,0.48,0.38,0.51
			c0.04,0.01,0.08,0.01,0.12,0h2.47c1.3,0.01,2.54-0.51,3.44-1.44c0.94-0.89,1.46-2.13,1.44-3.42v-6.99
			c-0.01-2.87-2.33-5.2-5.2-5.23H270.82z M273.87,115.06v4.86h-3.05c-1.67-0.05-3.01-1.4-3.03-3.08v-1.78
			c-0.14-1.69,1.11-3.18,2.81-3.32c1.69-0.14,3.18,1.11,3.32,2.81c0.01,0.17,0.01,0.34,0,0.51L273.87,115.06z"/>
		<polygon class="st0" points="42.02,134.5 42.02,148.67 50.99,148.67 50.99,146.73 44.17,146.73 44.17,134.5 		"/>
		<path class="st0" d="M57.91,148.43c0.49-0.19,0.93-0.48,1.29-0.86c0.47-0.48,0.8-1.07,0.97-1.72c0.16-0.74,0.24-1.5,0.24-2.26
			c0-0.72-0.08-1.44-0.24-2.15c-0.29-1.14-1.08-2.09-2.15-2.58c-0.56-0.24-1.17-0.36-1.78-0.34c-0.61-0.02-1.22,0.1-1.78,0.34
			c-0.46,0.21-0.88,0.5-1.23,0.86c-0.47,0.48-0.79,1.07-0.95,1.72c-0.17,0.7-0.25,1.43-0.24,2.15c-0.02,0.76,0.06,1.52,0.24,2.26
			c0.16,0.65,0.48,1.24,0.95,1.72c0.35,0.36,0.77,0.64,1.23,0.84c0.56,0.25,1.17,0.36,1.78,0.34
			C56.81,148.76,57.38,148.65,57.91,148.43z M54.06,145.19c-0.07-0.52-0.11-1.04-0.11-1.57c0-0.53,0.04-1.05,0.11-1.57
			c0.06-0.45,0.26-0.87,0.58-1.2c0.83-0.79,2.14-0.79,2.97,0c0.32,0.33,0.52,0.75,0.58,1.2c0.09,0.52,0.13,1.04,0.13,1.57
			c0,0.53-0.04,1.05-0.13,1.57c-0.07,0.45-0.27,0.86-0.58,1.18c-0.38,0.41-0.93,0.63-1.48,0.6c-0.56,0.01-1.09-0.21-1.48-0.6
			C54.33,146.04,54.13,145.63,54.06,145.19z"/>
		<path class="st0" d="M68.11,148.43c0.56-0.25,1.07-0.62,1.48-1.08l-1.4-1.33c-0.26,0.29-0.56,0.54-0.9,0.73
			c-0.31,0.15-0.66,0.23-1.01,0.22c-0.74,0.04-1.44-0.3-1.87-0.9c-0.24-0.28-0.4-0.62-0.47-0.99c-0.09-0.48-0.14-0.97-0.13-1.46
			c-0.01-0.49,0.03-0.98,0.13-1.46c0.07-0.37,0.23-0.71,0.47-0.99c0.43-0.6,1.13-0.94,1.87-0.9c0.35,0,0.69,0.07,1.01,0.22
			c0.34,0.2,0.64,0.46,0.9,0.75l1.4-1.35c-0.41-0.46-0.92-0.84-1.48-1.1c-0.58-0.23-1.2-0.34-1.83-0.32
			c-0.57-0.01-1.14,0.09-1.68,0.28c-0.53,0.18-1.02,0.49-1.42,0.88c-0.45,0.45-0.8,0.99-1.01,1.59c-0.29,0.77-0.43,1.59-0.41,2.41
			c-0.03,0.81,0.11,1.63,0.41,2.39c0.21,0.61,0.56,1.16,1.01,1.61c0.4,0.4,0.88,0.71,1.42,0.88c0.54,0.19,1.11,0.28,1.68,0.28
			C66.9,148.8,67.53,148.68,68.11,148.43z"/>
		<path class="st0" d="M78.41,148.67v-6.75c0-2.3-1.4-3.46-4.17-3.46c-0.73-0.03-1.46,0.08-2.15,0.3c-0.61,0.25-1.14,0.65-1.55,1.16
			l1.33,1.25c0.23-0.32,0.54-0.58,0.9-0.75c0.42-0.16,0.86-0.24,1.31-0.22c0.6-0.05,1.2,0.11,1.7,0.45c0.36,0.38,0.54,0.9,0.49,1.42
			v0.73h-2.56c-0.95-0.08-1.89,0.21-2.62,0.82c-0.6,0.55-0.91,1.34-0.86,2.15c-0.03,0.79,0.26,1.57,0.8,2.15
			c0.31,0.3,0.69,0.54,1.1,0.69c0.51,0.16,1.05,0.23,1.59,0.22c0.53,0.02,1.05-0.06,1.55-0.24c0.43-0.18,0.82-0.46,1.14-0.8v0.92
			L78.41,148.67z M76.41,145.01c0.05,0.54-0.1,1.08-0.43,1.51c-0.23,0.25-0.53,0.42-0.86,0.47c-0.34,0.07-0.69,0.11-1.03,0.11
			c-0.5,0.04-0.99-0.1-1.4-0.39c-0.31-0.26-0.48-0.65-0.45-1.05c-0.03-0.41,0.14-0.81,0.45-1.08c0.4-0.28,0.87-0.41,1.35-0.39h2.37
			V145.01z"/>
		<path class="st0" d="M80.71,134.5v11.38c0,0.37,0.06,0.73,0.17,1.08c0.1,0.33,0.27,0.63,0.49,0.88c0.24,0.26,0.53,0.47,0.86,0.6
			c0.4,0.16,0.82,0.24,1.25,0.24h1.25v-1.74h-0.88c-0.32,0.05-0.64-0.06-0.86-0.3c-0.18-0.25-0.26-0.55-0.24-0.86V134.5H80.71z"/>
		<path class="st0" d="M92.15,138.58c0.03-0.29,0.12-0.56,0.26-0.82c0.11-0.22,0.25-0.42,0.41-0.6c0.26-0.27,0.58-0.48,0.92-0.62
			c0.37-0.16,0.78-0.24,1.18-0.24c0.7-0.03,1.38,0.22,1.89,0.69c0.49,0.47,0.82,1.08,0.97,1.74h2.15c-0.17-1.26-0.79-2.41-1.74-3.25
			c-0.94-0.75-2.11-1.15-3.31-1.12c-0.74-0.02-1.47,0.11-2.15,0.39c-0.62,0.27-1.18,0.66-1.66,1.14c-0.33,0.31-0.6,0.69-0.8,1.1
			c-0.19,0.39-0.33,0.81-0.41,1.25c-0.1,0.5-0.15,1-0.15,1.51c0,0.54,0,1.16,0,1.83c0,0.67,0,1.29,0,1.85
			c0,0.51,0.05,1.01,0.15,1.51c0.08,0.43,0.21,0.85,0.41,1.25c0.2,0.41,0.47,0.78,0.8,1.1c0.47,0.48,1.03,0.87,1.66,1.12
			c0.68,0.28,1.41,0.41,2.15,0.39c0.61,0.01,1.21-0.09,1.78-0.28c0.56-0.17,1.08-0.45,1.53-0.84c0.45-0.38,0.82-0.84,1.1-1.35
			c0.31-0.59,0.53-1.22,0.65-1.87h-2.02c-0.14,0.67-0.49,1.28-0.99,1.74c-0.52,0.47-1.2,0.71-1.89,0.67
			c-0.4,0.01-0.81-0.07-1.18-0.22c-0.35-0.14-0.66-0.36-0.92-0.62c-0.17-0.19-0.31-0.4-0.41-0.62c-0.14-0.25-0.22-0.52-0.26-0.8
			c-0.07-0.4-0.11-0.8-0.13-1.2c0-0.49,0-1.08,0-1.81s0-1.31,0-1.78C92.1,139.39,92.11,138.98,92.15,138.58z"/>
		<path class="st0" d="M108.53,139.66c-0.35-0.37-0.77-0.67-1.25-0.86c-0.55-0.25-1.16-0.36-1.76-0.34
			c-0.61-0.02-1.22,0.1-1.78,0.34c-0.46,0.21-0.88,0.5-1.23,0.86c-0.47,0.48-0.79,1.07-0.95,1.72c-0.18,0.7-0.26,1.43-0.26,2.15
			c-0.01,0.76,0.07,1.52,0.26,2.26c0.16,0.65,0.48,1.24,0.95,1.72c0.35,0.36,0.77,0.64,1.23,0.84c0.56,0.25,1.17,0.36,1.78,0.34
			c0.61,0.02,1.21-0.1,1.76-0.34c0.47-0.19,0.9-0.47,1.25-0.84c0.47-0.48,0.8-1.07,0.97-1.72c0.16-0.74,0.24-1.5,0.24-2.26
			c0-0.72-0.08-1.44-0.24-2.15C109.34,140.73,109,140.14,108.53,139.66z M107.59,145.19c-0.07,0.45-0.27,0.86-0.58,1.18
			c-0.39,0.4-0.93,0.62-1.48,0.6c-0.56,0.01-1.09-0.21-1.48-0.6c-0.31-0.32-0.52-0.74-0.58-1.18c-0.03-0.52-0.03-1.05,0-1.57
			c-0.04-0.52-0.04-1.05,0-1.57c0.06-0.45,0.26-0.87,0.58-1.2c0.83-0.79,2.14-0.79,2.97,0c0.32,0.33,0.52,0.75,0.58,1.2
			c0.08,0.52,0.12,1.04,0.11,1.57C107.7,144.14,107.67,144.67,107.59,145.19z"/>
		<path class="st0" d="M118.83,139.38c-0.31-0.3-0.68-0.53-1.08-0.69c-0.45-0.16-0.92-0.24-1.4-0.24c-0.5-0.01-1,0.09-1.46,0.28
			c-0.47,0.19-0.89,0.48-1.23,0.86v-1.01h-2v10.09h2.15v-6.15c-0.06-0.63,0.16-1.25,0.6-1.7c0.41-0.37,0.94-0.57,1.48-0.56
			c0.53,0,1.04,0.19,1.44,0.54c0.44,0.46,0.65,1.09,0.58,1.72v6.15h2.15v-6.45c0-0.53-0.08-1.06-0.24-1.57
			C119.63,140.14,119.28,139.7,118.83,139.38z"/>
		<path class="st0" d="M125.2,148.67h1.2v-1.74h-0.84c-0.31,0.03-0.62-0.08-0.84-0.3c-0.19-0.25-0.29-0.55-0.28-0.86v-5.46h1.96
			v-1.55h-1.96v-3.05h-2.02v3.05h-1.16v1.55h1.16v5.55c0,0.36,0.06,0.71,0.17,1.05c0.1,0.32,0.27,0.62,0.49,0.88
			c0.24,0.27,0.54,0.49,0.86,0.65C124.34,148.6,124.77,148.68,125.2,148.67z"/>
		<path class="st0" d="M136.14,143.27c0.01-0.67-0.08-1.34-0.28-1.98c-0.17-0.56-0.46-1.08-0.84-1.53
			c-0.37-0.42-0.82-0.76-1.33-0.99c-0.58-0.25-1.2-0.37-1.83-0.37c-1.19-0.04-2.34,0.46-3.12,1.35c-0.84,1.08-1.25,2.44-1.16,3.81
			c0,0.84,0.15,1.68,0.43,2.47c0.22,0.59,0.56,1.13,0.99,1.59c0.41,0.4,0.9,0.7,1.44,0.88c0.57,0.18,1.17,0.26,1.76,0.26
			c0.39,0.04,0.79,0.04,1.18,0c0.34-0.06,0.67-0.16,0.99-0.3c0.3-0.13,0.58-0.3,0.84-0.49c0.27-0.21,0.53-0.44,0.77-0.69l-1.29-1.2
			c-0.31,0.31-0.66,0.58-1.05,0.77c-0.44,0.19-0.92,0.28-1.4,0.26c-0.79,0.07-1.57-0.24-2.09-0.84c-0.47-0.61-0.7-1.38-0.65-2.15
			h6.45L136.14,143.27z M129.69,142.76c-0.02-0.25-0.02-0.5,0-0.75c0.1-0.62,0.45-1.18,0.97-1.55c0.36-0.24,0.79-0.36,1.23-0.34
			c0.44-0.02,0.88,0.1,1.25,0.34c0.34,0.22,0.6,0.55,0.75,0.92c0.1,0.2,0.17,0.41,0.22,0.62c0,0.19,0,0.45,0,0.75H129.69z"/>
		<path class="st0" d="M143.58,140.8c0.44,0.46,0.65,1.09,0.58,1.72v6.15h2.02v-6.45c0.01-0.53-0.06-1.06-0.22-1.57
			c-0.16-0.48-0.43-0.92-0.8-1.27c-0.31-0.3-0.68-0.53-1.08-0.69c-0.45-0.16-0.92-0.24-1.4-0.24c-0.5-0.01-1,0.09-1.46,0.28
			c-0.47,0.19-0.89,0.48-1.23,0.86v-1.01h-2v10.09h2.15v-6.15c-0.07-1.11,0.77-2.08,1.88-2.15c0.09-0.01,0.18-0.01,0.27,0
			C142.77,140.37,143.22,140.52,143.58,140.8z"/>
		<path class="st0" d="M150.79,135.7h-2.02v3.05h-1.16v1.55h1.16v5.55c-0.01,0.36,0.05,0.72,0.17,1.05c0.1,0.32,0.27,0.62,0.49,0.88
			c0.24,0.27,0.54,0.49,0.86,0.65c0.39,0.16,0.81,0.24,1.23,0.24h1.23v-1.74h-0.84c-0.31,0.03-0.62-0.08-0.84-0.3
			c-0.2-0.24-0.3-0.55-0.28-0.86v-5.46h1.96v-1.55h-1.96L150.79,135.7z"/>
		<path class="st0" d="M167.9,148.67h2.6l-2.37-2.84c0.48-0.56,0.83-1.21,1.03-1.91c0.24-0.79,0.36-1.61,0.37-2.43h-1.94
			c-0.01,0.55-0.08,1.1-0.19,1.63c-0.11,0.43-0.3,0.84-0.56,1.2l-2.99-3.57l0.41-0.28l0.43-0.3l0.19-0.13
			c0.43-0.28,0.8-0.64,1.1-1.05c0.28-0.43,0.42-0.93,0.41-1.44c0.01-0.43-0.07-0.87-0.24-1.27c-0.15-0.38-0.39-0.72-0.69-0.99
			c-0.3-0.3-0.66-0.53-1.05-0.67c-0.44-0.18-0.9-0.26-1.38-0.26c-0.49-0.01-0.98,0.08-1.44,0.26c-0.4,0.14-0.76,0.36-1.08,0.65
			c-0.3,0.27-0.54,0.61-0.69,0.99c-0.17,0.4-0.26,0.83-0.26,1.27c0,0.31,0.04,0.62,0.13,0.92c0.1,0.27,0.22,0.54,0.37,0.8
			c0.14,0.25,0.3,0.49,0.47,0.71l0.49,0.6l-1.01,0.73c-0.33,0.26-0.63,0.56-0.9,0.88c-0.27,0.32-0.49,0.68-0.65,1.08
			c-0.16,0.42-0.24,0.86-0.24,1.31c-0.04,1.12,0.39,2.22,1.18,3.01c0.94,0.81,2.16,1.22,3.4,1.14c0.48,0.01,0.95-0.04,1.42-0.15
			c0.38-0.09,0.75-0.23,1.1-0.41c0.29-0.13,0.56-0.3,0.82-0.49l0.58-0.45L167.9,148.67z M162.01,136.54
			c0.28-0.26,0.65-0.4,1.03-0.39c0.39-0.02,0.76,0.13,1.03,0.41c0.26,0.26,0.4,0.62,0.39,0.99c0.01,0.32-0.11,0.63-0.32,0.86
			c-0.21,0.24-0.44,0.45-0.71,0.62h-0.13l-0.28,0.19l-0.28,0.17c-0.3-0.34-0.57-0.7-0.82-1.08c-0.17-0.26-0.27-0.55-0.28-0.86
			C161.66,137.13,161.79,136.8,162.01,136.54z M164.16,146.71c-0.44,0.15-0.89,0.22-1.35,0.22c-0.68,0.03-1.34-0.21-1.85-0.67
			c-0.5-0.44-0.77-1.08-0.73-1.74c0-0.29,0.05-0.58,0.15-0.86c0.1-0.25,0.25-0.48,0.43-0.69c0.18-0.21,0.38-0.41,0.6-0.58l0.73-0.56
			l3.38,4c-0.39,0.37-0.84,0.67-1.33,0.88H164.16z"/>
		<path class="st0" d="M183.13,148.41c0.69-0.28,1.3-0.7,1.81-1.25c0.45-0.48,0.78-1.05,0.97-1.68c0.21-0.72,0.31-1.47,0.3-2.21
			v-2.15h-5.18v1.83h3.03v0.8c0,0.41-0.06,0.83-0.17,1.23c-0.1,0.37-0.28,0.71-0.54,0.99c-0.28,0.32-0.64,0.57-1.03,0.73
			c-0.41,0.18-0.85,0.26-1.29,0.26c-0.4,0.01-0.79-0.07-1.16-0.22c-0.35-0.14-0.66-0.36-0.92-0.62c-0.17-0.18-0.32-0.39-0.43-0.62
			c-0.12-0.25-0.21-0.52-0.26-0.8c-0.07-0.4-0.11-0.8-0.13-1.2c0-0.49,0-1.08,0-1.81s0-1.31,0-1.76c0.01-0.4,0.06-0.81,0.13-1.2
			c0.05-0.28,0.14-0.56,0.26-0.82c0.12-0.22,0.26-0.42,0.43-0.6c0.27-0.27,0.58-0.49,0.92-0.65c1.04-0.43,2.22-0.27,3.12,0.41
			c0.52,0.49,0.88,1.13,1.03,1.83h2.15c-0.11-0.6-0.3-1.17-0.56-1.72c-0.26-0.52-0.62-0.99-1.05-1.38
			c-0.44-0.42-0.96-0.74-1.53-0.95c-0.64-0.25-1.33-0.37-2.02-0.37c-0.74-0.03-1.47,0.11-2.15,0.39c-0.62,0.27-1.19,0.66-1.68,1.14
			c-0.32,0.32-0.59,0.69-0.8,1.1c-0.18,0.4-0.32,0.82-0.41,1.25c-0.09,0.5-0.14,1-0.15,1.51c0,0.54,0,1.16,0,1.83
			c0,0.67,0,1.29,0,1.85c0.01,0.5,0.06,1.01,0.15,1.51c0.09,0.43,0.22,0.85,0.41,1.25c0.21,0.41,0.47,0.78,0.8,1.1
			c0.48,0.48,1.05,0.86,1.68,1.12c0.68,0.28,1.41,0.41,2.15,0.39C181.73,148.86,182.45,148.7,183.13,148.41z"/>
		<path class="st0" d="M196.03,141.38c-0.29-1.14-1.08-2.09-2.15-2.58c-0.56-0.24-1.17-0.36-1.78-0.34
			c-0.61-0.02-1.22,0.1-1.78,0.34c-0.46,0.21-0.88,0.5-1.23,0.86c-0.47,0.48-0.79,1.07-0.95,1.72c-0.17,0.7-0.25,1.43-0.24,2.15
			c-0.02,0.76,0.06,1.52,0.24,2.26c0.16,0.65,0.48,1.24,0.95,1.72c0.35,0.36,0.77,0.64,1.23,0.84c0.56,0.25,1.17,0.36,1.78,0.34
			c0.61,0.01,1.22-0.1,1.78-0.34c0.46-0.19,0.88-0.48,1.23-0.84c0.47-0.48,0.8-1.07,0.97-1.72c0.16-0.74,0.24-1.5,0.24-2.26
			C196.3,142.81,196.2,142.08,196.03,141.38z M194.12,145.19c-0.07,0.45-0.27,0.86-0.58,1.18c-0.39,0.4-0.93,0.62-1.48,0.6
			c-0.56,0.01-1.09-0.21-1.48-0.6c-0.31-0.32-0.52-0.74-0.58-1.18c-0.03-0.52-0.03-1.05,0-1.57c-0.04-0.52-0.04-1.05,0-1.57
			c0.06-0.45,0.26-0.87,0.58-1.2c0.83-0.79,2.14-0.79,2.97,0c0.32,0.33,0.52,0.75,0.58,1.2c0.08,0.52,0.12,1.04,0.11,1.57
			C194.23,144.14,194.2,144.67,194.12,145.19z"/>
		<polygon class="st0" points="201.1,145.68 198.72,138.58 196.57,138.58 200.27,148.67 201.92,148.67 205.62,138.58 203.47,138.58 
					"/>
		<path class="st0" d="M213.32,139.81c-0.37-0.42-0.82-0.76-1.33-0.99c-0.58-0.25-1.2-0.37-1.83-0.37
			c-1.19-0.04-2.34,0.46-3.12,1.35c-0.84,1.08-1.25,2.44-1.16,3.81c-0.02,0.82,0.09,1.64,0.34,2.43c0.22,0.59,0.56,1.13,0.99,1.59
			c0.41,0.4,0.9,0.7,1.44,0.88c0.57,0.18,1.17,0.26,1.76,0.26c0.4,0.04,0.8,0.04,1.2,0c0.33-0.06,0.66-0.17,0.97-0.3
			c0.3-0.13,0.58-0.3,0.84-0.49c0.27-0.21,0.53-0.44,0.77-0.69l-1.29-1.2c-0.31,0.31-0.66,0.58-1.05,0.77
			c-0.44,0.19-0.92,0.28-1.4,0.26c-0.71,0.05-1.41-0.23-1.89-0.75c-0.49-0.6-0.73-1.37-0.67-2.15h6.45v-0.95
			c0.01-0.67-0.08-1.34-0.28-1.98C213.92,140.75,213.66,140.25,213.32,139.81z M207.9,142.8c0-0.3,0-0.56,0-0.75
			c0.1-0.62,0.45-1.18,0.97-1.55c0.36-0.24,0.79-0.36,1.23-0.34c0.44-0.02,0.88,0.1,1.25,0.34c0.34,0.22,0.6,0.55,0.75,0.92
			c0.1,0.2,0.17,0.41,0.22,0.62c0,0.19,0,0.45,0,0.75H207.9z"/>
		<path class="st0" d="M216.31,138.58v10.09h2.15v-6.13c-0.03-0.61,0.17-1.22,0.58-1.68c0.37-0.39,0.88-0.6,1.42-0.6
			c0.29-0.01,0.58,0.05,0.84,0.17c0.25,0.13,0.48,0.3,0.67,0.52l1.55-1.53c-0.3-0.33-0.68-0.59-1.1-0.75
			c-0.42-0.15-0.86-0.23-1.31-0.22c-0.54-0.01-1.08,0.11-1.57,0.34c-0.45,0.18-0.83,0.49-1.12,0.88v-1.1L216.31,138.58z"/>
		<path class="st0" d="M232.44,148.67v-6.45c0-0.53-0.08-1.06-0.24-1.57c-0.15-0.49-0.42-0.92-0.8-1.27
			c-0.31-0.3-0.68-0.53-1.08-0.69c-0.45-0.16-0.92-0.24-1.4-0.24c-0.5-0.01-1,0.09-1.46,0.28c-0.47,0.19-0.89,0.48-1.23,0.86v-1.01
			h-2v10.09h2.15v-6.15c-0.06-0.63,0.16-1.25,0.6-1.7c0.41-0.37,0.94-0.57,1.48-0.56c0.53,0,1.04,0.19,1.44,0.54
			c0.44,0.46,0.65,1.09,0.58,1.72v6.15H232.44z"/>
		<path class="st0" d="M244.13,140.39c0.26-0.09,0.53-0.13,0.8-0.13c0.53,0,1.04,0.19,1.44,0.54c0.45,0.46,0.67,1.09,0.6,1.72v6.15
			h2.02v-6.45c0.01-0.53-0.08-1.07-0.26-1.57c-0.17-0.48-0.45-0.92-0.82-1.27c-0.32-0.31-0.7-0.54-1.12-0.69
			c-0.46-0.16-0.94-0.24-1.42-0.24c-1.23-0.03-2.41,0.52-3.18,1.48c-0.61-0.98-1.71-1.55-2.86-1.48c-0.5,0-1,0.11-1.46,0.3
			c-0.47,0.18-0.89,0.47-1.23,0.84v-1.01h-1.98v10.09h2.02v-6.15c-0.06-1.13,0.8-2.09,1.93-2.15c0.07,0,0.15,0,0.22,0
			c0.53,0,1.04,0.19,1.44,0.54c0.45,0.46,0.67,1.09,0.6,1.72v6.15h2.02v-6.37c0-0.32,0.06-0.64,0.17-0.95
			c0.1-0.25,0.25-0.48,0.45-0.67C243.7,140.62,243.91,140.48,244.13,140.39z"/>
		<path class="st0" d="M258.35,139.81c-0.37-0.43-0.83-0.77-1.35-0.99c-0.57-0.25-1.19-0.37-1.81-0.37
			c-1.19-0.05-2.34,0.45-3.12,1.35c-0.86,1.08-1.28,2.43-1.18,3.81c-0.02,0.82,0.11,1.65,0.37,2.43c0.2,0.59,0.53,1.14,0.97,1.59
			c0.41,0.4,0.9,0.7,1.44,0.88c0.58,0.18,1.18,0.26,1.78,0.26c0.39,0.04,0.79,0.04,1.18,0c0.33-0.06,0.66-0.17,0.97-0.3
			c0.3-0.13,0.58-0.3,0.84-0.49c0.26-0.19,0.52-0.43,0.8-0.69l-1.29-1.2c-0.31,0.32-0.68,0.58-1.08,0.77
			c-0.43,0.19-0.9,0.28-1.38,0.26c-0.72,0.05-1.42-0.23-1.91-0.75c-0.48-0.61-0.72-1.38-0.67-2.15h6.45v-0.95
			c0-0.67-0.1-1.34-0.3-1.98C258.91,140.76,258.67,140.26,258.35,139.81z M252.91,142.8c0-0.3,0-0.56,0-0.75
			c0.04-0.22,0.1-0.42,0.19-0.62c0.36-0.79,1.15-1.29,2.02-1.27c0.43-0.01,0.86,0.11,1.23,0.34c0.5,0.38,0.84,0.93,0.97,1.55
			c0.03,0.25,0.03,0.5,0,0.75H252.91z"/>
		<path class="st0" d="M269.51,148.67v-6.45c0.01-0.53-0.06-1.06-0.22-1.57c-0.16-0.48-0.43-0.92-0.8-1.27
			c-0.31-0.3-0.69-0.54-1.1-0.69c-0.45-0.16-0.92-0.24-1.4-0.24c-0.5,0-1,0.09-1.46,0.28c-0.47,0.19-0.89,0.48-1.23,0.86v-1.01
			h-1.98v10.09h2.02v-6.15c-0.06-1.13,0.8-2.09,1.93-2.15c0.07,0,0.15,0,0.22,0c0.53,0,1.04,0.19,1.44,0.54
			c0.45,0.46,0.67,1.09,0.6,1.72v6.15L269.51,148.67z"/>
		<path class="st0" d="M276.04,140.3v-1.55h-1.94v-3.05h-2.15v3.05h-1.14v1.55h1.27v5.55c0,0.36,0.06,0.71,0.17,1.05
			c0.1,0.33,0.28,0.63,0.52,0.88c0.24,0.28,0.53,0.5,0.86,0.65c0.39,0.16,0.81,0.24,1.23,0.24h1.2v-1.74h-0.84
			c-0.31,0.02-0.61-0.09-0.84-0.3c-0.18-0.25-0.27-0.55-0.26-0.86v-5.46H276.04z"/>
		<path class="st0" d="M50.6,156.17c-0.41-0.38-0.89-0.68-1.42-0.88c-0.59-0.22-1.22-0.33-1.85-0.32H42v14.11h2.15v-5.5h3.2
			c0.63,0.01,1.26-0.1,1.85-0.32c0.52-0.2,1-0.51,1.4-0.9c0.4-0.37,0.72-0.82,0.92-1.33c0.2-0.55,0.3-1.13,0.3-1.72
			c0-0.58-0.1-1.15-0.3-1.7C51.33,157.06,51.01,156.57,50.6,156.17z M49.01,160.97c-0.5,0.42-1.15,0.64-1.81,0.6h-3.05v-4.62h3.08
			c0.66-0.04,1.3,0.18,1.81,0.6c0.91,0.98,0.91,2.5,0,3.48L49.01,160.97z"/>
		<path class="st0" d="M60.45,158.97c-0.54-0.01-1.08,0.1-1.57,0.32c-0.44,0.2-0.82,0.5-1.12,0.88v-1.1h-1.98v10h2.02v-6.06
			c-0.03-0.61,0.18-1.2,0.58-1.66c0.37-0.39,0.88-0.6,1.42-0.6c0.29-0.01,0.58,0.05,0.84,0.17c0.25,0.13,0.48,0.3,0.67,0.52
			l1.53-1.53c-0.31-0.32-0.68-0.57-1.1-0.73C61.33,159.03,60.89,158.96,60.45,158.97z"/>
		<path class="st0" d="M72.11,160.15c-0.35-0.36-0.77-0.65-1.23-0.86c-0.57-0.23-1.17-0.34-1.78-0.32c-0.6-0.02-1.2,0.09-1.76,0.32
			c-0.45,0.22-0.87,0.51-1.23,0.86c-0.45,0.48-0.78,1.06-0.95,1.7c-0.16,0.71-0.24,1.43-0.24,2.15c0,0.72,0.08,1.44,0.24,2.15
			c0.16,0.64,0.49,1.24,0.95,1.72c0.35,0.35,0.77,0.64,1.23,0.84c0.55,0.25,1.16,0.36,1.76,0.34c0.61,0.02,1.22-0.1,1.78-0.34
			c0.46-0.19,0.88-0.48,1.23-0.84c0.47-0.48,0.79-1.07,0.95-1.72c0.17-0.7,0.25-1.43,0.24-2.15c0.01-0.72-0.07-1.45-0.24-2.15
			C72.89,161.21,72.57,160.62,72.11,160.15z M71.16,165.66c-0.07,0.45-0.27,0.86-0.58,1.18c-0.83,0.78-2.12,0.78-2.95,0
			c-0.3-0.33-0.5-0.74-0.56-1.18c-0.17-1.04-0.17-2.1,0-3.14c0.06-0.44,0.25-0.86,0.56-1.18c0.83-0.78,2.12-0.78,2.95,0
			c0.31,0.32,0.52,0.74,0.58,1.18C71.3,163.56,71.3,164.62,71.16,165.66z"/>
		<path class="st0" d="M79.72,161.66c0.43-0.6,1.13-0.94,1.87-0.9c0.35,0,0.7,0.08,1.01,0.24c0.34,0.19,0.65,0.43,0.9,0.73
			l1.38-1.35c-0.42-0.46-0.92-0.82-1.48-1.08c-0.57-0.23-1.19-0.34-1.81-0.32c-0.56-0.01-1.12,0.09-1.66,0.28
			c-0.54,0.18-1.02,0.48-1.42,0.88c-0.45,0.44-0.8,0.98-1.01,1.57c-0.28,0.76-0.41,1.57-0.39,2.39c-0.02,0.81,0.11,1.62,0.39,2.39
			c0.22,0.6,0.56,1.14,1.01,1.59c0.4,0.4,0.88,0.71,1.42,0.88c0.53,0.19,1.09,0.28,1.66,0.28c0.62,0.02,1.24-0.1,1.81-0.34
			c0.56-0.25,1.07-0.62,1.48-1.08l-1.38-1.33c-0.25,0.3-0.56,0.54-0.9,0.73c-0.31,0.15-0.66,0.23-1.01,0.22
			c-0.73,0.04-1.44-0.29-1.87-0.88c-0.22-0.29-0.38-0.63-0.45-0.99c-0.17-0.97-0.17-1.96,0-2.92
			C79.35,162.27,79.5,161.94,79.72,161.66z"/>
		<path class="st0" d="M94.81,165.18c0,0.34-0.05,0.69-0.17,1.01c-0.1,0.27-0.25,0.51-0.45,0.71c-0.18,0.18-0.4,0.31-0.65,0.39
			c-0.26,0.09-0.54,0.13-0.82,0.13c-0.52,0.01-1.02-0.18-1.42-0.52c-0.44-0.46-0.65-1.09-0.58-1.72v-6.11h-2.02v6.45
			c-0.01,0.52,0.06,1.05,0.22,1.55c0.16,0.49,0.43,0.93,0.8,1.29c0.31,0.3,0.67,0.52,1.08,0.67c0.45,0.16,0.92,0.24,1.4,0.24
			c0.49,0,0.98-0.09,1.44-0.28c0.47-0.18,0.89-0.47,1.23-0.84v0.92h1.98v-10h-2.02V165.18z"/>
		<path class="st0" d="M106.25,158.97c-0.53-0.01-1.06,0.1-1.55,0.32c-0.44,0.2-0.82,0.5-1.12,0.88v-1.1h-1.98v10h2.02v-6.06
			c-0.03-0.61,0.18-1.2,0.58-1.66c0.37-0.39,0.88-0.6,1.42-0.6c0.29-0.01,0.58,0.05,0.84,0.17c0.25,0.13,0.48,0.3,0.67,0.52
			l1.53-1.53c-0.31-0.32-0.68-0.57-1.1-0.73C107.14,159.03,106.7,158.96,106.25,158.97z"/>
		<path class="st0" d="M118.14,160.3c-0.37-0.42-0.83-0.75-1.33-0.99c-0.54-0.23-1.12-0.34-1.7-0.34c-1.18-0.06-2.32,0.44-3.1,1.33
			c-0.86,1.07-1.29,2.42-1.2,3.78c-0.02,0.82,0.11,1.63,0.37,2.41c0.2,0.6,0.53,1.14,0.97,1.59c0.41,0.4,0.9,0.7,1.44,0.88
			c0.57,0.18,1.17,0.26,1.76,0.26c0.39,0.03,0.79,0.03,1.18,0c0.33-0.06,0.66-0.15,0.97-0.28c0.29-0.13,0.57-0.3,0.82-0.49
			c0.28-0.21,0.55-0.44,0.8-0.69l-1.29-1.2c-0.31,0.32-0.66,0.59-1.05,0.8c-0.44,0.17-0.91,0.25-1.38,0.24
			c-0.72,0.04-1.42-0.23-1.91-0.75c-0.46-0.58-0.69-1.31-0.65-2.04h6.45v-0.9c0-0.66-0.1-1.32-0.3-1.96
			C118.82,161.34,118.54,160.78,118.14,160.3z M112.75,163.27c0-0.3,0-0.54,0-0.73c0.1-0.62,0.45-1.18,0.97-1.55
			c0.75-0.46,1.7-0.46,2.45,0c0.34,0.22,0.6,0.55,0.75,0.92c0.15,0.22,0.26,0.46,0.34,0.71c0,0.19,0,0.43,0,0.73L112.75,163.27z"/>
		<path class="st0" d="M136.62,159.87c-0.32-0.3-0.69-0.52-1.1-0.67c-0.46-0.17-0.95-0.25-1.44-0.24c-1.22-0.04-2.39,0.5-3.14,1.46
			c-0.61-0.97-1.7-1.53-2.84-1.46c-0.5-0.01-1,0.09-1.46,0.28c-0.46,0.19-0.88,0.47-1.23,0.84v-1.01h-1.91v10h2v-6.09
			c-0.06-1.13,0.8-2.09,1.93-2.15c0.07,0,0.15,0,0.22,0c0.53,0,1.04,0.19,1.44,0.54c0.43,0.45,0.64,1.07,0.58,1.7v6h2.02v-6.17
			c-0.01-0.32,0.04-0.64,0.15-0.95c0.11-0.25,0.26-0.47,0.45-0.67c0.19-0.18,0.42-0.32,0.67-0.41c0.26-0.09,0.53-0.13,0.8-0.13
			c0.53,0,1.04,0.19,1.44,0.54c0.43,0.45,0.64,1.07,0.58,1.7v6.09h2.02v-6.45c0.01-0.53-0.08-1.07-0.26-1.57
			C137.33,160.6,137.01,160.19,136.62,159.87z"/>
		<path class="st0" d="M149.3,160.3c-0.37-0.42-0.82-0.76-1.33-0.99c-0.57-0.24-1.19-0.36-1.81-0.34c-1.18-0.06-2.32,0.44-3.1,1.33
			c-0.84,1.08-1.25,2.42-1.16,3.78c-0.02,0.82,0.09,1.63,0.34,2.41c0.21,0.59,0.55,1.14,0.99,1.59c0.4,0.4,0.88,0.7,1.42,0.88
			c0.57,0.18,1.17,0.26,1.76,0.26c0.39,0.04,0.79,0.04,1.18,0c0.33-0.06,0.66-0.15,0.97-0.28c0.3-0.13,0.58-0.3,0.84-0.49
			c0.28-0.2,0.54-0.44,0.77-0.69l-1.29-1.2c-0.3,0.32-0.66,0.59-1.05,0.8c-0.44,0.17-0.91,0.25-1.38,0.24
			c-0.71,0.04-1.4-0.23-1.89-0.75c-0.46-0.58-0.69-1.31-0.65-2.04h6.45v-0.9c0.01-0.66-0.08-1.32-0.28-1.96
			C149.95,161.34,149.68,160.78,149.3,160.3z M143.93,163.27c-0.01-0.24-0.01-0.49,0-0.73c0.05-0.22,0.12-0.43,0.22-0.62
			c0.15-0.38,0.41-0.7,0.75-0.92c0.36-0.24,0.79-0.36,1.23-0.34c0.43-0.01,0.86,0.11,1.23,0.34c0.5,0.38,0.84,0.93,0.97,1.55
			c0.03,0.24,0.03,0.49,0,0.73H143.93z"/>
		<path class="st0" d="M161.77,159.87c-0.31-0.29-0.68-0.52-1.08-0.67c-0.45-0.17-0.92-0.25-1.4-0.24c-0.5,0-1,0.09-1.46,0.28
			c-0.46,0.18-0.88,0.47-1.2,0.84v-1.01h-1.98v10h2.02v-6.09c-0.09-1.1,0.74-2.06,1.84-2.15c0.1-0.01,0.21-0.01,0.31,0
			c0.53,0,1.04,0.19,1.44,0.54c0.43,0.45,0.64,1.07,0.58,1.7v6h2.02v-6.45c0.01-0.53-0.06-1.06-0.22-1.57
			C162.46,160.6,162.16,160.19,161.77,159.87z"/>
		<path class="st0" d="M169.73,156.17h-2.02v3.03h-1.14v1.55h1.14v5.53c0,0.35,0.06,0.7,0.17,1.03c0.1,0.33,0.27,0.64,0.49,0.9
			c0.25,0.25,0.54,0.46,0.86,0.6c0.38,0.18,0.8,0.27,1.23,0.26h1.2v-1.72h-0.84c-0.31,0.03-0.62-0.09-0.84-0.32
			c-0.19-0.25-0.28-0.55-0.26-0.86v-5.38h1.94v-1.55h-1.94L169.73,156.17z"/>
		<path class="st0" d="M185.86,155.03l-5.16,14.04h2.28l0.95-2.8h5.55l1.01,2.8h2.15l-5.16-14.08L185.86,155.03z M184.57,164.47
			l2.15-6.24l2.15,6.24H184.57z"/>
		<path class="st0" d="M202.35,165.18c0.02,0.35-0.04,0.69-0.17,1.01c-0.1,0.26-0.25,0.5-0.43,0.71c-0.19,0.17-0.42,0.31-0.67,0.39
			c-0.26,0.09-0.53,0.13-0.8,0.13c-0.53,0.01-1.04-0.17-1.44-0.52c-0.44-0.46-0.65-1.09-0.58-1.72v-6.11h-2.02v6.45
			c-0.01,0.52,0.06,1.05,0.22,1.55c0.16,0.49,0.43,0.93,0.8,1.29c0.31,0.29,0.68,0.52,1.08,0.67c0.45,0.16,0.92,0.24,1.4,0.24
			c0.5,0,1-0.09,1.46-0.28c0.46-0.19,0.87-0.47,1.2-0.84v0.92h1.98v-10h-2.02V165.18z"/>
		<path class="st0" d="M211.66,156.17h-1.94v3.03h-1.16v1.55h1.16v5.53c0,0.35,0.05,0.7,0.15,1.03c0.21,0.67,0.71,1.22,1.35,1.51
			c0.38,0.18,0.8,0.27,1.23,0.26h1.23v-1.72h-0.84c-0.31,0.03-0.62-0.09-0.84-0.32c-0.19-0.24-0.29-0.55-0.28-0.86v-5.38h1.96v-1.55
			h-2.02V156.17z"/>
		<path class="st0" d="M225.21,159.98c-0.31-0.33-0.68-0.59-1.1-0.75c-0.47-0.18-0.98-0.27-1.48-0.26
			c-0.49-0.01-0.97,0.09-1.42,0.28c-0.45,0.18-0.86,0.47-1.18,0.84v-5.05h-2v14.04h2v-6.13c-0.04-0.61,0.17-1.22,0.6-1.66
			c0.4-0.35,0.91-0.54,1.44-0.54c0.53,0,1.04,0.19,1.44,0.54c0.42,0.44,0.63,1.05,0.58,1.66v6.13h2.02v-6.45
			c0-0.51-0.08-1.02-0.24-1.51C225.74,160.7,225.51,160.31,225.21,159.98z"/>
		<path class="st0" d="M237.68,160.15c-0.36-0.36-0.79-0.65-1.25-0.86c-1.14-0.43-2.39-0.43-3.53,0c-0.46,0.21-0.87,0.5-1.23,0.86
			c-0.46,0.47-0.79,1.06-0.95,1.7c-0.17,0.7-0.25,1.43-0.24,2.15c-0.01,0.72,0.07,1.45,0.24,2.15c0.15,0.65,0.48,1.24,0.95,1.72
			c0.35,0.36,0.76,0.65,1.23,0.84c1.13,0.46,2.4,0.46,3.53,0c0.47-0.2,0.89-0.48,1.25-0.84c0.46-0.48,0.78-1.08,0.95-1.72
			c0.16-0.71,0.24-1.43,0.24-2.15c0-0.72-0.08-1.44-0.24-2.15C238.46,161.21,238.14,160.63,237.68,160.15z M236.71,165.66
			c-0.06,0.44-0.25,0.86-0.56,1.18c-0.4,0.38-0.93,0.58-1.48,0.58c-0.48-0.01-0.93-0.18-1.29-0.49c-0.31-0.32-0.52-0.74-0.58-1.18
			c-0.17-1.04-0.17-2.1,0-3.14c0.05-0.48,0.25-0.92,0.58-1.27c0.38-0.39,0.91-0.6,1.46-0.58c0.55-0.02,1.09,0.19,1.48,0.58
			c0.3,0.33,0.5,0.74,0.56,1.18c0.17,1.04,0.17,2.1,0,3.14H236.71z"/>
		<path class="st0" d="M248.15,158.97c-0.53-0.01-1.06,0.1-1.55,0.32c-0.44,0.2-0.82,0.5-1.12,0.88v-1.1h-1.98v10h2.02v-6.06
			c-0.03-0.61,0.18-1.2,0.58-1.66c0.37-0.39,0.88-0.6,1.42-0.6c0.29-0.01,0.58,0.05,0.84,0.17c0.25,0.14,0.47,0.31,0.67,0.52
			l1.53-1.53c-0.31-0.32-0.68-0.57-1.1-0.73C249.05,159.03,248.6,158.96,248.15,158.97z"/>
		<rect x="253.98" y="154.97" class="st0" width="2.13" height="2.13"/>
		<rect x="254.03" y="159.08" class="st0" width="2.02" height="10.02"/>
		<path class="st0" d="M263.36,156.17h-2.02v3.03h-1.16v1.55h1.16v5.53c-0.01,0.35,0.05,0.7,0.17,1.03c0.1,0.33,0.27,0.64,0.49,0.9
			c0.24,0.26,0.53,0.46,0.86,0.6c0.38,0.18,0.8,0.27,1.23,0.26h1.2v-1.72h-0.84c-0.31,0.03-0.62-0.09-0.84-0.32
			c-0.19-0.25-0.28-0.55-0.26-0.86v-5.38h1.94v-1.55h-1.94V156.17z"/>
		<path class="st0" d="M275.12,159.08l-2.34,7.07l-2.39-7.07h-2.15l3.48,9.57l-0.54,1.57c-0.09,0.32-0.27,0.61-0.52,0.84
			c-0.28,0.18-0.6,0.26-0.92,0.24h-0.52v1.78h0.8c0.38,0,0.75-0.05,1.12-0.15c0.36-0.11,0.68-0.31,0.95-0.58
			c0.33-0.36,0.58-0.78,0.73-1.25l4.43-12.02H275.12z"/>
		<path class="st0" d="M343.48,112.63h-7.27c-3.67,0-6.64-2.97-6.64-6.64h14.04l-10.04-10.02c2.33-1.39,5.19-1.6,7.7-0.56
			c1.04,0.43,1.97,1.07,2.75,1.87l5.31,5.14l5.23-5.2c2.75-2.88,7.14-3.45,10.54-1.38l-10.04,10.09h7.35c3.67,0,6.64,2.97,6.64,6.64
			h-13.89l10.75,10.64c-1.35,0.62-2.82,0.95-4.3,0.95c-2.66,0.01-5.22-1.04-7.1-2.92l-5.1-5.1l-5.1,5.1
			c-1.89,1.88-4.45,2.93-7.12,2.92c-1.49,0-2.95-0.32-4.3-0.95L343.48,112.63z"/>
		<path class="st0" d="M357.16,147.57c-4.96-8.24-12.23-14.85-20.9-19.01c-3.69-1.81-8.12-1.07-11.01,1.85l-0.75,0.75
			c1.46,0.39,2.89,0.86,4.3,1.4c10.03,3.8,18.29,11.2,23.18,20.75h7.76c1.08,0,2.11-0.41,2.9-1.14c2.24-2.12,4.71-3.99,7.35-5.57
			c2.25-1.38,3.62-3.82,3.63-6.45v-3.33c-6.18,2.46-11.81,6.11-16.58,10.75"/>
		<path class="st1" d="M357.2,73.71L357.2,73.71c-1.54,2.66-4.95,3.57-7.61,2.02l-8.6-4.95c1.53-2.65,4.93-3.56,7.58-2.03
			c0,0,0.01,0,0.01,0.01L357.2,73.71z"/>
		<path class="st1" d="M341.24,73.66L341.24,73.66c-0.62,3-3.56,4.93-6.56,4.31c-0.02,0-0.03-0.01-0.05-0.01l-9.68-2.15
			c0.65-3,3.59-4.92,6.6-4.3L341.24,73.66z"/>
		<path class="st1" d="M326.08,78.55L326.08,78.55c0.31,3.06-1.91,5.79-4.97,6.11l-9.85,1.05c-0.31-3.06,1.91-5.8,4.97-6.13
			L326.08,78.55z"/>
		<path class="st1" d="M313.16,87.88L313.16,87.88c1.25,2.81-0.02,6.1-2.83,7.35c0,0-0.01,0-0.01,0l-9.03,4.02
			c-1.25-2.81,0.01-6.1,2.82-7.35L313.16,87.88z"/>
		<path class="st1" d="M303.74,100.76L303.74,100.76c2.05,2.27,1.88,5.78-0.39,7.84c0,0-0.01,0.01-0.01,0.01l-7.35,6.71
			c-2.05-2.27-1.88-5.78,0.39-7.84c0,0,0.01-0.01,0.01-0.01L303.74,100.76z"/>
		<path class="st1" d="M298.8,115.9L298.8,115.9c2.65,1.53,3.56,4.93,2.03,7.58c0,0,0,0.01-0.01,0.01l-4.95,8.6
			c-2.68-1.48-3.66-4.85-2.18-7.54c0.01-0.02,0.02-0.04,0.03-0.05L298.8,115.9z"/>
		<path class="st1" d="M298.75,131.83L298.75,131.83c2.99,0.61,4.92,3.53,4.31,6.52c0,0.02-0.01,0.04-0.01,0.06l-2.15,9.68
			c-3-0.63-4.92-3.58-4.3-6.58L298.75,131.83z"/>
		<path class="st1" d="M303.63,146.99L303.63,146.99c3.06-0.33,5.8,1.89,6.13,4.95l1.03,9.83c-3.05,0.33-5.78-1.88-6.11-4.93
			c0-0.01,0-0.01,0-0.02L303.63,146.99z"/>
		<path class="st1" d="M312.95,159.89L312.95,159.89c2.8-1.28,6.1-0.06,7.4,2.73l4.02,9.05c-2.81,1.24-6.1-0.03-7.35-2.84
			L312.95,159.89z"/>
		<path class="st1" d="M325.85,169.29L325.85,169.29c2.27-2.05,5.78-1.88,7.84,0.39c0,0,0.01,0.01,0.01,0.01l6.64,7.35
			c-2.28,2.06-5.81,1.88-7.87-0.4c0,0,0,0,0,0L325.85,169.29z"/>
		<path class="st1" d="M341.03,174.26L341.03,174.26c1.54-2.66,4.93-3.57,7.59-2.04l8.6,4.95c-1.53,2.66-4.92,3.57-7.58,2.04
			c-0.01-0.01-0.02-0.01-0.04-0.02L341.03,174.26z"/>
		<path class="st1" d="M356.96,174.28L356.96,174.28c0.63-3.01,3.59-4.94,6.6-4.3c0,0,0,0,0,0l9.7,2.15c-0.65,3-3.59,4.92-6.6,4.3
			L356.96,174.28z"/>
		<path class="st1" d="M372.14,169.4L372.14,169.4c-0.33-3.05,1.88-5.78,4.93-6.11c0.01,0,0.01,0,0.02,0l9.85-1.03
			c0.33,3.05-1.88,5.78-4.93,6.11c-0.01,0-0.01,0-0.02,0L372.14,169.4z"/>
		<path class="st1" d="M385.07,160.07L385.07,160.07c-1.24-2.81,0.02-6.09,2.82-7.35l9.05-4.02c1.24,2.81-0.02,6.09-2.82,7.35
			L385.07,160.07z"/>
		<path class="st1" d="M394.47,147.19L394.47,147.19c-2.05-2.28-1.86-5.79,0.41-7.83c0.01,0,0.01-0.01,0.02-0.01l7.35-6.6
			c2.05,2.28,1.87,5.79-0.41,7.85L394.47,147.19z"/>
		<path class="st1" d="M399.43,132.05L399.43,132.05c-2.66-1.52-3.58-4.91-2.05-7.57c0-0.01,0.01-0.01,0.01-0.02l4.97-8.6
			c2.65,1.53,3.56,4.93,2.03,7.58c0,0,0,0.01-0.01,0.01L399.43,132.05z"/>
		<path class="st1" d="M399.48,116.11L399.48,116.11c-3-0.62-4.93-3.56-4.31-6.56c0-0.01,0-0.01,0-0.02l2.15-9.68
			c3,0.65,4.92,3.59,4.3,6.6L399.48,116.11z"/>
		<path class="st1" d="M394.66,100.95L394.66,100.95c-3.05,0.33-5.78-1.88-6.11-4.93c0-0.01,0-0.01,0-0.02l-1.03-9.83
			c3.05-0.33,5.78,1.88,6.11,4.93c0,0.01,0,0.01,0,0.02L394.66,100.95z"/>
		<path class="st1" d="M385.24,88.05L385.24,88.05c-2.81,1.24-6.1-0.03-7.35-2.84l-4.02-9.03c2.8-1.25,6.08,0.01,7.33,2.81
			c0,0,0,0.01,0.01,0.01L385.24,88.05z"/>
		<path class="st1" d="M372.36,78.76L372.36,78.76c-2.31,1.99-5.78,1.76-7.81-0.52l-6.62-7.35c2.29-2.05,5.81-1.87,7.87,0.41
			L372.36,78.76z"/>
		<path class="st1" d="M373.74,131.1l-0.75-0.75c-2.9-2.92-7.34-3.66-11.03-1.85c-8.68,4.18-15.94,10.81-20.88,19.07
			c-4.77-4.63-10.4-8.29-16.58-10.75v3.35c0.01,2.63,1.39,5.07,3.63,6.45c2.64,1.59,5.11,3.46,7.35,5.57
			c0.79,0.73,1.83,1.14,2.9,1.14h7.74c5.62-10.98,15.67-19.04,27.61-22.15"/>
	</g>
</g>
</svg>
