<svg xmlns="http://www.w3.org/2000/svg" width="260.548" height="74.493" viewBox="0 0 260.548 74.493"><g transform="translate(-1791.601 -1242.329)"><path d="M2282.936,1294.969h-4.827a4.428,4.428,0,0,1-4.429-4.427h9.343l-6.687-6.708a5.624,5.624,0,0,1,6.96.865l3.531,3.509,3.482-3.458a5.88,5.88,0,0,1,2.411-1.491,5.684,5.684,0,0,1,4.6.575l-6.686,6.708h4.914a4.427,4.427,0,0,1,4.429,4.427h-9.253l7.086,7.082a6.827,6.827,0,0,1-2.86.631,6.647,6.647,0,0,1-4.728-1.952l-3.394-3.393-3.394,3.393a6.642,6.642,0,0,1-4.727,1.952,6.812,6.812,0,0,1-2.858-.631Z" transform="translate(-271.824 -22.94)" fill="#fff"/><path d="M2287.675,1346.435a32.768,32.768,0,0,0-13.9-12.653,6.378,6.378,0,0,0-7.332,1.23l-.5.507a28.363,28.363,0,0,1,2.938.932,28.784,28.784,0,0,1,15.429,13.807c0,.007,5.161.018,5.161.018a2.813,2.813,0,0,0,1.928-.761,28.8,28.8,0,0,1,4.894-3.715,5.031,5.031,0,0,0,2.423-4.312v-2.229a33.567,33.567,0,0,0-11.035,7.176" transform="translate(-267.458 -51.198)" fill="#fff"/><path d="M2301.931,1246.116h0a3.706,3.706,0,0,1-5.06,1.355l-5.707-3.293a3.708,3.708,0,0,1,5.061-1.353Z" transform="translate(-281.682 0)" fill="#fff"/><path d="M2277.5,1249.084h0a3.7,3.7,0,0,1-4.393,2.85l-6.444-1.37a3.7,3.7,0,0,1,4.394-2.849Z" transform="translate(-267.869 -2.991)" fill="#fff"/><path d="M2255.594,1258.416h0a3.7,3.7,0,0,1-3.3,4.068l-6.554.687a3.7,3.7,0,0,1,3.3-4.067Z" transform="translate(-256.06 -9.071)" fill="#fff"/><path d="M2238.011,1272.662h0a3.7,3.7,0,0,1-1.877,4.886l-6.019,2.678a3.7,3.7,0,0,1,1.877-4.886Z" transform="translate(-247.078 -17.103)" fill="#fff"/><path d="M2226.372,1292.3h0a3.7,3.7,0,0,1-.273,5.226l-4.9,4.4a3.7,3.7,0,0,1,.273-5.225Z" transform="translate(-241.697 -28.175)" fill="#fff"/><path d="M2221.813,1315.4h0a3.7,3.7,0,0,1,1.356,5.055l-3.3,5.7a3.7,3.7,0,0,1-1.354-5.056Z" transform="translate(-240.44 -41.201)" fill="#fff"/><path d="M2224.783,1339.709h0a3.7,3.7,0,0,1,2.854,4.389l-1.37,6.439a3.7,3.7,0,0,1-2.853-4.389Z" transform="translate(-243.434 -54.908)" fill="#fff"/><path d="M2234.127,1362.82h0a3.7,3.7,0,0,1,4.071,3.293l.688,6.546a3.7,3.7,0,0,1-4.07-3.293Z" transform="translate(-249.521 -67.928)" fill="#fff"/><path d="M2248.385,1382.132h0a3.705,3.705,0,0,1,4.891,1.875l2.68,6.015a3.706,3.706,0,0,1-4.889-1.877Z" transform="translate(-257.561 -78.648)" fill="#fff"/><path d="M2268.039,1395.652h0a3.706,3.706,0,0,1,5.23.275l4.409,4.891a3.706,3.706,0,0,1-5.23-.274Z" transform="translate(-268.643 -85.916)" fill="#fff"/><path d="M2291.165,1402.054h0a3.708,3.708,0,0,1,5.06-1.355l5.706,3.291a3.706,3.706,0,0,1-5.061,1.354Z" transform="translate(-281.683 -89.018)" fill="#fff"/><path d="M2315.5,1400.711h0a3.7,3.7,0,0,1,4.393-2.85l6.445,1.37a3.7,3.7,0,0,1-4.393,2.848Z" transform="translate(-295.403 -87.651)" fill="#fff"/><path d="M2338.632,1390.9h0a3.7,3.7,0,0,1,3.3-4.068l6.553-.687a3.7,3.7,0,0,1-3.3,4.067Z" transform="translate(-308.436 -81.089)" fill="#fff"/><path d="M2357.964,1373.019h0a3.7,3.7,0,0,1,1.877-4.886l6.021-2.677a3.7,3.7,0,0,1-1.878,4.886Z" transform="translate(-319.167 -69.426)" fill="#fff"/><path d="M2371.5,1350.712h0a3.7,3.7,0,0,1,.275-5.226l4.9-4.4a3.7,3.7,0,0,1-.274,5.226Z" transform="translate(-326.443 -55.682)" fill="#fff"/><path d="M2377.906,1326.155h0a3.7,3.7,0,0,1-1.357-5.055l3.3-5.7a3.7,3.7,0,0,1,1.354,5.056Z" transform="translate(-329.547 -41.201)" fill="#fff"/><path d="M2376.562,1301.751h0a3.7,3.7,0,0,1-2.854-4.389l1.37-6.438a3.7,3.7,0,0,1,2.853,4.389Z" transform="translate(-328.179 -27.4)" fill="#fff"/><path d="M2366.735,1279.864h0a3.7,3.7,0,0,1-4.071-3.293l-.689-6.547a3.7,3.7,0,0,1,4.071,3.292Z" transform="translate(-321.609 -15.604)" fill="#fff"/><path d="M2348.844,1262.3h0a3.706,3.706,0,0,1-4.892-1.875l-2.679-6.014a3.706,3.706,0,0,1,4.89,1.875Z" transform="translate(-309.936 -6.631)" fill="#fff"/><path d="M2326.513,1250.671h0a3.707,3.707,0,0,1-5.231-.273l-4.409-4.892a3.708,3.708,0,0,1,5.231.273Z" transform="translate(-296.178 -1.255)" fill="#fff"/><path d="M2298.709,1335.519l-.5-.506a6.378,6.378,0,0,0-7.332-1.23,32.753,32.753,0,0,0-13.9,12.653,33.563,33.563,0,0,0-11.033-7.177v2.226a5.032,5.032,0,0,0,2.422,4.315,28.9,28.9,0,0,1,4.893,3.713,2.806,2.806,0,0,0,1.928.764s5.167-.012,5.162-.018a28.753,28.753,0,0,1,18.367-14.74" transform="translate(-267.458 -51.198)" fill="#fff"/><path d="M1794.047,1269.432v2.244a2.672,2.672,0,0,0,.748,2.156,4.089,4.089,0,0,0,2.574.622,4.714,4.714,0,0,0,2.3-.42,2.153,2.153,0,0,0,.992-1.792h-.976l-.82-1.033v-.613h4.346v1.646h-.6a3.777,3.777,0,0,1-1.575,3.036,4.779,4.779,0,0,1-2.882.824H1796.6a4.59,4.59,0,0,1-3.165-1.05,3.94,3.94,0,0,1-1.307-3.2v-1.631l.977-.791Zm2.078,7.605a.974.974,0,0,1,.724.307,1.072,1.072,0,0,1,0,1.486,1.007,1.007,0,0,1-1.448,0,1.072,1.072,0,0,1,0-1.486.974.974,0,0,1,.724-.307m2.393,0a.975.975,0,0,1,.724.307,1.072,1.072,0,0,1,0,1.486.977.977,0,0,1-.724.307.959.959,0,0,1-.709-.307,1.072,1.072,0,0,1,0-1.486.957.957,0,0,1,.709-.307" transform="translate(-0.296 -15.282)" fill="#fff"/><rect width="2.913" height="1.647" transform="translate(1801.545 1255.313)" fill="#fff"/><path d="M1825.568,1249.364v9.915h.8v1.647h-.535l-.6-.662h-.032a1.652,1.652,0,0,1-1.338.662h-3.039v-1.647h2.425a.421.421,0,0,0,.315-.13.571.571,0,0,0,.095-.274v-9.512Z" transform="translate(-16.48 -3.966)" fill="#fff"/><rect width="2.913" height="1.647" transform="translate(1809.779 1255.313)" fill="#fff"/><path d="M1841.766,1258.866a9.213,9.213,0,0,1,2.724-.469,4.041,4.041,0,0,1,3.071,1.227,3.849,3.849,0,0,1,1.055,2.777v1.97h.52v1.647h-.331l-.52-.662h-.031a1.651,1.651,0,0,1-1.338.662h-7.244v-1.647h6.63a.352.352,0,0,0,.393-.4v-1.454a2.306,2.306,0,0,0-.717-1.768,2.644,2.644,0,0,0-1.881-.67,11.611,11.611,0,0,0-2.331.355Z" transform="translate(-27.105 -9.06)" fill="#fff"/><rect width="2.913" height="1.647" transform="translate(1821.92 1255.313)" fill="#fff"/><path d="M1870.346,1264.394a5.561,5.561,0,0,1-.378-2.1,3.8,3.8,0,0,1,1.15-2.955,3.9,3.9,0,0,1,4.645-.258,2.769,2.769,0,0,1,1.039,2.326v2.584a.519.519,0,0,0,.078.274.387.387,0,0,0,.284.129h.142v1.647h-.692a1.634,1.634,0,0,1-1.213-.516,2.456,2.456,0,0,1-2.047,1,3.067,3.067,0,0,1-2.33-1.033h-.031l-.441.548h-3.008v-1.647Zm4.535-2.987a1.331,1.331,0,0,0-.363-.97,1.2,1.2,0,0,0-.944-.371,1.474,1.474,0,0,0-1.236.614,2.664,2.664,0,0,0-.464,1.647,3.267,3.267,0,0,0,.472,1.841,1.409,1.409,0,0,0,1.212.71,1.866,1.866,0,0,0,1.323-.662Z" transform="translate(-42.82 -9.081)" fill="#fff"/><rect width="2.913" height="1.647" transform="translate(1834.374 1255.313)" fill="#fff"/><path d="M1900.84,1249.364v9.786a1.7,1.7,0,0,1-.425,1.163,1.553,1.553,0,0,1-1.276.614H1896.1v-1.647h2.425a.4.4,0,0,0,.3-.13.378.378,0,0,0,.111-.274v-9.512Z" transform="translate(-58.922 -3.966)" fill="#fff"/><path d="M1914.194,1249.364v11.158l-.977.807h-.945v-11.966Z" transform="translate(-68.041 -3.967)" fill="#fff"/><path d="M1934.286,1265.455a2.629,2.629,0,0,0,.779,2.18,4.613,4.613,0,0,0,2.763.614q3.055,0,3.054-1.663a1.191,1.191,0,0,0-.377-.936,4.205,4.205,0,0,0-1.433-.679,4.784,4.784,0,0,1-2.142-1.2,3.006,3.006,0,0,1-.693-2.083,3.128,3.128,0,0,1,1.055-2.584,3.682,3.682,0,0,1,2.377-.71,5.942,5.942,0,0,1,1.842.291v1.486a6.09,6.09,0,0,0-1.511-.226,1.982,1.982,0,0,0-1.4.468,1.677,1.677,0,0,0-.5,1.292,1.331,1.331,0,0,0,.363,1.009,4.735,4.735,0,0,0,1.5.767,5.633,5.633,0,0,1,2.063,1.162,2.611,2.611,0,0,1,.756,1.922,2.84,2.84,0,0,1-1.59,2.68,5.669,5.669,0,0,1-2.787.63h-1.559a4.707,4.707,0,0,1-3.008-.921,3.945,3.945,0,0,1-1.464-3.326V1264l.977-.791h.945Z" transform="translate(-79.37 -9.061)" fill="#fff"/><path d="M1963.793,1266.019a3.33,3.33,0,0,1-2.724-1.211,3.927,3.927,0,0,1-.834-2.551,3.877,3.877,0,0,1,.992-2.826,3.616,3.616,0,0,1,2.661-1.034,3.515,3.515,0,0,1,2.047.6,2.8,2.8,0,0,1,1.134,2.39v2.987h.5v1.647h-.52a3.847,3.847,0,0,1-1.2,2.729,4.056,4.056,0,0,1-1.811.953,6.228,6.228,0,0,1-1.448.178c-.158,0-.384-.011-.677-.033h-.048l-.8-1.017v-.711a7.021,7.021,0,0,0,1.212.113q2.583,0,2.819-2.213Zm1.354-4.634a1.307,1.307,0,0,0-.409-1.018,1.238,1.238,0,0,0-.851-.323,1.555,1.555,0,0,0-1.275.581,2.462,2.462,0,0,0-.473,1.6,2.265,2.265,0,0,0,.519,1.567,1.8,1.8,0,0,0,1.418.581h1.071Z" transform="translate(-95.085 -9.06)" fill="#fff"/><rect width="2.913" height="1.647" transform="translate(1872.376 1255.313)" fill="#fff"/><path d="M1987.971,1254.25v5.781h.8v1.647h-.551l-.583-.662h-.032a1.651,1.651,0,0,1-1.338.662h-3.039v-1.647h2.378a.366.366,0,0,0,.315-.13.419.419,0,0,0,.142-.323v-5.329Zm-3.212-3.553a.975.975,0,0,1,.724.307,1.026,1.026,0,0,1,.3.743,1,1,0,0,1-.3.727,1.009,1.009,0,0,1-1.449,0,1,1,0,0,1-.3-.727,1.025,1.025,0,0,1,.3-.743.975.975,0,0,1,.725-.307m2.393,0a.977.977,0,0,1,.724.307,1.029,1.029,0,0,1,.3.743,1.008,1.008,0,0,1-.3.727.975.975,0,0,1-.724.307.955.955,0,0,1-.708-.307,1,1,0,0,1-.3-.727,1.025,1.025,0,0,1,.3-.743.956.956,0,0,1,.708-.307" transform="translate(-108.053 -4.718)" fill="#fff"/><rect width="2.913" height="1.647" transform="translate(1880.611 1255.313)" fill="#fff"/><path d="M2004.17,1258.866a9.214,9.214,0,0,1,2.724-.469,4.04,4.04,0,0,1,3.07,1.227,3.848,3.848,0,0,1,1.055,2.777v1.97h.52v1.647h-.331l-.52-.662h-.031a1.652,1.652,0,0,1-1.339.662h-7.243v-1.647h6.63a.353.353,0,0,0,.394-.4v-1.454a2.307,2.307,0,0,0-.717-1.768,2.645,2.645,0,0,0-1.882-.67,11.616,11.616,0,0,0-2.331.355Z" transform="translate(-118.678 -9.06)" fill="#fff"/><path d="M2026.324,1264.394a5.566,5.566,0,0,1-.378-2.1,3.8,3.8,0,0,1,1.15-2.955,3.9,3.9,0,0,1,4.645-.258,2.77,2.77,0,0,1,1.04,2.326v2.584a.52.52,0,0,0,.079.274.386.386,0,0,0,.283.129h.142v1.647h-.693a1.635,1.635,0,0,1-1.213-.516,2.456,2.456,0,0,1-2.047,1,3.065,3.065,0,0,1-2.33-1.033h-.031l-.441.548h-3.008v-1.647Zm4.535-2.987a1.33,1.33,0,0,0-.363-.97,1.2,1.2,0,0,0-.944-.371,1.475,1.475,0,0,0-1.237.614,2.666,2.666,0,0,0-.464,1.647,3.27,3.27,0,0,0,.472,1.841,1.409,1.409,0,0,0,1.212.71,1.865,1.865,0,0,0,1.323-.662Z" transform="translate(-130.77 -9.081)" fill="#fff"/><rect width="2.913" height="1.647" transform="translate(1902.404 1255.313)" fill="#fff"/><path d="M2056.817,1249.364v9.786a1.7,1.7,0,0,1-.425,1.163,1.552,1.552,0,0,1-1.276.614h-3.039v-1.647h2.425a.4.4,0,0,0,.3-.13.378.378,0,0,0,.11-.274v-9.512Z" transform="translate(-146.872 -3.966)" fill="#fff"/><path d="M2070.173,1249.364v11.158l-.976.807h-.945v-11.966Z" transform="translate(-155.991 -3.967)" fill="#fff"/><path d="M2094.671,1253.814v5.814a.369.369,0,0,0,.11.291.314.314,0,0,0,.252.113h.441v1.647h-.992a1.785,1.785,0,0,1-1.307-.6,3.02,3.02,0,0,1-2,.759,3.092,3.092,0,0,1-2.142-.807,4.479,4.479,0,0,1-.094-5.991,3.291,3.291,0,0,1,2.472-1.049,4.083,4.083,0,0,1,1.637.355l.677-.533Zm-1.921,2.083a2.967,2.967,0,0,0-1.055-.21,1.771,1.771,0,0,0-1.4.638,2.442,2.442,0,0,0-.551,1.655,2.518,2.518,0,0,0,.5,1.631,1.623,1.623,0,0,0,1.331.613,3.047,3.047,0,0,0,1.181-.258Zm-1.5-5.2a.975.975,0,0,1,.724.307,1.026,1.026,0,0,1,.3.743,1,1,0,0,1-.3.727,1.009,1.009,0,0,1-1.448,0,1,1,0,0,1-.3-.727,1.024,1.024,0,0,1,.3-.743.974.974,0,0,1,.724-.307m2.393,0a.977.977,0,0,1,.725.307,1.03,1.03,0,0,1,.3.743,1.009,1.009,0,0,1-.3.727.975.975,0,0,1-.725.307.957.957,0,0,1-.709-.307,1,1,0,0,1-.3-.727,1.026,1.026,0,0,1,.3-.743.958.958,0,0,1,.709-.307" transform="translate(-167.035 -4.718)" fill="#fff"/><rect width="2.913" height="1.647" transform="translate(1928.328 1255.313)" fill="#fff"/><path d="M2116.259,1252.58v5.781h.8v1.647h-.55l-.583-.661h-.032a1.654,1.654,0,0,1-1.338.661h-3.039v-1.647h2.377a.362.362,0,0,0,.315-.129.418.418,0,0,0,.142-.323v-5.329Zm-2.109-2.406a1.807,1.807,0,0,1-.253-.92,1.529,1.529,0,0,1,.394-1.114,1.426,1.426,0,0,1,1.071-.4,2.561,2.561,0,0,1,.8.129v.856a2.548,2.548,0,0,0-.583-.1q-.693,0-.693.775a.811.811,0,0,0,.157.5.659.659,0,0,0,.583.274h1.054v.4l-.362.469h-2.787v-.872Z" transform="translate(-180.389 -3.048)" fill="#fff"/><rect width="2.913" height="1.647" transform="translate(1936.563 1255.313)" fill="#fff"/><path d="M2135.141,1258.842v5.781h.8v1.647h-.552l-.582-.662h-.032a1.65,1.65,0,0,1-1.337.662h-3.04v-1.647h2.377a.362.362,0,0,0,.315-.129.417.417,0,0,0,.141-.323v-5.329Zm-3.418,8.607a.974.974,0,0,1,.724.306,1.071,1.071,0,0,1,0,1.486,1.008,1.008,0,0,1-1.449,0,1.074,1.074,0,0,1,0-1.486.977.977,0,0,1,.725-.306m2.393,0a.972.972,0,0,1,.724.306,1.068,1.068,0,0,1,0,1.486.974.974,0,0,1-.724.307.957.957,0,0,1-.708-.307,1.073,1.073,0,0,1,0-1.486.955.955,0,0,1,.708-.306" transform="translate(-191.034 -9.311)" fill="#fff"/><rect width="2.913" height="1.647" transform="translate(1944.798 1255.313)" fill="#fff"/><path d="M2153.086,1258.206a8.532,8.532,0,0,1,3.512-.807,4.125,4.125,0,0,1,3.386,1.421,5.012,5.012,0,0,1,.992,3.246v1.615a1.774,1.774,0,0,1-.535,1.276,1.572,1.572,0,0,1-1.166.5h-3.826a2.732,2.732,0,0,1-1.164-.178h-.064a2.737,2.737,0,0,1-1.165.178h-3.81v-1.647h2.834a2.786,2.786,0,0,1-.393-.824,3.28,3.28,0,0,1-.158-1.049,3.126,3.126,0,0,1,.473-1.711,2.455,2.455,0,0,1,1.086-.9Zm1.151,5.41a1.094,1.094,0,0,0,.834-.5,2.146,2.146,0,0,0,.315-1.114,1.765,1.765,0,0,0-.346-1.179,1.045,1.045,0,0,0-1.749.194,2.094,2.094,0,0,0-.22.985,2.264,2.264,0,0,0,.284,1.065,1.159,1.159,0,0,0,.882.549m4.817-1.292a3.7,3.7,0,0,0-.772-2.616,2.949,2.949,0,0,0-2.2-.743,6.439,6.439,0,0,0-1.4.161,2.579,2.579,0,0,1,1.638.872,2.844,2.844,0,0,1,.66,1.938,3.442,3.442,0,0,1-.141,1,3,3,0,0,1-.393.872h2.2a.415.415,0,0,0,.283-.1.423.423,0,0,0,.126-.307Z" transform="translate(-201.66 -8.497)" fill="#fff"/><path d="M1798.367,1303.179v5.813a.368.368,0,0,0,.109.291.307.307,0,0,0,.249.113h.436v1.647h-.982a1.76,1.76,0,0,1-1.294-.6,2.977,2.977,0,0,1-1.98.759,3.042,3.042,0,0,1-2.12-.808,4.512,4.512,0,0,1-.094-5.991,3.246,3.246,0,0,1,2.447-1.049,4.021,4.021,0,0,1,1.622.355l.67-.533Zm-1.9,2.083a2.91,2.91,0,0,0-1.045-.21,1.746,1.746,0,0,0-1.387.638,2.456,2.456,0,0,0-.546,1.655,2.535,2.535,0,0,0,.491,1.631,1.6,1.6,0,0,0,1.318.614,2.992,2.992,0,0,0,1.169-.258Zm-1.481-5.2a.962.962,0,0,1,.717.307,1.032,1.032,0,0,1,.3.743,1.012,1.012,0,0,1-.3.727.992.992,0,0,1-1.434,0,1.01,1.01,0,0,1-.3-.727,1.03,1.03,0,0,1,.3-.743.962.962,0,0,1,.717-.307m2.37,0a.963.963,0,0,1,.718.307,1.031,1.031,0,0,1,.3.743,1.011,1.011,0,0,1-.3.727.961.961,0,0,1-.718.307.943.943,0,0,1-.7-.307,1.01,1.01,0,0,1-.3-.727,1.03,1.03,0,0,1,.3-.743.945.945,0,0,1,.7-.307" transform="translate(0 -32.554)" fill="#fff"/><rect width="2.884" height="1.647" transform="translate(1799.054 1276.842)" fill="#fff"/><path d="M1819.743,1308.209v5.781h.795v1.647h-.545l-.578-.662h-.031a1.632,1.632,0,0,1-1.325.662h-3.009v-1.647h2.354a.358.358,0,0,0,.312-.129.421.421,0,0,0,.141-.323v-5.328Zm-3.383,8.607a.961.961,0,0,1,.717.307,1.08,1.08,0,0,1,0,1.485.992.992,0,0,1-1.434,0,1.078,1.078,0,0,1,0-1.485.96.96,0,0,1,.717-.307m2.37,0a.962.962,0,0,1,.718.307,1.08,1.08,0,0,1,0,1.485.962.962,0,0,1-.718.306.943.943,0,0,1-.7-.306,1.079,1.079,0,0,1,0-1.485.944.944,0,0,1,.7-.307" transform="translate(-13.222 -37.147)" fill="#fff"/><rect width="2.884" height="1.647" transform="translate(1807.207 1276.842)" fill="#fff"/><path d="M1836.514,1310.772a2.754,2.754,0,0,1,1.029-2.325,3.46,3.46,0,0,1,2.214-.646,3.387,3.387,0,0,1,2.323.839,3.827,3.827,0,0,1,1.2,3.02,4.789,4.789,0,0,1-.951,3.052,2.888,2.888,0,0,1-2.385,1.179,2.413,2.413,0,0,1-2.042-1,1.625,1.625,0,0,1-1.216.517h-2.978v-1.647h2.4a.4.4,0,0,0,.3-.129.381.381,0,0,0,.109-.275Zm1.886,2.81a1.736,1.736,0,0,0,1.325.646,1.41,1.41,0,0,0,1.2-.67,2.967,2.967,0,0,0,.468-1.736,2.9,2.9,0,0,0-.515-1.825,1.5,1.5,0,0,0-1.215-.565,1.125,1.125,0,0,0-.889.371,1.272,1.272,0,0,0-.374.969Z" transform="translate(-23.742 -36.917)" fill="#fff"/><path d="M1862.826,1315.386a3.283,3.283,0,0,1-2.7-1.211,3.953,3.953,0,0,1-.826-2.552,3.9,3.9,0,0,1,.982-2.826,3.562,3.562,0,0,1,2.635-1.033,3.457,3.457,0,0,1,2.028.6,2.808,2.808,0,0,1,1.122,2.39v2.988h.5v1.647h-.514a3.862,3.862,0,0,1-1.185,2.729,4,4,0,0,1-1.792.952,6.109,6.109,0,0,1-1.435.178c-.156,0-.38-.011-.671-.032h-.047l-.795-1.018v-.71a6.909,6.909,0,0,0,1.2.113q2.558,0,2.791-2.212Zm1.341-4.635a1.311,1.311,0,0,0-.405-1.017,1.219,1.219,0,0,0-.843-.323,1.536,1.536,0,0,0-1.262.581,2.482,2.482,0,0,0-.467,1.6,2.279,2.279,0,0,0,.514,1.566,1.778,1.778,0,0,0,1.4.581h1.06Z" transform="translate(-38.174 -36.896)" fill="#fff"/><rect width="2.884" height="1.647" transform="translate(1828.284 1276.842)" fill="#fff"/><path d="M1889.507,1298.211v1.825l-3.258,2.067a6.406,6.406,0,0,1,3.243,2.518,6.164,6.164,0,0,1,1.06,3.5v.226h.5V1310h-.3l-.53-.662h-.031a1.662,1.662,0,0,1-1.325.662h-6.8v-1.647h6.189q.405,0,.405-.42a4.83,4.83,0,0,0-.951-2.519,5.033,5.033,0,0,0-3.633-1.938c-.073,0-.109-.043-.109-.129v-1.825Z" transform="translate(-51.012 -31.509)" fill="#fff"/><path d="M1904.447,1308.231a9.03,9.03,0,0,1,2.7-.468,3.98,3.98,0,0,1,3.04,1.227,3.87,3.87,0,0,1,1.044,2.777v1.97h.514v1.647h-.327l-.514-.662h-.032a1.632,1.632,0,0,1-1.325.662h-7.171v-1.647h6.563q.39,0,.389-.4v-1.453a2.32,2.32,0,0,0-.709-1.768,2.6,2.6,0,0,0-1.863-.67,11.4,11.4,0,0,0-2.307.355Z" transform="translate(-62.46 -36.895)" fill="#fff"/><rect width="2.884" height="1.647" transform="translate(1849.174 1276.842)" fill="#fff"/><path d="M1934.662,1298.73v9.785a1.712,1.712,0,0,1-.421,1.163,1.531,1.531,0,0,1-1.262.613h-3.009v-1.647h2.4a.4.4,0,0,0,.3-.13.38.38,0,0,0,.109-.274v-9.511Z" transform="translate(-78.02 -31.802)" fill="#fff"/><path d="M1947.562,1298.729v11.159l-.967.807h-.936v-11.966Z" transform="translate(-86.867 -31.801)" fill="#fff"/><path d="M1974.674,1307.644v5.652a1.688,1.688,0,0,1-.406,1.146,1.559,1.559,0,0,1-1.278.63h-8.731a2.483,2.483,0,0,1-1.746-.678,2.815,2.815,0,0,1-.982-2.229v-2.551l.967-.808h.935v3.359a1.211,1.211,0,0,0,.375.921,1.166,1.166,0,0,0,.826.339h7.748a.351.351,0,0,0,.39-.4v-5.377Zm-7.749-.436a.962.962,0,0,1,.717.307,1.079,1.079,0,0,1,0,1.486.962.962,0,0,1-.717.307.943.943,0,0,1-.7-.307,1.08,1.08,0,0,1,0-1.486.943.943,0,0,1,.7-.307m2.385,0a.945.945,0,0,1,.7.307,1.081,1.081,0,0,1,0,1.486.945.945,0,0,1-.7.307.963.963,0,0,1-.718-.307,1.082,1.082,0,0,1,0-1.486.963.963,0,0,1,.718-.307" transform="translate(-95.816 -36.582)" fill="#fff"/><path d="M1998.5,1298.73v9.511a.358.358,0,0,0,.094.259.326.326,0,0,0,.3.145h.405v1.647h-1.013a1.562,1.562,0,0,1-1.122-.468,1.735,1.735,0,0,1-.562-1.308v-9.785Z" transform="translate(-115.588 -31.802)" fill="#fff"/><rect width="2.884" height="1.647" transform="translate(1883.597 1276.842)" fill="#fff"/><rect width="2.884" height="1.647" transform="translate(1886.372 1276.842)" fill="#fff"/><path d="M2019.948,1308.209v5.652a1.88,1.88,0,0,1-.406,1.163,1.6,1.6,0,0,1-1.278.614h-3.009v-1.647h2.4a.4.4,0,0,0,.3-.129.382.382,0,0,0,.109-.275v-5.377Zm-3.415,8.607a.962.962,0,0,1,.717.307,1.078,1.078,0,0,1,0,1.485.961.961,0,0,1-.717.306.942.942,0,0,1-.7-.306,1.078,1.078,0,0,1,0-1.485.943.943,0,0,1,.7-.307m2.385,0a.937.937,0,0,1,.71.307,1.1,1.1,0,0,1,0,1.485.937.937,0,0,1-.71.306.961.961,0,0,1-.718-.306,1.081,1.081,0,0,1,0-1.485.962.962,0,0,1,.718-.307" transform="translate(-126.109 -37.147)" fill="#fff"/><path d="M2033.715,1308.208v5.781h.8v1.647h-.811a3.847,3.847,0,0,1-1.48,2.971,4.419,4.419,0,0,1-2.76.856c-.187,0-.39-.006-.608-.016l-.764-.985v-.694a6.026,6.026,0,0,0,.967.08,2.447,2.447,0,0,0,2.76-2.777v-6.863Z" transform="translate(-133.344 -37.146)" fill="#fff"/><rect width="2.884" height="1.647" transform="translate(1901.057 1276.842)" fill="#fff"/><path d="M2053.62,1303.616v5.781h.8v1.647h-.546l-.577-.662h-.031a1.631,1.631,0,0,1-1.324.662h-3.009V1309.4h2.354a.357.357,0,0,0,.312-.13.419.419,0,0,0,.141-.323v-5.328Zm-3.181-3.553a.961.961,0,0,1,.717.307,1.029,1.029,0,0,1,.3.743,1.009,1.009,0,0,1-.3.727.991.991,0,0,1-1.434,0,1.012,1.012,0,0,1-.3-.727,1.032,1.032,0,0,1,.3-.743.961.961,0,0,1,.717-.307m2.37,0a.961.961,0,0,1,.717.307,1.032,1.032,0,0,1,.3.743,1.012,1.012,0,0,1-.3.727.959.959,0,0,1-.717.307.944.944,0,0,1-.7-.307,1.013,1.013,0,0,1-.3-.727,1.033,1.033,0,0,1,.3-.743.946.946,0,0,1,.7-.307" transform="translate(-145.095 -32.554)" fill="#fff"/><path d="M2077.8,1301.111v5.781h.8v1.647h-.608l-.515-.662h-.031a1.633,1.633,0,0,1-1.325.662h-3.336l-.515-.662h-.047a1.588,1.588,0,0,1-1.309.662h-3.352l-.515-.662H2067a1.593,1.593,0,0,1-1.31.662h-4.428v-1.647h3.82a.351.351,0,0,0,.39-.4v-3.52h1.9v3.423c0,.227-.005.394-.015.5h2.947c.259,0,.39-.135.39-.4v-4.456h1.9v4.311c0,.065-.006.162-.016.291v.259h2.931q.39,0,.39-.4v-5.376Zm-7.327-3.553a.936.936,0,0,1,.709.306,1.043,1.043,0,0,1,.289.743,1.016,1.016,0,0,1-.289.735.991.991,0,0,1-1.418,0,1.018,1.018,0,0,1-.289-.735,1.045,1.045,0,0,1,.289-.743.936.936,0,0,1,.709-.306m1.185-1.938a.863.863,0,0,1,.655.283.966.966,0,0,1,.265.686.937.937,0,0,1-.265.678.874.874,0,0,1-.655.275.9.9,0,0,1-.663-.275.921.921,0,0,1-.272-.678.95.95,0,0,1,.272-.686.886.886,0,0,1,.663-.283m1.169,1.938a.961.961,0,0,1,.717.306,1.033,1.033,0,0,1,.3.743,1.013,1.013,0,0,1-.3.727.959.959,0,0,1-.717.307.944.944,0,0,1-.7-.307,1.011,1.011,0,0,1-.3-.727,1.031,1.031,0,0,1,.3-.743.945.945,0,0,1,.7-.306" transform="translate(-152.048 -30.048)" fill="#fff"/><rect width="2.884" height="1.647" transform="translate(1926.438 1276.842)" fill="#fff"/><path d="M2109.9,1313.76a5.618,5.618,0,0,1-.374-2.1,3.82,3.82,0,0,1,1.138-2.955,3.828,3.828,0,0,1,4.6-.258,2.78,2.78,0,0,1,1.03,2.325v2.584a.518.518,0,0,0,.077.274.381.381,0,0,0,.281.129h.141v1.647h-.687a1.605,1.605,0,0,1-1.2-.517,2.427,2.427,0,0,1-2.027,1,3.017,3.017,0,0,1-2.307-1.034h-.032l-.436.55h-2.978v-1.647Zm4.49-2.988a1.336,1.336,0,0,0-.359-.969,1.183,1.183,0,0,0-.936-.371,1.453,1.453,0,0,0-1.223.613,2.684,2.684,0,0,0-.46,1.647,3.288,3.288,0,0,0,.468,1.841,1.393,1.393,0,0,0,1.2.71,1.843,1.843,0,0,0,1.31-.661Z" transform="translate(-177.908 -36.917)" fill="#fff"/><rect width="2.885" height="1.647" transform="translate(1938.769 1276.842)" fill="#fff"/><path d="M2140.087,1298.73v9.785a1.716,1.716,0,0,1-.421,1.163,1.534,1.534,0,0,1-1.263.613h-3.009v-1.647h2.4a.4.4,0,0,0,.3-.13.382.382,0,0,0,.11-.274v-9.511Z" transform="translate(-193.85 -31.802)" fill="#fff"/><path d="M2152.988,1298.729v11.159l-.967.807h-.936v-11.966Z" transform="translate(-202.698 -31.801)" fill="#fff"/><path d="M2164.748,1315.32a4.693,4.693,0,0,1-1.31.194,3.239,3.239,0,0,1-2.682-1.324,4.246,4.246,0,0,1-.841-2.632,3.828,3.828,0,0,1,.95-2.7,3.4,3.4,0,0,1,2.667-1.1,3.279,3.279,0,0,1,2.089.662,2.722,2.722,0,0,1,1.06,2.325V1315a4.015,4.015,0,0,1-1.279,3.2,4.148,4.148,0,0,1-1.824.9,5.309,5.309,0,0,1-1.216.129c-.115,0-.3-.011-.546-.032l-.764-.985v-.694a6.173,6.173,0,0,0,.982.08q2.511,0,2.713-2.277m.032-4.569a1.3,1.3,0,0,0-.452-1.066,1.162,1.162,0,0,0-.8-.274,1.53,1.53,0,0,0-1.271.581,2.51,2.51,0,0,0-.46,1.6,2.453,2.453,0,0,0,.522,1.655,1.789,1.789,0,0,0,1.426.606,2.988,2.988,0,0,0,1.03-.195Z" transform="translate(-207.676 -36.896)" fill="#fff"/><path d="M1794.74,1347.381v7.865h4.321v1.631h-6.173v-9.5Z" transform="translate(-0.726 -59.234)" fill="#fff"/><path d="M1811.584,1352.7a3.037,3.037,0,0,1,2.532,1.114,3.939,3.939,0,0,1,.769,2.546,3.775,3.775,0,0,1-1,2.812,3.156,3.156,0,0,1-2.3.849,3.055,3.055,0,0,1-2.532-1.1,4,4,0,0,1-.769-2.56,3.753,3.753,0,0,1,1-2.8,3.13,3.13,0,0,1,2.305-.862m0,1.472a1.327,1.327,0,0,0-1.134.6,2.679,2.679,0,0,0-.428,1.584,2.641,2.641,0,0,0,.479,1.672,1.387,1.387,0,0,0,2.224-.086,2.654,2.654,0,0,0,.435-1.585,2.57,2.57,0,0,0-.492-1.657,1.336,1.336,0,0,0-1.084-.53" transform="translate(-9.406 -62.235)" fill="#fff"/><path d="M1831.361,1355.42h-1.65a1.939,1.939,0,0,0-.435-.968,1.092,1.092,0,0,0-.8-.278,1.112,1.112,0,0,0-1.083.584,3.781,3.781,0,0,0-.328,1.658,2.879,2.879,0,0,0,.372,1.571,1.16,1.16,0,0,0,1.027.577,1.078,1.078,0,0,0,.8-.285,2.035,2.035,0,0,0,.447-.948h1.65a2.9,2.9,0,0,1-1.008,2.056,3.18,3.18,0,0,1-4.309-.424,4.822,4.822,0,0,1,.227-5.4,2.915,2.915,0,0,1,2.218-.862,2.806,2.806,0,0,1,2.116.808,3.037,3.037,0,0,1,.756,1.91" transform="translate(-19.017 -62.234)" fill="#fff"/><path d="M1846.928,1359.413v.464h-1.89a1.239,1.239,0,0,1-.2-.716,2.433,2.433,0,0,1-2.016.862,2.054,2.054,0,0,1-1.562-.624,1.939,1.939,0,0,1-.479-1.392,1.976,1.976,0,0,1,1.008-1.883,6.5,6.5,0,0,1,1.7-.477l1.361-.265-.013-.5q-.012-.7-1.008-.7a1.48,1.48,0,0,0-.9.206,1.079,1.079,0,0,0-.321.749h-1.663q.151-2.427,2.847-2.427a3.3,3.3,0,0,1,2.142.557,2.045,2.045,0,0,1,.593,1.6v3.925a.6.6,0,0,0,.4.623m-2.079-2.931-1.273.306a1.774,1.774,0,0,0-.806.384.848.848,0,0,0-.252.623q0,.756.933.756,1.348,0,1.385-1.551Z" transform="translate(-27.73 -62.235)" fill="#fff"/><rect width="1.738" height="9.495" transform="translate(1820.332 1288.147)" fill="#fff"/><path d="M1877.668,1350.363H1875.9a1.836,1.836,0,0,0-1.927-1.645,2.019,2.019,0,0,0-1.8.981,4.27,4.27,0,0,0-.542,2.294,3.867,3.867,0,0,0,.68,2.467,2.176,2.176,0,0,0,2.986.252,2.066,2.066,0,0,0,.605-1.366h1.8a3.466,3.466,0,0,1-1.26,2.666,3.953,3.953,0,0,1-2.582.822,3.671,3.671,0,0,1-3.125-1.485,5.548,5.548,0,0,1-.957-3.395,5.215,5.215,0,0,1,1.26-3.74,3.742,3.742,0,0,1,2.86-1.167,3.66,3.66,0,0,1,3.162,1.472,3.472,3.472,0,0,1,.6,1.844" transform="translate(-44.083 -59.046)" fill="#fff"/><path d="M1893.157,1352.7a3.039,3.039,0,0,1,2.532,1.114,3.942,3.942,0,0,1,.768,2.546,3.776,3.776,0,0,1-1,2.812,3.156,3.156,0,0,1-2.305.849,3.055,3.055,0,0,1-2.532-1.1,4,4,0,0,1-.769-2.56,3.752,3.752,0,0,1,1-2.8,3.131,3.131,0,0,1,2.3-.862m0,1.472a1.326,1.326,0,0,0-1.134.6,2.677,2.677,0,0,0-.429,1.584,2.639,2.639,0,0,0,.479,1.672,1.387,1.387,0,0,0,2.224-.086,2.655,2.655,0,0,0,.435-1.585,2.571,2.571,0,0,0-.492-1.657,1.336,1.336,0,0,0-1.084-.53" transform="translate(-55.402 -62.235)" fill="#fff"/><path d="M1907.795,1352.849h1.739v.995a2.218,2.218,0,0,1,1.99-1.141,2.126,2.126,0,0,1,1.739.716,2.709,2.709,0,0,1,.5,1.724v4.734h-1.725v-4.363q0-1.259-1.122-1.26a1.3,1.3,0,0,0-1.385,1.379v4.244h-1.739Z" transform="translate(-65.517 -62.235)" fill="#fff"/><path d="M1927.391,1350.173v1.207h-1.172v3.912a.8.8,0,0,0,.132.531.642.642,0,0,0,.485.146,1.707,1.707,0,0,0,.743-.239.69.69,0,0,1,.063-.04l.2,1.247a3.568,3.568,0,0,1-1.663.411,1.478,1.478,0,0,1-1.7-1.644v-4.323h-.857v-1.207h.857v-1.167l1.738-1.047v2.215Z" transform="translate(-74.442 -59.56)" fill="#fff"/><path d="M1941,1356.84h-4.485a2.726,2.726,0,0,0,.252,1.207,1.417,1.417,0,0,0,2.444-.265h1.713a2.927,2.927,0,0,1-1.128,1.638,3.263,3.263,0,0,1-1.959.6,2.769,2.769,0,0,1-2.343-1.074,3.98,3.98,0,0,1-.719-2.48,4.136,4.136,0,0,1,.932-2.891,2.814,2.814,0,0,1,2.155-.875,3.076,3.076,0,0,1,1.789.53,2.884,2.884,0,0,1,1.1,1.485,5.358,5.358,0,0,1,.265,1.79c0,.089,0,.2-.013.331m-1.8-1.207q-.126-1.539-1.348-1.538-1.147,0-1.31,1.538Z" transform="translate(-80.729 -62.235)" fill="#fff"/><path d="M1951.729,1352.849h1.738v.995a2.219,2.219,0,0,1,1.991-1.141,2.125,2.125,0,0,1,1.738.716,2.706,2.706,0,0,1,.5,1.724v4.734h-1.726v-4.363q0-1.259-1.122-1.26a1.3,1.3,0,0,0-1.386,1.379v4.244h-1.738Z" transform="translate(-90.289 -62.235)" fill="#fff"/><path d="M1971.325,1350.173v1.207h-1.172v3.912a.8.8,0,0,0,.132.531.642.642,0,0,0,.485.146,1.709,1.709,0,0,0,.744-.239.7.7,0,0,1,.062-.04l.2,1.247a3.567,3.567,0,0,1-1.663.411,1.479,1.479,0,0,1-1.7-1.644v-4.323h-.857v-1.207h.857v-1.167l1.739-1.047v2.215Z" transform="translate(-99.214 -59.56)" fill="#fff"/><path d="M1990.421,1351.791h1.411v.133a4.361,4.361,0,0,1-.856,2.718l1.65,2.148h-2l-.681-.888a5.839,5.839,0,0,1-1.266.829,3.213,3.213,0,0,1-3.37-.656,2.754,2.754,0,0,1-.705-1.937,2.55,2.55,0,0,1,.428-1.525,4.535,4.535,0,0,1,1.511-1.193,7.45,7.45,0,0,1-.832-1.16,1.861,1.861,0,0,1-.189-.843,2.052,2.052,0,0,1,.756-1.644,2.437,2.437,0,0,1,1.588-.544,2.253,2.253,0,0,1,1.676.623,1.9,1.9,0,0,1,.529,1.379,2.261,2.261,0,0,1-.308,1.214,4.254,4.254,0,0,1-1.141,1.094l1.436,1.883a3.2,3.2,0,0,0,.378-1.459,1.687,1.687,0,0,0-.012-.172m-3.062.69-.58.4a1.3,1.3,0,0,0-.541,1.034,1.54,1.54,0,0,0,.41,1.048,1.212,1.212,0,0,0,.926.464,2.653,2.653,0,0,0,1.474-.7Zm.479-1.962a1.29,1.29,0,0,0,.744-1.127q0-.756-.718-.755t-.706.636a2.108,2.108,0,0,0,.542,1.061Z" transform="translate(-108.824 -59.149)" fill="#fff"/><path d="M2018.008,1351.516v5.172H2016.9l-.226-1.353a3.1,3.1,0,0,1-2.709,1.5,3.835,3.835,0,0,1-3.187-1.538,5.3,5.3,0,0,1-1.046-3.342,5.029,5.029,0,0,1,1.361-3.713,4.49,4.49,0,0,1,5.833-.226,3.272,3.272,0,0,1,1.083,2.175h-1.738a2.082,2.082,0,0,0-2.167-1.472,2.208,2.208,0,0,0-1.928.955,3.846,3.846,0,0,0-.592,2.241,3.544,3.544,0,0,0,.819,2.453,2.262,2.262,0,0,0,1.764.8,2.288,2.288,0,0,0,1.84-.862,2.152,2.152,0,0,0,.441-1.154h-2.053v-1.631Z" transform="translate(-122.994 -59.046)" fill="#fff"/><path d="M2034.753,1352.7a3.039,3.039,0,0,1,2.532,1.114,3.941,3.941,0,0,1,.769,2.546,3.775,3.775,0,0,1-1,2.812,3.157,3.157,0,0,1-2.306.849,3.055,3.055,0,0,1-2.532-1.1,4,4,0,0,1-.769-2.56,3.753,3.753,0,0,1,1-2.8,3.131,3.131,0,0,1,2.3-.862m0,1.472a1.325,1.325,0,0,0-1.133.6,2.674,2.674,0,0,0-.429,1.584,2.639,2.639,0,0,0,.479,1.672,1.387,1.387,0,0,0,2.224-.086,2.654,2.654,0,0,0,.435-1.585,2.569,2.569,0,0,0-.491-1.657,1.336,1.336,0,0,0-1.084-.53" transform="translate(-135.242 -62.235)" fill="#fff"/><path d="M2052.1,1360.065h-1.826l-2.331-7.028h1.839l1.436,5.145,1.361-5.145h1.814Z" transform="translate(-144.542 -62.423)" fill="#fff"/><path d="M2070.2,1356.84h-4.485a2.737,2.737,0,0,0,.252,1.207,1.417,1.417,0,0,0,2.444-.265h1.713a2.931,2.931,0,0,1-1.128,1.638,3.263,3.263,0,0,1-1.959.6,2.771,2.771,0,0,1-2.344-1.074,3.984,3.984,0,0,1-.718-2.48,4.135,4.135,0,0,1,.932-2.891,2.813,2.813,0,0,1,2.154-.875,3.075,3.075,0,0,1,1.789.53,2.883,2.883,0,0,1,1.1,1.485,5.353,5.353,0,0,1,.264,1.79q0,.133-.012.331m-1.8-1.207q-.125-1.539-1.348-1.538-1.147,0-1.31,1.538Z" transform="translate(-153.581 -62.235)" fill="#fff"/><path d="M2080.934,1352.849h1.738v1.34a1.723,1.723,0,0,1,1.865-1.486h.34l.013,1.8a3.168,3.168,0,0,0-.655-.067,1.65,1.65,0,0,0-1.184.332,1.86,1.86,0,0,0-.378,1.34v3.766h-1.738Z" transform="translate(-163.142 -62.235)" fill="#fff"/><path d="M2091.824,1352.849h1.739v.995a2.217,2.217,0,0,1,1.99-1.141,2.126,2.126,0,0,1,1.739.716,2.7,2.7,0,0,1,.5,1.724v4.734h-1.726v-4.363q0-1.259-1.122-1.26a1.3,1.3,0,0,0-1.385,1.379v4.244h-1.739Z" transform="translate(-169.283 -62.235)" fill="#fff"/><path d="M2109.04,1352.849h1.726v.849a2.257,2.257,0,0,1,1.827-.994,1.854,1.854,0,0,1,1.814,1.034,2.316,2.316,0,0,1,1.952-1.034,2.089,2.089,0,0,1,1.569.577,2.2,2.2,0,0,1,.561,1.6v5h-1.726v-4.708a.822.822,0,0,0-.945-.915,1.087,1.087,0,0,0-.869.365,1.5,1.5,0,0,0-.315,1.015v4.244h-1.739v-4.708a.817.817,0,0,0-.933-.915,1.088,1.088,0,0,0-.869.365,1.505,1.505,0,0,0-.315,1.015v4.244h-1.739Z" transform="translate(-178.99 -62.235)" fill="#fff"/><path d="M2139.5,1356.84h-4.485a2.729,2.729,0,0,0,.252,1.207,1.417,1.417,0,0,0,2.444-.265h1.714a2.931,2.931,0,0,1-1.128,1.638,3.262,3.262,0,0,1-1.959.6,2.768,2.768,0,0,1-2.343-1.074,3.979,3.979,0,0,1-.719-2.48,4.137,4.137,0,0,1,.933-2.891,2.813,2.813,0,0,1,2.154-.875,3.079,3.079,0,0,1,1.789.53,2.885,2.885,0,0,1,1.1,1.485,5.353,5.353,0,0,1,.264,1.79c0,.089,0,.2-.012.331m-1.8-1.207q-.126-1.539-1.348-1.538-1.146,0-1.31,1.538Z" transform="translate(-192.655 -62.235)" fill="#fff"/><path d="M2150.23,1352.849h1.739v.995a2.218,2.218,0,0,1,1.99-1.141,2.123,2.123,0,0,1,1.738.716,2.707,2.707,0,0,1,.5,1.724v4.734h-1.726v-4.363q0-1.259-1.122-1.26a1.3,1.3,0,0,0-1.386,1.379v4.244h-1.739Z" transform="translate(-202.215 -62.235)" fill="#fff"/><path d="M2169.826,1350.173v1.207h-1.172v3.912a.8.8,0,0,0,.132.531.64.64,0,0,0,.485.146,1.711,1.711,0,0,0,.743-.239.688.688,0,0,1,.063-.04l.2,1.247a3.569,3.569,0,0,1-1.663.411,1.479,1.479,0,0,1-1.7-1.644v-4.323h-.856v-1.207h.856v-1.167l1.739-1.047v2.215Z" transform="translate(-211.141 -59.56)" fill="#fff"/><path d="M1795.205,1385.8v3.382h-2.067v-9.5h4.442a3.344,3.344,0,0,1,2.516.862,2.872,2.872,0,0,1,.731,2.082,3.132,3.132,0,0,1-.928,2.414,2.978,2.978,0,0,1-2.109.756Zm0-1.631h1.926q1.631,0,1.631-1.419t-1.631-1.433h-1.926Z" transform="translate(-0.867 -77.45)" fill="#fff"/><path d="M1815.733,1385.154h1.939v1.34a1.886,1.886,0,0,1,2.08-1.486h.38l.014,1.8a3.987,3.987,0,0,0-.731-.067,1.99,1.99,0,0,0-1.321.332,1.73,1.73,0,0,0-.422,1.34v3.766h-1.939Z" transform="translate(-13.607 -80.45)" fill="#fff"/><path d="M1832.694,1385.008a3.57,3.57,0,0,1,2.825,1.114,3.667,3.667,0,0,1,.858,2.546,3.553,3.553,0,0,1-1.11,2.811,3.763,3.763,0,0,1-2.573.85,3.59,3.59,0,0,1-2.825-1.1,3.717,3.717,0,0,1-.858-2.56,3.536,3.536,0,0,1,1.11-2.8,3.729,3.729,0,0,1,2.573-.862m0,1.472a1.533,1.533,0,0,0-1.265.6,2.478,2.478,0,0,0-.478,1.585,2.449,2.449,0,0,0,.534,1.671,1.574,1.574,0,0,0,1.209.517,1.552,1.552,0,0,0,1.272-.6,2.453,2.453,0,0,0,.485-1.585,2.388,2.388,0,0,0-.548-1.657,1.555,1.555,0,0,0-1.209-.53" transform="translate(-21.094 -80.45)" fill="#fff"/><path d="M1856.79,1387.727h-1.841a1.862,1.862,0,0,0-.485-.968,1.308,1.308,0,0,0-.893-.278,1.275,1.275,0,0,0-1.209.583,3.448,3.448,0,0,0-.365,1.658,2.638,2.638,0,0,0,.415,1.571,1.331,1.331,0,0,0,1.146.577,1.286,1.286,0,0,0,.892-.286,1.951,1.951,0,0,0,.5-.948h1.841a2.8,2.8,0,0,1-1.124,2.056,3.415,3.415,0,0,1-2.123.649,3.327,3.327,0,0,1-2.685-1.074,3.7,3.7,0,0,1-.8-2.506,3.76,3.76,0,0,1,1.054-2.891,3.46,3.46,0,0,1,2.474-.862,3.335,3.335,0,0,1,2.361.808,2.872,2.872,0,0,1,.843,1.91" transform="translate(-32.961 -80.45)" fill="#fff"/><path d="M1876.961,1392.372h-1.926v-.995a2.557,2.557,0,0,1-2.235,1.141,2.512,2.512,0,0,1-1.94-.716,2.461,2.461,0,0,1-.562-1.711v-4.748h1.939v4.364a1.1,1.1,0,0,0,1.237,1.259,1.669,1.669,0,0,0,1.132-.371,1.263,1.263,0,0,0,.428-1.007v-4.244h1.926Z" transform="translate(-44.374 -80.639)" fill="#fff"/><path d="M1891.667,1385.154h1.939v1.34a1.886,1.886,0,0,1,2.081-1.486h.379l.014,1.8a4,4,0,0,0-.731-.067,1.991,1.991,0,0,0-1.321.332,1.731,1.731,0,0,0-.422,1.34v3.766h-1.939Z" transform="translate(-56.423 -80.45)" fill="#fff"/><path d="M1911.728,1389.146h-5a2.49,2.49,0,0,0,.281,1.207,1.451,1.451,0,0,0,1.279.584,1.421,1.421,0,0,0,1.448-.849h1.912a2.951,2.951,0,0,1-1.258,1.638,3.944,3.944,0,0,1-2.186.6,3.242,3.242,0,0,1-2.615-1.074,3.694,3.694,0,0,1-.8-2.48,3.871,3.871,0,0,1,1.04-2.891,3.33,3.33,0,0,1,2.4-.875,3.721,3.721,0,0,1,2,.53,2.932,2.932,0,0,1,1.223,1.485,4.845,4.845,0,0,1,.3,1.79c0,.089,0,.2-.014.332m-2.01-1.207q-.141-1.539-1.5-1.539-1.28,0-1.462,1.539Z" transform="translate(-63.819 -80.45)" fill="#fff"/><path d="M1925.733,1385.154h1.925V1386a2.611,2.611,0,0,1,2.039-.995,2.118,2.118,0,0,1,2.024,1.034,2.685,2.685,0,0,1,2.179-1.034,2.486,2.486,0,0,1,1.75.577,2.067,2.067,0,0,1,.626,1.6v5h-1.926v-4.708q0-.915-1.054-.915a1.282,1.282,0,0,0-.969.364,1.4,1.4,0,0,0-.352,1.015v4.244h-1.939v-4.708q0-.915-1.04-.915a1.284,1.284,0,0,0-.97.364,1.4,1.4,0,0,0-.352,1.015v4.244h-1.939Z" transform="translate(-75.631 -80.45)" fill="#fff"/><path d="M1961.748,1389.146h-5a2.49,2.49,0,0,0,.281,1.207,1.451,1.451,0,0,0,1.279.584,1.421,1.421,0,0,0,1.448-.849h1.912a2.951,2.951,0,0,1-1.259,1.638,3.941,3.941,0,0,1-2.186.6,3.242,3.242,0,0,1-2.615-1.074,3.7,3.7,0,0,1-.8-2.48,3.871,3.871,0,0,1,1.04-2.891,3.33,3.33,0,0,1,2.4-.875,3.721,3.721,0,0,1,2,.53,2.927,2.927,0,0,1,1.223,1.485,4.84,4.84,0,0,1,.3,1.79c0,.089-.005.2-.014.332m-2.01-1.207q-.14-1.539-1.5-1.539-1.279,0-1.462,1.539Z" transform="translate(-92.023 -80.45)" fill="#fff"/><path d="M1975.755,1385.154h1.94v.995a2.543,2.543,0,0,1,2.221-1.141,2.227,2.227,0,0,1,2.5,2.44v4.734h-1.926v-4.364a1.109,1.109,0,0,0-1.251-1.259,1.622,1.622,0,0,0-1.125.378,1.28,1.28,0,0,0-.422,1v4.244h-1.94Z" transform="translate(-103.836 -80.45)" fill="#fff"/><path d="M1999.65,1382.479v1.207h-1.307v3.912a.742.742,0,0,0,.148.531.769.769,0,0,0,.541.146,2.06,2.06,0,0,0,.83-.239.682.682,0,0,1,.07-.039l.225,1.247a4.351,4.351,0,0,1-1.856.411q-1.9,0-1.9-1.645v-4.323h-.957v-1.207h.957v-1.167l1.94-1.048v2.214Z" transform="translate(-114.94 -77.776)" fill="#fff"/><path d="M2024.171,1387.272H2020.4l-.675,1.91h-2.108l3.571-9.5h2.291l3.486,9.5h-2.136Zm-.562-1.631-1.307-3.713-1.322,3.713Z" transform="translate(-127.443 -77.45)" fill="#fff"/><path d="M2050,1392.372h-1.926v-.995a2.556,2.556,0,0,1-2.234,1.141,2.511,2.511,0,0,1-1.94-.716,2.46,2.46,0,0,1-.562-1.711v-4.748h1.939v4.364a1.1,1.1,0,0,0,1.237,1.259,1.667,1.667,0,0,0,1.132-.371,1.261,1.261,0,0,0,.428-1.007v-4.244H2050Z" transform="translate(-141.945 -80.639)" fill="#fff"/><path d="M2067.366,1382.479v1.207h-1.308v3.912a.745.745,0,0,0,.148.531.771.771,0,0,0,.541.146,2.061,2.061,0,0,0,.83-.239.634.634,0,0,1,.07-.039l.225,1.247a4.352,4.352,0,0,1-1.855.411q-1.9,0-1.9-1.645v-4.323h-.956v-1.207h.956v-1.167l1.94-1.048v2.214Z" transform="translate(-153.121 -77.776)" fill="#fff"/><path d="M2078.7,1379.688h1.939v3.461a2.5,2.5,0,0,1,2.179-1.141,2.556,2.556,0,0,1,1.659.544,2.245,2.245,0,0,1,.773,1.9v4.734h-1.94v-4.364q0-1.259-1.18-1.26a1.517,1.517,0,0,0-1.076.385,1.3,1.3,0,0,0-.415.995v4.244H2078.7Z" transform="translate(-161.882 -77.451)" fill="#fff"/><path d="M2102.427,1385.008a3.57,3.57,0,0,1,2.825,1.114,3.667,3.667,0,0,1,.858,2.546,3.552,3.552,0,0,1-1.111,2.811,3.76,3.76,0,0,1-2.573.85,3.59,3.59,0,0,1-2.825-1.1,3.716,3.716,0,0,1-.857-2.56,3.535,3.535,0,0,1,1.11-2.8,3.729,3.729,0,0,1,2.572-.862m0,1.472a1.532,1.532,0,0,0-1.265.6,2.479,2.479,0,0,0-.479,1.585,2.451,2.451,0,0,0,.534,1.671,1.573,1.573,0,0,0,1.209.517,1.554,1.554,0,0,0,1.273-.6,2.454,2.454,0,0,0,.485-1.585,2.386,2.386,0,0,0-.548-1.657,1.556,1.556,0,0,0-1.209-.53" transform="translate(-173.185 -80.45)" fill="#fff"/><path d="M2120.791,1385.154h1.939v1.34a1.887,1.887,0,0,1,2.081-1.486h.38l.013,1.8a3.982,3.982,0,0,0-.731-.067,1.993,1.993,0,0,0-1.322.332,1.732,1.732,0,0,0-.422,1.34v3.766h-1.939Z" transform="translate(-185.616 -80.45)" fill="#fff"/><path d="M2136.975,1389.251h-1.94v-7.029h1.94Zm-.984-9.442a.883.883,0,0,1,.639.252.818.818,0,0,1,.26.61.8.8,0,0,1-.26.6.9.9,0,0,1-.639.245.923.923,0,0,1-.647-.245.788.788,0,0,1-.267-.6.808.808,0,0,1,.267-.61.91.91,0,0,1,.647-.252" transform="translate(-193.648 -77.519)" fill="#fff"/><path d="M2148.3,1382.479v1.207h-1.308v3.912a.742.742,0,0,0,.148.531.769.769,0,0,0,.541.146,2.062,2.062,0,0,0,.83-.239.682.682,0,0,1,.07-.039l.225,1.247a4.351,4.351,0,0,1-1.855.411q-1.9,0-1.9-1.645v-4.323h-.956v-1.207h.956v-1.167l1.94-1.048v2.214Z" transform="translate(-198.754 -77.776)" fill="#fff"/><path d="M2163.232,1385.342h1.983l-3.064,8.3a2.334,2.334,0,0,1-.858,1.226,3,3,0,0,1-1.588.339,2.711,2.711,0,0,1-1.35-.239l.3-1.234a3.753,3.753,0,0,0,.844.12,1.232,1.232,0,0,0,.844-.312.957.957,0,0,0,.352-.736v-.146l-2.77-7.32h2.123l1.659,5.118Z" transform="translate(-206.55 -80.639)" fill="#fff"/></g></svg>